<svg width="164" height="151" viewBox="0 0 164 151" fill="none" xmlns="http://www.w3.org/2000/svg">
<path d="M91.1045 39.6294H109.5" stroke="#951C3F" stroke-opacity="0.35" stroke-linecap="round" stroke-linejoin="round"/>
<path d="M99.2148 41.0161V44.378" stroke="#951C3F" stroke-opacity="0.35" stroke-linecap="round" stroke-linejoin="round"/>
<path d="M86.1599 41.0161V44.378" stroke="#951C3F" stroke-opacity="0.35" stroke-linecap="round" stroke-linejoin="round"/>
<path d="M100.598 45.3657H111.279" stroke="#951C3F" stroke-opacity="0.35" stroke-linecap="round" stroke-linejoin="round"/>
<path d="M84.5769 45.3657H95.2578" stroke="#951C3F" stroke-opacity="0.35" stroke-linecap="round" stroke-linejoin="round"/>
<path d="M106.138 46.5528V50.7061" stroke="#951C3F" stroke-opacity="0.35" stroke-linecap="round" stroke-linejoin="round"/>
<path d="M94.0708 46.9484V51.1017" stroke="#951C3F" stroke-opacity="0.35" stroke-linecap="round" stroke-linejoin="round"/>
<path d="M91.1045 52.2889H109.5" stroke="#951C3F" stroke-opacity="0.35" stroke-linecap="round" stroke-linejoin="round"/>
<path d="M99.2148 53.6757V57.0375" stroke="#951C3F" stroke-opacity="0.35" stroke-linecap="round" stroke-linejoin="round"/>
<path d="M86.1599 53.6757V57.0375" stroke="#951C3F" stroke-opacity="0.35" stroke-linecap="round" stroke-linejoin="round"/>
<path d="M100.598 58.0252H111.279" stroke="#951C3F" stroke-opacity="0.35" stroke-linecap="round" stroke-linejoin="round"/>
<path d="M84.5769 58.0252H95.2578" stroke="#951C3F" stroke-opacity="0.35" stroke-linecap="round" stroke-linejoin="round"/>
<path d="M106.138 59.2123V63.3656" stroke="#951C3F" stroke-opacity="0.35" stroke-linecap="round" stroke-linejoin="round"/>
<path d="M94.0708 59.6079V63.7612" stroke="#951C3F" stroke-opacity="0.35" stroke-linecap="round" stroke-linejoin="round"/>
<path d="M129.083 39.6294H147.479" stroke="#951C3F" stroke-opacity="0.35" stroke-linecap="round" stroke-linejoin="round"/>
<path d="M137.193 41.0161V44.378" stroke="#951C3F" stroke-opacity="0.35" stroke-linecap="round" stroke-linejoin="round"/>
<path d="M124.138 41.0161V44.378" stroke="#951C3F" stroke-opacity="0.35" stroke-linecap="round" stroke-linejoin="round"/>
<path d="M138.577 45.3657H149.258" stroke="#951C3F" stroke-opacity="0.35" stroke-linecap="round" stroke-linejoin="round"/>
<path d="M122.555 45.3657H133.236" stroke="#951C3F" stroke-opacity="0.35" stroke-linecap="round" stroke-linejoin="round"/>
<path d="M144.117 46.5528V50.7061" stroke="#951C3F" stroke-opacity="0.35" stroke-linecap="round" stroke-linejoin="round"/>
<path d="M132.049 46.9484V51.1017" stroke="#951C3F" stroke-opacity="0.35" stroke-linecap="round" stroke-linejoin="round"/>
<path d="M129.083 52.2889H147.479" stroke="#951C3F" stroke-opacity="0.35" stroke-linecap="round" stroke-linejoin="round"/>
<path d="M137.193 53.6757V57.0375" stroke="#951C3F" stroke-opacity="0.35" stroke-linecap="round" stroke-linejoin="round"/>
<path d="M124.138 53.6757V57.0375" stroke="#951C3F" stroke-opacity="0.35" stroke-linecap="round" stroke-linejoin="round"/>
<path d="M138.577 58.0252H149.258" stroke="#951C3F" stroke-opacity="0.35" stroke-linecap="round" stroke-linejoin="round"/>
<path d="M122.555 58.0252H133.236" stroke="#951C3F" stroke-opacity="0.35" stroke-linecap="round" stroke-linejoin="round"/>
<path d="M144.117 59.2123V63.3656" stroke="#951C3F" stroke-opacity="0.35" stroke-linecap="round" stroke-linejoin="round"/>
<path d="M132.049 59.6079V63.7612" stroke="#951C3F" stroke-opacity="0.35" stroke-linecap="round" stroke-linejoin="round"/>
<path d="M103.067 13.7558H121.463" stroke="#951C3F" stroke-opacity="0.35" stroke-linecap="round" stroke-linejoin="round"/>
<path d="M111.178 15.1391V18.5044" stroke="#951C3F" stroke-opacity="0.35" stroke-linecap="round" stroke-linejoin="round"/>
<path d="M98.1228 15.1391V18.5044" stroke="#951C3F" stroke-opacity="0.35" stroke-linecap="round" stroke-linejoin="round"/>
<path d="M112.561 19.492H123.246" stroke="#951C3F" stroke-opacity="0.35" stroke-linecap="round" stroke-linejoin="round"/>
<path d="M96.5398 19.492H107.221" stroke="#951C3F" stroke-opacity="0.35" stroke-linecap="round" stroke-linejoin="round"/>
<path d="M118.101 20.6791V24.8324" stroke="#951C3F" stroke-opacity="0.35" stroke-linecap="round" stroke-linejoin="round"/>
<path d="M106.037 21.0748V25.2281" stroke="#951C3F" stroke-opacity="0.35" stroke-linecap="round" stroke-linejoin="round"/>
<path d="M103.067 26.4153H121.463" stroke="#951C3F" stroke-opacity="0.35" stroke-linecap="round" stroke-linejoin="round"/>
<path d="M111.178 27.7986V31.1638" stroke="#951C3F" stroke-opacity="0.35" stroke-linecap="round" stroke-linejoin="round"/>
<path d="M98.1228 27.7986V31.1638" stroke="#951C3F" stroke-opacity="0.35" stroke-linecap="round" stroke-linejoin="round"/>
<path d="M112.561 32.1515H123.246" stroke="#951C3F" stroke-opacity="0.35" stroke-linecap="round" stroke-linejoin="round"/>
<path d="M96.5398 32.1515H107.221" stroke="#951C3F" stroke-opacity="0.35" stroke-linecap="round" stroke-linejoin="round"/>
<path d="M118.101 33.3386V37.492" stroke="#951C3F" stroke-opacity="0.35" stroke-linecap="round" stroke-linejoin="round"/>
<path d="M106.037 33.7343V37.8876" stroke="#951C3F" stroke-opacity="0.35" stroke-linecap="round" stroke-linejoin="round"/>
<path d="M91.1045 97.0792H109.5" stroke="#951C3F" stroke-opacity="0.35" stroke-linecap="round" stroke-linejoin="round"/>
<path d="M99.2148 98.4659V101.828" stroke="#951C3F" stroke-opacity="0.35" stroke-linecap="round" stroke-linejoin="round"/>
<path d="M86.1599 98.4659V101.828" stroke="#951C3F" stroke-opacity="0.35" stroke-linecap="round" stroke-linejoin="round"/>
<path d="M100.598 102.819H111.279" stroke="#951C3F" stroke-opacity="0.35" stroke-linecap="round" stroke-linejoin="round"/>
<path d="M84.5769 102.819H95.2578" stroke="#951C3F" stroke-opacity="0.35" stroke-linecap="round" stroke-linejoin="round"/>
<path d="M106.138 104.002V108.159" stroke="#951C3F" stroke-opacity="0.35" stroke-linecap="round" stroke-linejoin="round"/>
<path d="M94.0708 104.398V108.555" stroke="#951C3F" stroke-opacity="0.35" stroke-linecap="round" stroke-linejoin="round"/>
<path d="M91.1045 109.739H109.5" stroke="#951C3F" stroke-opacity="0.35" stroke-linecap="round" stroke-linejoin="round"/>
<path d="M99.2148 111.125V114.487" stroke="#951C3F" stroke-opacity="0.35" stroke-linecap="round" stroke-linejoin="round"/>
<path d="M86.1599 111.125V114.487" stroke="#951C3F" stroke-opacity="0.35" stroke-linecap="round" stroke-linejoin="round"/>
<path d="M100.598 115.475H111.279" stroke="#951C3F" stroke-opacity="0.35" stroke-linecap="round" stroke-linejoin="round"/>
<path d="M84.5769 115.475H95.2578" stroke="#951C3F" stroke-opacity="0.35" stroke-linecap="round" stroke-linejoin="round"/>
<path d="M106.138 116.662V120.815" stroke="#951C3F" stroke-opacity="0.35" stroke-linecap="round" stroke-linejoin="round"/>
<path d="M94.0708 117.058V121.211" stroke="#951C3F" stroke-opacity="0.35" stroke-linecap="round" stroke-linejoin="round"/>
<path d="M129.083 97.0792H147.479" stroke="#951C3F" stroke-opacity="0.35" stroke-linecap="round" stroke-linejoin="round"/>
<path d="M137.193 98.4659V101.828" stroke="#951C3F" stroke-opacity="0.35" stroke-linecap="round" stroke-linejoin="round"/>
<path d="M124.138 98.4659V101.828" stroke="#951C3F" stroke-opacity="0.35" stroke-linecap="round" stroke-linejoin="round"/>
<path d="M138.577 102.819H149.258" stroke="#951C3F" stroke-opacity="0.35" stroke-linecap="round" stroke-linejoin="round"/>
<path d="M122.555 102.819H133.236" stroke="#951C3F" stroke-opacity="0.35" stroke-linecap="round" stroke-linejoin="round"/>
<path d="M144.117 104.002V108.159" stroke="#951C3F" stroke-opacity="0.35" stroke-linecap="round" stroke-linejoin="round"/>
<path d="M132.049 104.398V108.555" stroke="#951C3F" stroke-opacity="0.35" stroke-linecap="round" stroke-linejoin="round"/>
<path d="M129.083 109.739H147.479" stroke="#951C3F" stroke-opacity="0.35" stroke-linecap="round" stroke-linejoin="round"/>
<path d="M137.193 111.125V114.487" stroke="#951C3F" stroke-opacity="0.35" stroke-linecap="round" stroke-linejoin="round"/>
<path d="M124.138 111.125V114.487" stroke="#951C3F" stroke-opacity="0.35" stroke-linecap="round" stroke-linejoin="round"/>
<path d="M138.577 115.475H149.258" stroke="#951C3F" stroke-opacity="0.35" stroke-linecap="round" stroke-linejoin="round"/>
<path d="M122.555 115.475H133.236" stroke="#951C3F" stroke-opacity="0.35" stroke-linecap="round" stroke-linejoin="round"/>
<path d="M144.117 116.662V120.815" stroke="#951C3F" stroke-opacity="0.35" stroke-linecap="round" stroke-linejoin="round"/>
<path d="M132.049 117.058V121.211" stroke="#951C3F" stroke-opacity="0.35" stroke-linecap="round" stroke-linejoin="round"/>
<path d="M103.067 71.2055H121.463" stroke="#951C3F" stroke-opacity="0.35" stroke-linecap="round" stroke-linejoin="round"/>
<path d="M111.178 72.5922V75.9541" stroke="#951C3F" stroke-opacity="0.35" stroke-linecap="round" stroke-linejoin="round"/>
<path d="M98.1228 72.5922V75.9541" stroke="#951C3F" stroke-opacity="0.35" stroke-linecap="round" stroke-linejoin="round"/>
<path d="M112.561 76.9417H123.246" stroke="#951C3F" stroke-opacity="0.35" stroke-linecap="round" stroke-linejoin="round"/>
<path d="M96.5398 76.9417H107.221" stroke="#951C3F" stroke-opacity="0.35" stroke-linecap="round" stroke-linejoin="round"/>
<path d="M118.101 78.1288V82.2821" stroke="#951C3F" stroke-opacity="0.35" stroke-linecap="round" stroke-linejoin="round"/>
<path d="M106.037 78.5246V82.6779" stroke="#951C3F" stroke-opacity="0.35" stroke-linecap="round" stroke-linejoin="round"/>
<path d="M103.067 83.8649H121.463" stroke="#951C3F" stroke-opacity="0.35" stroke-linecap="round" stroke-linejoin="round"/>
<path d="M111.178 85.2483V88.6136" stroke="#951C3F" stroke-opacity="0.35" stroke-linecap="round" stroke-linejoin="round"/>
<path d="M98.1228 85.2483V88.6136" stroke="#951C3F" stroke-opacity="0.35" stroke-linecap="round" stroke-linejoin="round"/>
<path d="M112.561 89.6012H123.246" stroke="#951C3F" stroke-opacity="0.35" stroke-linecap="round" stroke-linejoin="round"/>
<path d="M96.5398 89.6012H107.221" stroke="#951C3F" stroke-opacity="0.35" stroke-linecap="round" stroke-linejoin="round"/>
<path d="M118.101 90.7883V94.9416" stroke="#951C3F" stroke-opacity="0.35" stroke-linecap="round" stroke-linejoin="round"/>
<path d="M106.037 91.1841V95.3374" stroke="#951C3F" stroke-opacity="0.35" stroke-linecap="round" stroke-linejoin="round"/>
<path d="M51.8171 27.7918H70.2128" stroke="#951C3F" stroke-opacity="0.35" stroke-linecap="round" stroke-linejoin="round"/>
<path d="M59.9277 29.1785V32.5404" stroke="#951C3F" stroke-opacity="0.35" stroke-linecap="round" stroke-linejoin="round"/>
<path d="M46.8726 29.1785V32.5404" stroke="#951C3F" stroke-opacity="0.35" stroke-linecap="round" stroke-linejoin="round"/>
<path d="M61.3142 33.528H71.9951" stroke="#951C3F" stroke-opacity="0.35" stroke-linecap="round" stroke-linejoin="round"/>
<path d="M45.2896 33.528H55.9739" stroke="#951C3F" stroke-opacity="0.35" stroke-linecap="round" stroke-linejoin="round"/>
<path d="M66.8511 34.7151V38.8684" stroke="#951C3F" stroke-opacity="0.35" stroke-linecap="round" stroke-linejoin="round"/>
<path d="M54.7866 35.1109V39.2642" stroke="#951C3F" stroke-opacity="0.35" stroke-linecap="round" stroke-linejoin="round"/>
<path d="M51.8171 40.4513H70.2128" stroke="#951C3F" stroke-opacity="0.35" stroke-linecap="round" stroke-linejoin="round"/>
<path d="M59.9277 41.838V45.1999" stroke="#951C3F" stroke-opacity="0.35" stroke-linecap="round" stroke-linejoin="round"/>
<path d="M46.8726 41.838V45.1999" stroke="#951C3F" stroke-opacity="0.35" stroke-linecap="round" stroke-linejoin="round"/>
<path d="M61.3142 46.1875H71.9951" stroke="#951C3F" stroke-opacity="0.35" stroke-linecap="round" stroke-linejoin="round"/>
<path d="M45.2896 46.1875H55.9739" stroke="#951C3F" stroke-opacity="0.35" stroke-linecap="round" stroke-linejoin="round"/>
<path d="M66.8511 47.3746V51.5279" stroke="#951C3F" stroke-opacity="0.35" stroke-linecap="round" stroke-linejoin="round"/>
<path d="M54.7866 47.7704V51.9237" stroke="#951C3F" stroke-opacity="0.35" stroke-linecap="round" stroke-linejoin="round"/>
<path d="M63.7832 1.91817H82.1789" stroke="#951C3F" stroke-opacity="0.35" stroke-linecap="round" stroke-linejoin="round"/>
<path d="M71.8904 3.30145V6.66672" stroke="#951C3F" stroke-opacity="0.35" stroke-linecap="round" stroke-linejoin="round"/>
<path d="M58.8386 3.30145V6.66672" stroke="#951C3F" stroke-opacity="0.35" stroke-linecap="round" stroke-linejoin="round"/>
<path d="M73.2771 7.65433H83.958" stroke="#951C3F" stroke-opacity="0.35" stroke-linecap="round" stroke-linejoin="round"/>
<path d="M57.2559 7.65433H67.9368" stroke="#951C3F" stroke-opacity="0.35" stroke-linecap="round" stroke-linejoin="round"/>
<path d="M78.8137 8.84143V12.9947" stroke="#951C3F" stroke-opacity="0.35" stroke-linecap="round" stroke-linejoin="round"/>
<path d="M66.7495 9.23721V13.3905" stroke="#951C3F" stroke-opacity="0.35" stroke-linecap="round" stroke-linejoin="round"/>
<path d="M63.7832 14.5776H82.1789" stroke="#951C3F" stroke-opacity="0.35" stroke-linecap="round" stroke-linejoin="round"/>
<path d="M71.8904 15.961V19.3262" stroke="#951C3F" stroke-opacity="0.35" stroke-linecap="round" stroke-linejoin="round"/>
<path d="M58.8386 15.961V19.3262" stroke="#951C3F" stroke-opacity="0.35" stroke-linecap="round" stroke-linejoin="round"/>
<path d="M73.2771 20.3138H83.958" stroke="#951C3F" stroke-opacity="0.35" stroke-linecap="round" stroke-linejoin="round"/>
<path d="M57.2559 20.3138H67.9368" stroke="#951C3F" stroke-opacity="0.35" stroke-linecap="round" stroke-linejoin="round"/>
<path d="M78.8137 21.501V25.6543" stroke="#951C3F" stroke-opacity="0.35" stroke-linecap="round" stroke-linejoin="round"/>
<path d="M66.7495 21.8967V26.05" stroke="#951C3F" stroke-opacity="0.35" stroke-linecap="round" stroke-linejoin="round"/>
<path d="M8.51855 53.8346H26.9142" stroke="#951C3F" stroke-opacity="0.35" stroke-linecap="round" stroke-linejoin="round"/>
<path d="M16.6292 55.2213V58.5832" stroke="#951C3F" stroke-opacity="0.35" stroke-linecap="round" stroke-linejoin="round"/>
<path d="M3.57397 55.2213V58.5832" stroke="#951C3F" stroke-opacity="0.35" stroke-linecap="round" stroke-linejoin="round"/>
<path d="M18.0122 59.5708H28.6931" stroke="#951C3F" stroke-opacity="0.35" stroke-linecap="round" stroke-linejoin="round"/>
<path d="M1.99072 59.5708H12.6716" stroke="#951C3F" stroke-opacity="0.35" stroke-linecap="round" stroke-linejoin="round"/>
<path d="M23.5522 60.7579V64.9112" stroke="#951C3F" stroke-opacity="0.35" stroke-linecap="round" stroke-linejoin="round"/>
<path d="M11.4849 61.1536V65.307" stroke="#951C3F" stroke-opacity="0.35" stroke-linecap="round" stroke-linejoin="round"/>
<path d="M8.51855 66.4941H26.9142" stroke="#951C3F" stroke-opacity="0.35" stroke-linecap="round" stroke-linejoin="round"/>
<path d="M16.6292 67.8808V71.2427" stroke="#951C3F" stroke-opacity="0.35" stroke-linecap="round" stroke-linejoin="round"/>
<path d="M3.57397 67.8808V71.2427" stroke="#951C3F" stroke-opacity="0.35" stroke-linecap="round" stroke-linejoin="round"/>
<path d="M18.0122 72.2303H28.6931" stroke="#951C3F" stroke-opacity="0.35" stroke-linecap="round" stroke-linejoin="round"/>
<path d="M1.99072 72.2303H12.6716" stroke="#951C3F" stroke-opacity="0.35" stroke-linecap="round" stroke-linejoin="round"/>
<path d="M23.5522 73.4174V77.5708" stroke="#951C3F" stroke-opacity="0.35" stroke-linecap="round" stroke-linejoin="round"/>
<path d="M11.4849 73.8131V77.9665" stroke="#951C3F" stroke-opacity="0.35" stroke-linecap="round" stroke-linejoin="round"/>
<path d="M20.4812 27.9609H38.8769" stroke="#951C3F" stroke-opacity="0.35" stroke-linecap="round" stroke-linejoin="round"/>
<path d="M28.5918 29.3442V32.7095" stroke="#951C3F" stroke-opacity="0.35" stroke-linecap="round" stroke-linejoin="round"/>
<path d="M15.5366 29.3442V32.7095" stroke="#951C3F" stroke-opacity="0.35" stroke-linecap="round" stroke-linejoin="round"/>
<path d="M29.9751 33.6971H40.656" stroke="#951C3F" stroke-opacity="0.35" stroke-linecap="round" stroke-linejoin="round"/>
<path d="M13.9539 33.6971H24.6348" stroke="#951C3F" stroke-opacity="0.35" stroke-linecap="round" stroke-linejoin="round"/>
<path d="M35.5149 34.8843V39.0376" stroke="#951C3F" stroke-opacity="0.35" stroke-linecap="round" stroke-linejoin="round"/>
<path d="M23.4475 35.28V39.4333" stroke="#951C3F" stroke-opacity="0.35" stroke-linecap="round" stroke-linejoin="round"/>
<path d="M20.4812 40.6204H38.8769" stroke="#951C3F" stroke-opacity="0.35" stroke-linecap="round" stroke-linejoin="round"/>
<path d="M28.5918 42.0037V45.369" stroke="#951C3F" stroke-opacity="0.35" stroke-linecap="round" stroke-linejoin="round"/>
<path d="M15.5366 42.0037V45.369" stroke="#951C3F" stroke-opacity="0.35" stroke-linecap="round" stroke-linejoin="round"/>
<path d="M29.9751 46.3566H40.656" stroke="#951C3F" stroke-opacity="0.35" stroke-linecap="round" stroke-linejoin="round"/>
<path d="M13.9539 46.3566H24.6348" stroke="#951C3F" stroke-opacity="0.35" stroke-linecap="round" stroke-linejoin="round"/>
<path d="M35.5149 47.5438V51.6971" stroke="#951C3F" stroke-opacity="0.35" stroke-linecap="round" stroke-linejoin="round"/>
<path d="M23.4475 47.9395V52.0928" stroke="#951C3F" stroke-opacity="0.35" stroke-linecap="round" stroke-linejoin="round"/>
<path d="M153.614 53.8853C153.614 53.8853 153.614 51.4704 150.232 48.095C146.849 44.7196 144.682 42.785 144.682 42.785C144.682 42.785 142.99 48.3351 146.129 51.7139C149.268 55.0927 153.61 58.228 153.61 58.228L153.614 53.8853Z" fill="#951C3F"/>
<path d="M148.71 68.9528C148.71 68.9528 148.71 66.538 145.328 63.1626C141.945 59.7871 139.781 57.8525 139.781 57.8525C139.781 57.8525 138.09 63.4027 141.228 66.7815C144.367 70.1603 148.71 73.282 148.71 73.282V68.9528Z" fill="#951C3F"/>
<path d="M153.401 57.9946C153.401 57.9946 153.655 55.5933 157.372 52.5831C161.089 49.573 163.46 47.8887 163.46 47.8887C163.46 47.8887 164.552 53.5876 161.092 56.6147C157.632 59.6417 152.975 62.3001 152.975 62.3001L153.401 57.9946Z" fill="#951C3F"/>
<path d="M147.479 75.7882C147.479 75.7882 147.983 73.4207 151.994 70.8333C156.005 68.2459 158.532 66.8051 158.532 66.8051C158.532 66.8051 159.022 72.5853 155.248 75.2302C151.473 77.875 146.569 80.0464 146.569 80.0464L147.479 75.7882Z" fill="#951C3F"/>
<path d="M148.592 95.1884C148.592 95.1884 148.592 92.777 151.974 89.3982C155.356 86.0194 157.517 84.1051 157.517 84.1051C157.517 84.1051 159.208 89.6552 156.07 93.0306C152.931 96.406 148.592 99.5447 148.592 99.5447V95.1884Z" fill="#951C3F"/>
<path d="M148.534 99.9235C148.534 99.9235 148.872 97.5357 146.014 93.7138C143.156 89.892 141.279 87.6699 141.279 87.6699C141.279 87.6699 138.82 92.9224 141.445 96.7138C144.07 100.505 147.922 104.222 147.922 104.222L148.534 99.9235Z" fill="#951C3F"/>
<path d="M145.206 113.96C145.206 113.96 145.206 111.548 148.588 108.169C151.97 104.79 154.138 102.863 154.138 102.863C154.138 102.863 155.829 108.409 152.691 111.788C149.552 115.167 145.213 118.302 145.213 118.302L145.206 113.96Z" fill="#951C3F"/>
<path d="M147.448 126.683C147.448 126.683 146.84 124.35 149.251 120.227C151.663 116.104 153.276 113.686 153.276 113.686C153.276 113.686 156.32 118.627 154.135 122.689C151.95 126.751 148.551 130.884 148.551 130.884L147.448 126.683Z" fill="#951C3F"/>
<path d="M153.919 53.2664C153.749 55.7822 153.439 58.2866 152.992 60.768C151.659 67.6643 148.321 72.1153 146.985 78.3554C145.649 84.5955 149.478 92.5943 148.463 100.6C147.448 108.606 144.32 113.053 145.213 118.394C146.106 123.734 151.017 139.005 151.017 139.005" stroke="#333333" stroke-linecap="round" stroke-linejoin="round"/>
<path d="M153.367 59.5978L157.006 56.8041" stroke="#333333" stroke-linecap="round" stroke-linejoin="round"/>
<path d="M153.536 56.3813L152.011 53.6722" stroke="#333333" stroke-linecap="round" stroke-linejoin="round"/>
<path d="M147.188 78.0509C147.188 78.0509 150.232 75.7646 153.367 73.4782" stroke="#333333" stroke-linecap="round" stroke-linejoin="round"/>
<path d="M148.71 73.2821C148.71 73.2821 146.17 68.3035 143.298 65.0025" stroke="#333333" stroke-linecap="round" stroke-linejoin="round"/>
<path d="M148.71 98.6214C150.449 95.4153 152.645 92.4784 155.227 89.9021" stroke="#333333" stroke-linecap="round" stroke-linejoin="round"/>
<path d="M148.125 102.007C147.201 99.8307 146.096 97.7355 144.824 95.743C143.045 93.1185 142.794 92.7802 142.794 92.7802" stroke="#333333" stroke-linecap="round" stroke-linejoin="round"/>
<path d="M145.206 118.394C145.978 116.48 146.895 114.628 147.949 112.854C149.005 111.203 150.195 109.642 151.507 108.186" stroke="#333333" stroke-linecap="round" stroke-linejoin="round"/>
<path d="M148.561 130.884C148.561 130.884 148.202 127.996 149.474 125.54C150.746 123.085 152.18 119.868 152.775 118.6" stroke="#333333" stroke-linecap="round" stroke-linejoin="round"/>
<path d="M131.495 86.114C131.495 86.114 131.231 84.6022 132.983 82.1197C134.735 79.6372 135.888 78.1862 135.888 78.1862C135.888 78.1862 137.549 81.4838 135.949 83.9359C134.76 85.6793 133.428 87.3197 131.965 88.8401L131.495 86.114Z" fill="#951C3F"/>
<path d="M136.203 95.0329C136.203 95.0329 135.942 93.5177 137.694 91.0352C139.446 88.5526 140.596 87.1051 140.596 87.1051C140.596 87.1051 142.257 90.3993 140.657 92.8548C139.469 94.5953 138.137 96.2335 136.676 97.7522L136.203 95.0329Z" fill="#951C3F"/>
<path d="M132.073 88.671C132.073 88.671 131.653 87.1929 128.998 85.7149C126.343 84.2369 124.676 83.4286 124.676 83.4286C124.676 83.4286 124.608 87.1185 127.118 88.6405C128.944 89.6941 130.854 90.5924 132.83 91.326L132.073 88.671Z" fill="#951C3F"/>
<path d="M137.718 99.1862C137.718 99.1862 137.146 97.7623 134.336 96.5684C131.525 95.3745 129.797 94.7521 129.797 94.7521C129.797 94.7521 130.118 98.432 132.773 99.68C134.7 100.534 136.694 101.227 138.736 101.75L137.718 99.1862Z" fill="#951C3F"/>
<path d="M139.128 111.474C139.128 111.474 138.864 109.958 136.378 108.206C133.893 106.455 132.32 105.484 132.32 105.484C132.32 105.484 131.863 109.147 134.197 110.922C135.906 112.163 137.716 113.259 139.608 114.196L139.128 111.474Z" fill="#951C3F"/>
<path d="M139.669 114.436C139.669 114.436 139.196 112.975 140.576 110.266C141.956 107.557 142.893 105.964 142.893 105.964C142.893 105.964 145.003 108.991 143.769 111.653C142.839 113.544 141.753 115.354 140.522 117.064L139.669 114.436Z" fill="#951C3F"/>
<path d="M143.914 126.639C143.914 126.639 144.09 125.114 146.471 123.223C148.852 121.333 150.364 120.271 150.364 120.271C150.364 120.271 151.04 123.903 148.801 125.811C147.17 127.145 145.43 128.341 143.599 129.386L143.914 126.639Z" fill="#951C3F"/>
<path d="M143.288 122.875C143.288 122.875 143.028 121.363 140.542 119.611C138.056 117.859 136.483 116.885 136.483 116.885C136.483 116.885 136.027 120.548 138.36 122.327C140.065 123.565 141.869 124.659 143.755 125.598L143.288 122.875Z" fill="#951C3F"/>
<path d="M143.254 131.117C143.254 131.117 143.386 129.585 141.424 127.262C139.463 124.938 138.191 123.599 138.191 123.599C138.191 123.599 136.821 127.025 138.627 129.348C139.965 130.979 141.435 132.495 143.024 133.881L143.254 131.117Z" fill="#951C3F"/>
<path d="M131.234 85.7623C131.616 87.3182 132.081 88.8525 132.628 90.3587C134.214 94.539 136.791 96.9674 138.303 100.732C139.815 104.496 138.303 109.941 139.798 114.849C141.293 119.757 143.748 122.209 143.768 125.672C143.789 129.135 142.416 138.697 142.416 138.697" stroke="#333333" stroke-linecap="round" stroke-linejoin="round"/>
<path d="M132.269 89.6721L129.682 88.3158" stroke="#333333" stroke-linecap="round" stroke-linejoin="round"/>
<path d="M131.812 87.6731L132.475 85.8095" stroke="#333333" stroke-linecap="round" stroke-linejoin="round"/>
<path d="M138.147 100.573C138.147 100.573 135.986 99.4703 133.774 98.3779" stroke="#333333" stroke-linecap="round" stroke-linejoin="round"/>
<path d="M136.676 97.7555C136.676 97.7555 137.728 94.3564 139.172 91.9753" stroke="#333333" stroke-linecap="round" stroke-linejoin="round"/>
<path d="M139.426 113.638C137.986 111.816 136.29 110.212 134.39 108.876" stroke="#333333" stroke-linecap="round" stroke-linejoin="round"/>
<path d="M140.163 115.698C140.507 114.233 140.972 112.798 141.553 111.409C142.385 109.573 142.507 109.333 142.507 109.333" stroke="#333333" stroke-linecap="round" stroke-linejoin="round"/>
<path d="M143.654 128.27C143.654 128.27 145.365 126.169 146.434 125.381C147.077 124.907 147.681 124.383 148.24 123.812" stroke="#333333" stroke-linecap="round" stroke-linejoin="round"/>
<path d="M143.768 125.655C143.077 124.536 142.3 123.472 141.445 122.472C140.605 121.554 139.691 120.707 138.712 119.939" stroke="#333333" stroke-linecap="round" stroke-linejoin="round"/>
<path d="M143.021 133.853C142.934 132.685 142.535 131.562 141.868 130.6C140.806 129.2 139.554 127.339 139.043 126.605" stroke="#333333" stroke-linecap="round" stroke-linejoin="round"/>
<path d="M43.9976 44.1547H46.7405C55.1724 44.1547 63.2589 47.5043 69.2212 53.4665C75.1834 59.4288 78.533 67.5153 78.533 75.9472V112.137H12.2051V75.9472C12.2051 67.5153 15.5546 59.4288 21.5169 53.4665C27.4791 47.5043 35.5657 44.1547 43.9976 44.1547Z" fill="#333333"/>
<path d="M76.5478 95.3035C75.797 93.2539 75.1036 91.3023 74.9345 90.2539C74.703 88.7635 74.0771 87.3622 73.1217 86.1953C73.2301 87.2938 73.1616 88.4026 72.9187 89.4794C72.5162 91.4106 69.6955 91.025 69.6955 91.025C70.701 89.4107 71.1269 87.5021 70.9029 85.6135C70.5005 82.5222 68.0822 82.1333 68.0822 80.5876C68.0822 79.042 70.2975 79.4309 70.2975 79.4309C70.2975 79.4309 69.8951 78.6564 68.0822 78.2708C66.2694 77.8852 64.859 78.2708 65.0585 81.3621C65.2581 84.4534 63.6482 87.149 63.6482 87.149C63.6482 87.149 61.2299 84.8322 61.2299 83.8649C61.2299 82.8976 61.8353 80.9698 61.2299 78.4535C60.6245 75.9371 59.6166 74.7838 59.6166 74.7838V77.1006C59.6166 78.6462 58.4092 79.8063 56.9988 80.9664C55.5884 82.1265 55.7914 85.4241 55.7914 85.4241C55.7914 85.4241 53.9785 82.7184 54.1781 80.5944C54.3776 78.4704 57.2017 76.3464 56.7993 72.8661C56.3968 69.3858 52.9706 64.3667 51.7598 62.821C50.549 61.2754 49.7305 55.2855 49.7305 55.2855C49.7305 55.2855 47.9177 60.3081 48.5231 62.2393C49.1285 64.1705 50.5524 66.2979 49.1285 68.6181C47.7046 70.9383 44.4915 73.255 42.6787 75.5718C40.8658 77.8886 43.2773 84.4602 43.2773 84.4602C43.2773 84.4602 40.8591 79.8232 40.0541 79.2415C39.2491 78.6598 36.2255 77.5031 35.2176 76.1502C34.2097 74.7973 36.425 71.9022 36.425 71.9022C36.425 71.9022 33.8072 73.0589 32.5964 74.8007C31.3856 76.5425 31.389 79.8232 31.7914 81.5651C32.1939 83.3069 32.3968 84.8492 32.3968 84.8492C32.2637 84.3705 32.0597 83.9145 31.7914 83.4963C31.389 82.9179 28.9707 81.1795 28.9707 81.1795C28.9707 81.1795 29.5727 84.2708 28.3653 85.8165C27.6866 86.6662 27.0802 87.5713 26.5524 88.5222C26.5524 88.5222 26.3495 86.591 25.3416 85.2381C24.3337 83.8852 22.5209 83.3069 22.5209 83.3069C22.5209 83.3069 23.1263 85.8198 22.5209 87.5583C21.9155 89.2967 20.4916 89.2967 18.2864 91.4207C16.0812 93.5447 16.8963 95.6654 16.8963 95.6654L16.6968 95.8209V105.325H76.5613L76.5478 95.3035Z" fill="#951C3F"/>
<path d="M46.5174 39.2505C25.0338 39.2505 7.62231 55.9449 7.62231 76.539V114.791H85.4124V76.539C85.4158 55.9449 68.001 39.2505 46.5174 39.2505ZM75.5398 105.325H17.4949V77.5029C17.4949 62.1377 30.4892 49.6811 46.5174 49.6811C62.5455 49.6811 75.5398 62.1377 75.5398 77.5029V105.325Z" fill="#CCCCCC" stroke="#333333" stroke-linecap="round" stroke-linejoin="round"/>
<path d="M17.4949 77.503C17.4919 73.2872 18.4851 69.1303 20.3934 65.3711L12.3878 58.6406C9.25966 64.0868 7.61528 70.2584 7.6189 76.5391V86.9697H17.4949V77.503Z" fill="#9C9C9C" stroke="#333333" stroke-linecap="round" stroke-linejoin="round"/>
<path d="M48.533 49.7556C58.5205 50.4151 67.1146 55.9111 71.7854 63.8254L79.3345 56.5132C72.7663 46.644 61.4867 39.9405 48.533 39.2979V49.7556Z" fill="#9C9C9C" stroke="#333333" stroke-linecap="round" stroke-linejoin="round"/>
<path d="M85.4158 86.9696V76.539C85.4223 69.822 83.5477 63.2375 80.0043 57.5311L72.3843 64.8941C74.4561 68.774 75.5399 73.1046 75.5398 77.5029V86.973L85.4158 86.9696Z" fill="#9C9C9C" stroke="#333333" stroke-linecap="round" stroke-linejoin="round"/>
<path d="M75.5398 88.1297V105.325H17.4949V88.1297H7.6189V114.791H85.4158V88.1297H75.5398Z" fill="#9C9C9C" stroke="#333333" stroke-linecap="round" stroke-linejoin="round"/>
<path d="M20.9548 64.3057C25.8556 55.6 35.4609 49.6811 46.5071 49.6811C46.7777 49.6811 47.0449 49.6811 47.3121 49.7014V39.2606C47.0449 39.2606 46.7777 39.2606 46.5071 39.2606C32.231 39.2606 19.7541 46.6338 12.9897 57.6225L20.9548 64.3057Z" fill="#9C9C9C" stroke="#333333" stroke-linecap="round" stroke-linejoin="round"/>
<path d="M32.3359 104.746H8.7181C8.11103 104.746 7.6189 105.239 7.6189 105.846V113.692C7.6189 114.299 8.11103 114.791 8.7181 114.791H32.3359C32.9429 114.791 33.4351 114.299 33.4351 113.692V105.846C33.4351 105.239 32.9429 104.746 32.3359 104.746Z" fill="#CCCCCC" stroke="#333333" stroke-linecap="round" stroke-linejoin="round"/>
<path d="M58.3246 104.746H34.7069C34.0998 104.746 33.6077 105.239 33.6077 105.846V113.692C33.6077 114.299 34.0998 114.791 34.7069 114.791H58.3246C58.9317 114.791 59.4238 114.299 59.4238 113.692V105.846C59.4238 105.239 58.9317 104.746 58.3246 104.746Z" fill="#CCCCCC" stroke="#333333" stroke-linecap="round" stroke-linejoin="round"/>
<path d="M84.3131 104.746H60.6954C60.0883 104.746 59.5962 105.239 59.5962 105.846V113.692C59.5962 114.299 60.0883 114.791 60.6954 114.791H84.3131C84.9202 114.791 85.4124 114.299 85.4124 113.692V105.846C85.4124 105.239 84.9202 104.746 84.3131 104.746Z" fill="#CCCCCC" stroke="#333333" stroke-linecap="round" stroke-linejoin="round"/>
<path d="M65.9985 77.557C65.9985 77.557 61.9027 63.6901 60.188 59.2019C58.4732 54.7138 58.9974 49.8265 59.1293 49.0351C59.2612 48.2437 60.9794 44.1478 60.7156 43.2245C60.4518 42.3012 58.4698 37.9415 58.0741 35.9596C57.6784 33.9776 56.8869 34.2414 56.4912 35.9596C56.0955 37.6777 56.8869 40.1873 57.0189 40.583C57.1069 40.9278 57.1512 41.2824 57.1508 41.6383C57.1508 41.6383 52.2635 37.1467 51.9997 36.6191C51.7359 36.0915 51.3402 35.0362 51.3402 35.0362C51.3402 35.0362 52.2635 30.4128 51.3402 30.6766C50.4168 30.9404 48.5668 38.3373 48.4349 41.1106C48.303 43.884 53.9817 51.1456 53.9817 51.1456C53.9817 51.1456 53.0549 63.1624 53.8497 72.1455C54.6446 81.1286 56.0921 84.9538 58.0741 87.5953C60.056 90.2368 62.0346 90.3687 63.0932 89.9628C64.1519 89.557 66.79 87.9809 66.79 87.9809L65.9985 77.557Z" fill="#FCCFBA" stroke="#333333" stroke-linecap="round" stroke-linejoin="round"/>
<path d="M48.0393 41.6383C48.0393 41.6383 49.4903 33.7138 50.2817 32.6586C51.0731 31.6034 51.8679 33.335 51.4722 34.5087C51.0765 35.6823 50.5489 41.3745 50.5489 41.3745" fill="#FCCFBA"/>
<path d="M48.0393 41.6383C48.0393 41.6383 49.4903 33.7138 50.2817 32.6586C51.0731 31.6034 51.8679 33.335 51.4722 34.5087C51.0765 35.6823 50.5489 41.3745 50.5489 41.3745" stroke="#333333" stroke-linecap="round" stroke-linejoin="round"/>
<path d="M49.2263 37.9416C49.2263 37.9416 51.0764 33.1863 52.1316 33.3182C53.1868 33.4501 52.5273 35.9597 51.9997 37.1468C51.4721 38.334 50.9445 40.8469 50.9445 40.8469L51.6209 42.8255" fill="#FCCFBA"/>
<path d="M49.2263 37.9416C49.2263 37.9416 51.0764 33.1863 52.1316 33.3182C53.1868 33.4501 52.5273 35.9597 51.9997 37.1468C51.4721 38.334 50.9445 40.8469 50.9445 40.8469L51.6209 42.8255" stroke="#333333" stroke-linecap="round" stroke-linejoin="round"/>
<path d="M55.9602 50.6214C55.9606 49.472 55.8724 48.3243 55.6964 47.1884C55.4326 45.866 50.5488 41.3779 50.5488 41.3779C50.5488 41.3779 51.9997 36.6225 51.3402 35.0396C50.6807 33.4568 48.0392 41.6417 48.0392 41.6417C47.9051 42.4693 48.094 43.3168 48.5668 44.0092C49.3582 45.0644 53.9783 51.1388 53.9783 51.1388" fill="#FCCFBA"/>
<path d="M55.9602 50.6214C55.9606 49.472 55.8724 48.3243 55.6964 47.1884C55.4326 45.866 50.5488 41.3779 50.5488 41.3779C50.5488 41.3779 51.9997 36.6225 51.3402 35.0396C50.6807 33.4568 48.0392 41.6417 48.0392 41.6417C47.9051 42.4693 48.094 43.3168 48.5668 44.0092C49.3582 45.0644 53.9783 51.1388 53.9783 51.1388" stroke="#333333" stroke-linecap="round" stroke-linejoin="round"/>
<path d="M98.2205 74.388C98.2205 74.388 86.5993 68.8412 85.145 69.6529C83.6906 70.4646 79.2025 74.273 79.2025 74.273L65.5994 76.8975L65.8632 89.8411L79.331 90.2369L80.1258 91.2921L80.3896 92.0835C80.3896 92.0835 78.2758 110.31 78.2758 117.967C78.2758 125.625 75.0187 138.967 75.0187 138.967H116.958C116.958 138.967 130.426 92.8783 129.37 91.424C128.315 89.9697 110.092 78.8795 110.092 78.8795L98.2205 74.388Z" fill="#333333" stroke="#333333" stroke-linecap="round" stroke-linejoin="round"/>
<path d="M81.8035 125.76C86.4945 128.584 96.8339 132.724 116.64 132.166" stroke="#951C3F" stroke-opacity="0.35" stroke-linecap="round" stroke-linejoin="round"/>
<path d="M78.5229 123.264C79.01 123.778 79.5483 124.242 80.1295 124.647" stroke="#951C3F" stroke-opacity="0.35" stroke-linecap="round" stroke-linejoin="round"/>
<path d="M84.7361 131.662C84.7361 131.662 90.9661 135.852 105.06 135.852" stroke="#951C3F" stroke-opacity="0.35" stroke-linecap="round" stroke-linejoin="round"/>
<path d="M80.4337 80.6044L79.3379 90.2369L80.3931 92.0869L80.4337 80.6044Z" fill="#333333" stroke="#333333" stroke-linecap="round" stroke-linejoin="round"/>
<path d="M100.307 125.553C100.263 126.024 100.226 126.49 100.189 126.96" stroke="#951C3F" stroke-opacity="0.35" stroke-linecap="round" stroke-linejoin="round"/>
<path d="M99.4214 82.84L108.269 87.3316C108.269 87.3316 102.465 105.978 100.524 123.419" stroke="#951C3F" stroke-opacity="0.35" stroke-linecap="round" stroke-linejoin="round"/>
<path d="M99.5398 85.5491C99.5398 85.6931 99.497 85.8338 99.417 85.9535C99.3369 86.0731 99.2232 86.1663 99.0901 86.2213C98.957 86.2762 98.8107 86.2904 98.6695 86.2621C98.5284 86.2337 98.3988 86.1641 98.2972 86.0621C98.1957 85.9601 98.1267 85.8302 98.099 85.6889C98.0713 85.5476 98.0862 85.4013 98.1418 85.2685C98.1973 85.1357 98.2911 85.0224 98.4111 84.9429C98.5311 84.8634 98.672 84.8213 98.816 84.822C98.9113 84.822 99.0057 84.8408 99.0938 84.8774C99.1818 84.914 99.2617 84.9676 99.329 85.0351C99.3962 85.1027 99.4495 85.1829 99.4857 85.2711C99.5218 85.3593 99.5402 85.4538 99.5398 85.5491V85.5491Z" stroke="#951C3F" stroke-opacity="0.35" stroke-linecap="round" stroke-linejoin="round"/>
<path d="M106.209 88.7824C106.21 88.9265 106.168 89.0676 106.088 89.1877C106.009 89.3078 105.895 89.4015 105.762 89.457C105.629 89.5124 105.483 89.5271 105.341 89.4992C105.2 89.4712 105.07 89.4019 104.968 89.3C104.866 89.1981 104.797 89.0682 104.769 88.9269C104.741 88.7855 104.756 88.639 104.811 88.506C104.867 88.373 104.96 88.2594 105.08 88.1798C105.201 88.1001 105.342 88.058 105.486 88.0587C105.678 88.0587 105.862 88.1349 105.997 88.2707C106.133 88.4064 106.209 88.5905 106.209 88.7824V88.7824Z" stroke="#951C3F" stroke-opacity="0.35" stroke-linecap="round" stroke-linejoin="round"/>
<path d="M96.7698 93.1421C96.7698 93.2859 96.7271 93.4265 96.6472 93.5461C96.5673 93.6657 96.4537 93.7589 96.3209 93.8139C96.188 93.8689 96.0418 93.8833 95.9007 93.8553C95.7597 93.8272 95.6301 93.758 95.5284 93.6563C95.4267 93.5546 95.3575 93.425 95.3294 93.284C95.3013 93.1429 95.3157 92.9967 95.3708 92.8638C95.4258 92.7309 95.519 92.6174 95.6386 92.5375C95.7582 92.4576 95.8988 92.4149 96.0426 92.4149C96.2352 92.4158 96.4196 92.4927 96.5558 92.6289C96.692 92.7651 96.7689 92.9495 96.7698 93.1421V93.1421Z" stroke="#951C3F" stroke-opacity="0.35" stroke-linecap="round" stroke-linejoin="round"/>
<path d="M103.436 96.3755C103.436 96.5196 103.394 96.6607 103.315 96.7808C103.235 96.9009 103.121 96.9946 102.988 97.0501C102.855 97.1055 102.709 97.1202 102.568 97.0922C102.426 97.0643 102.296 96.995 102.194 96.8931C102.093 96.7912 102.023 96.6613 101.995 96.5199C101.967 96.3785 101.982 96.2321 102.037 96.0991C102.093 95.966 102.187 95.8525 102.307 95.7729C102.427 95.6932 102.568 95.6511 102.712 95.6517C102.904 95.6517 103.088 95.728 103.224 95.8637C103.36 95.9994 103.436 96.1835 103.436 96.3755Z" stroke="#951C3F" stroke-opacity="0.35" stroke-linecap="round" stroke-linejoin="round"/>
<path d="M94.7202 100.867C94.7202 101.011 94.6775 101.152 94.5974 101.271C94.5174 101.391 94.4036 101.484 94.2705 101.539C94.1375 101.594 93.9911 101.608 93.8499 101.58C93.7088 101.552 93.5792 101.482 93.4777 101.38C93.3761 101.278 93.3071 101.148 93.2794 101.007C93.2518 100.865 93.2666 100.719 93.3222 100.586C93.3778 100.454 93.4715 100.34 93.5915 100.261C93.7115 100.181 93.8525 100.139 93.9964 100.14C94.0918 100.14 94.1861 100.159 94.2742 100.195C94.3622 100.232 94.4422 100.285 94.5094 100.353C94.5767 100.421 94.6299 100.501 94.6661 100.589C94.7023 100.677 94.7207 100.772 94.7202 100.867Z" stroke="#951C3F" stroke-opacity="0.35" stroke-linecap="round" stroke-linejoin="round"/>
<path d="M101.39 104.104C101.39 104.248 101.347 104.388 101.267 104.508C101.187 104.627 101.074 104.721 100.941 104.776C100.808 104.831 100.662 104.845 100.521 104.817C100.38 104.789 100.25 104.72 100.148 104.618C100.047 104.516 99.9773 104.387 99.9493 104.246C99.9212 104.105 99.9356 103.958 99.9907 103.825C100.046 103.693 100.139 103.579 100.258 103.499C100.378 103.419 100.519 103.377 100.662 103.377C100.758 103.376 100.853 103.395 100.941 103.431C101.03 103.467 101.11 103.521 101.178 103.589C101.245 103.656 101.299 103.737 101.335 103.825C101.372 103.913 101.39 104.008 101.39 104.104V104.104Z" stroke="#951C3F" stroke-opacity="0.35" stroke-linecap="round" stroke-linejoin="round"/>
<path d="M93.269 108.528C93.269 108.671 93.2264 108.812 93.1465 108.932C93.0666 109.051 92.953 109.144 92.8201 109.199C92.6873 109.254 92.5411 109.269 92.4 109.241C92.259 109.213 92.1294 109.144 92.0277 109.042C91.926 108.94 91.8567 108.811 91.8287 108.669C91.8006 108.528 91.815 108.382 91.87 108.249C91.9251 108.116 92.0183 108.003 92.1379 107.923C92.2575 107.843 92.3981 107.8 92.5419 107.8C92.6375 107.8 92.7323 107.819 92.8207 107.855C92.9091 107.891 92.9894 107.945 93.0571 108.012C93.1247 108.08 93.1782 108.16 93.2146 108.249C93.251 108.337 93.2695 108.432 93.269 108.528V108.528Z" stroke="#951C3F" stroke-opacity="0.35" stroke-linecap="round" stroke-linejoin="round"/>
<path d="M99.9387 111.761C99.9394 111.905 99.8973 112.046 99.8178 112.166C99.7383 112.286 99.625 112.38 99.4922 112.435C99.3593 112.491 99.213 112.506 99.0718 112.478C98.9305 112.45 98.8006 112.381 98.6986 112.28C98.5965 112.178 98.5269 112.049 98.4986 111.907C98.4703 111.766 98.4845 111.62 98.5394 111.487C98.5943 111.354 98.6875 111.24 98.8072 111.16C98.9268 111.08 99.0676 111.037 99.2115 111.037C99.4038 111.037 99.5883 111.113 99.7245 111.249C99.8608 111.385 99.9378 111.569 99.9387 111.761V111.761Z" stroke="#951C3F" stroke-opacity="0.35" stroke-linecap="round" stroke-linejoin="round"/>
<path d="M91.9468 116.716C91.9468 116.86 91.904 117.001 91.824 117.12C91.7439 117.24 91.6302 117.333 91.4971 117.388C91.364 117.443 91.2176 117.457 91.0765 117.429C90.9353 117.401 90.8058 117.331 90.7042 117.229C90.6027 117.127 90.5337 116.997 90.506 116.856C90.4783 116.714 90.4932 116.568 90.5488 116.435C90.6043 116.303 90.698 116.189 90.8181 116.11C90.9381 116.03 91.079 115.988 91.223 115.989C91.3183 115.989 91.4127 116.008 91.5007 116.044C91.5888 116.081 91.6687 116.134 91.736 116.202C91.8032 116.27 91.8565 116.35 91.8926 116.438C91.9288 116.526 91.9472 116.621 91.9468 116.716V116.716Z" stroke="#951C3F" stroke-opacity="0.35" stroke-linecap="round" stroke-linejoin="round"/>
<path d="M98.6164 119.956C98.6164 120.1 98.5738 120.24 98.4939 120.36C98.414 120.48 98.3004 120.573 98.1676 120.628C98.0347 120.683 97.8885 120.697 97.7474 120.669C97.6064 120.641 97.4768 120.572 97.3751 120.47C97.2734 120.369 97.2041 120.239 97.1761 120.098C97.148 119.957 97.1624 119.811 97.2175 119.678C97.2725 119.545 97.3657 119.431 97.4853 119.351C97.6049 119.271 97.7455 119.229 97.8893 119.229C98.0821 119.229 98.2671 119.305 98.4035 119.442C98.5398 119.578 98.6164 119.763 98.6164 119.956V119.956Z" stroke="#951C3F" stroke-opacity="0.35" stroke-linecap="round" stroke-linejoin="round"/>
<path d="M82.7574 81.2402L80.3933 92.0869L80.5252 77.6923" stroke="#951C3F" stroke-opacity="0.35" stroke-linecap="round" stroke-linejoin="round"/>
<path d="M83.5622 77.5571L83.2375 79.052" stroke="#951C3F" stroke-opacity="0.35" stroke-linecap="round" stroke-linejoin="round"/>
<path d="M98.8799 70.5762C98.8799 70.5762 97.8247 74.9359 97.8247 76.6642C97.8247 78.3925 98.3523 82.4748 99.4076 82.8705C100.463 83.2662 104.559 83.0024 107.992 81.5514C111.424 80.1005 114.861 73.3632 114.861 73.3632L99.8067 67.8164L98.8799 70.5762Z" fill="white" stroke="#333333" stroke-linecap="round" stroke-linejoin="round"/>
<path d="M100.203 72.1456L100.071 81.2572L106.409 76.8976L100.203 72.1456Z" fill="#FCCFBA" stroke="#333333" stroke-linecap="round" stroke-linejoin="round"/>
<path d="M103.504 52.0723C103.504 52.0723 98.7482 62.8952 98.3525 66.3349C97.9568 69.7746 98.8802 74.7904 99.9388 75.8422C100.997 76.8941 104.427 78.088 105.35 78.088C106.274 78.088 113.129 75.5784 114.333 74.7836C115.537 73.9888 122.386 61.9753 122.386 61.9753L103.504 52.0723Z" fill="#FCCFBA" stroke="#333333" stroke-linecap="round" stroke-linejoin="round"/>
<path d="M107.596 56.2966L107.068 58.4003L103.108 65.2662C103.108 65.2662 103.372 67.2481 104.559 66.8524C105.746 66.4567 106.805 68.3034 107.464 67.2481C108.124 66.1929 107.992 65.6619 107.992 65.6619" stroke="#333333" stroke-linecap="round" stroke-linejoin="round"/>
<path d="M103.767 66.8558L102.58 68.4387C102.58 68.4387 106.541 70.6844 107.992 70.6844C109.443 70.6844 110.765 69.4973 110.765 69.4973" stroke="#333333" stroke-linecap="round" stroke-linejoin="round"/>
<path d="M111.979 60.9674C111.58 61.6202 110.965 61.9821 110.627 61.7724C110.288 61.5627 110.332 60.8626 110.731 60.2098C111.13 59.5571 111.746 59.1952 112.084 59.4083C112.422 59.6213 112.382 60.3147 111.979 60.9674Z" fill="#333333"/>
<path d="M105.408 57.247C105.12 57.9573 104.586 58.4105 104.214 58.2617C103.842 58.1129 103.771 57.4161 104.058 56.7059C104.346 55.9956 104.88 55.5424 105.252 55.6912C105.624 55.84 105.692 56.5368 105.408 57.247Z" fill="#333333"/>
<path d="M109.842 61.8434C109.842 61.8434 111.56 63.5616 113.143 63.6935" stroke="#333333" stroke-linecap="round" stroke-linejoin="round"/>
<path d="M105.617 59.2019C105.617 59.2019 103.372 59.3338 102.313 58.1466" stroke="#333333" stroke-linecap="round" stroke-linejoin="round"/>
<path d="M118.108 59.7295C117.547 60.2876 116.806 61.1703 116.975 61.8434C117.239 62.8986 117.371 63.8253 117.371 63.8253L114.729 67.9178L116.18 68.4454L119.613 64.6168L120.516 65.2019C121.602 63.3518 122.386 61.9753 122.386 61.9753L118.108 59.7295Z" fill="#333333" stroke="#333333" stroke-linecap="round" stroke-linejoin="round"/>
<path d="M116.576 67.9178C116.576 67.9178 118.558 63.9572 120.408 63.9572C122.258 63.9572 121.727 66.7306 120.804 68.5773C119.88 70.424 116.708 71.6212 116.312 70.6911" fill="#FCCFBA"/>
<path d="M116.576 67.9178C116.576 67.9178 118.558 63.9572 120.408 63.9572C122.258 63.9572 121.727 66.7306 120.804 68.5773C119.88 70.424 116.708 71.6212 116.312 70.6911" stroke="#333333" stroke-linecap="round" stroke-linejoin="round"/>
<path d="M102.976 52.6L122.082 64.2008C122.082 64.2008 132.293 50.4861 133.744 47.5774C135.195 44.6687 130.443 39.3892 127.933 36.6158C125.424 33.8424 117.11 33.4467 114.993 35.1648C112.876 36.883 103.768 49.6947 102.976 52.6Z" fill="#333333" stroke="#333333" stroke-linecap="round" stroke-linejoin="round"/>
<path d="M103.635 54.9776C103.635 54.9776 105.35 53.1276 107.068 54.9776" stroke="#333333" stroke-width="3" stroke-linecap="round" stroke-linejoin="round"/>
<path d="M110.633 57.6192C110.633 57.6192 113.143 57.6192 114.07 60.3925" stroke="#333333" stroke-width="3" stroke-linecap="round" stroke-linejoin="round"/>
<path d="M115.656 101.858L123.496 122.442C123.496 122.442 125.863 122.574 129.584 122.442C133.304 122.31 137.505 120.724 137.505 120.724C137.505 120.724 130.997 100.563 131.129 99.1083C131.261 97.6539 130.984 93.5378 130.324 92.0835C129.665 90.6292 125.704 88.3868 125.041 88.7825" fill="#333333"/>
<path d="M115.656 101.858L123.496 122.442C123.496 122.442 125.863 122.574 129.584 122.442C133.304 122.31 137.505 120.724 137.505 120.724C137.505 120.724 130.997 100.563 131.129 99.1083C131.261 97.6539 130.984 93.5378 130.324 92.0835C129.665 90.6292 125.704 88.3868 125.041 88.7825" stroke="#333333" stroke-linecap="round" stroke-linejoin="round"/>
<path d="M122.119 116.75L118.115 102.2" stroke="#951C3F" stroke-opacity="0.35" stroke-linecap="round" stroke-linejoin="round"/>
<path d="M116.748 105.132L115.795 103.674" stroke="#951C3F" stroke-opacity="0.35" stroke-linecap="round" stroke-linejoin="round"/>
<path d="M120.222 110.425L117.577 106.393" stroke="#951C3F" stroke-opacity="0.35" stroke-linecap="round" stroke-linejoin="round"/>
<path d="M123.628 124.015C123.628 124.015 107.055 131.956 106.409 132.22C105.763 132.484 100.598 132.619 99.6749 132.619C98.7516 132.619 95.5791 138.957 95.5791 138.957H105.35L106.277 137.635C106.277 137.635 107.728 138.03 108.644 137.371C109.561 136.711 111.012 135.524 111.012 135.524C111.012 135.524 135.553 133.661 136.551 126.788C136.919 124.255 136.608 122.855 136.608 122.855L123.628 124.015Z" fill="#FCCFBA" stroke="#333333" stroke-linecap="round" stroke-linejoin="round"/>
<path d="M100.213 134.716C100.213 134.716 97.71 138.098 97.71 138.856" stroke="#333333" stroke-linecap="round" stroke-linejoin="round"/>
<path d="M102.499 135.588C102.499 135.588 100.649 137.983 100.321 138.971" stroke="#333333" stroke-linecap="round" stroke-linejoin="round"/>
<path d="M104.353 136.461L102.827 138.964" stroke="#333333" stroke-linecap="round" stroke-linejoin="round"/>
<path d="M121.916 119.131C122.065 120.254 122.234 122.851 122.305 124.005C122.318 124.162 122.385 124.31 122.495 124.423C122.604 124.536 122.75 124.607 122.907 124.623C124.466 124.762 128.86 125.121 131.755 125.121C133.973 125.061 136.176 124.734 138.316 124.147C138.569 124.08 138.79 123.929 138.944 123.718C139.098 123.508 139.175 123.25 139.162 122.99L138.925 117.944C138.938 117.715 138.903 117.487 138.82 117.273C138.738 117.06 138.61 116.866 138.447 116.706C138.284 116.546 138.088 116.423 137.873 116.344C137.658 116.266 137.428 116.235 137.2 116.253L123.381 117.308C123.162 117.325 122.949 117.386 122.756 117.488C122.562 117.59 122.391 117.731 122.254 117.902C122.116 118.073 122.016 118.27 121.958 118.482C121.9 118.693 121.886 118.914 121.916 119.131Z" fill="white" stroke="#333333" stroke-linecap="round" stroke-linejoin="round"/>
<path d="M65.0755 76.106C65.0755 76.106 64.1488 90.8963 64.9436 91.5558C65.7384 92.2153 72.2051 92.4825 72.6009 91.292C72.9966 90.1015 73.7914 75.1827 72.4689 74.7836C71.1465 74.3845 65.0755 76.106 65.0755 76.106Z" fill="white" stroke="#333333" stroke-linecap="round" stroke-linejoin="round"/>
<path d="M55.9064 21.3588C55.9064 21.3588 48.2187 20.1209 39.557 14.865C28.3315 8.07018 17.9888 3.04764 13.964 8.5031C9.93922 13.9586 24.8715 20.449 44.478 22.3971C49.3957 22.8875 55.9064 21.3588 55.9064 21.3588Z" fill="white" stroke="#333333" stroke-linecap="round" stroke-linejoin="round"/>
<path d="M47.8564 22.2651C47.8564 22.2651 57.2048 20.9664 66.0323 15.3824C74.8598 9.79843 86.2915 1.4918 87.1979 8.50306C88.1044 15.5143 73.4359 20.4489 64.3446 22.0047C58.8951 22.9445 53.3328 23.0323 47.8564 22.2651Z" fill="#FCCFBA" stroke="#333333" stroke-linecap="round" stroke-linejoin="round"/>
<path d="M1 138.967H161.653" stroke="#333333" stroke-linecap="round" stroke-linejoin="round"/>
<path d="M54.4824 142.617H36.107L29.9785 132.125H60.6075L54.4824 142.617Z" fill="#FCCFBA" stroke="#333333" stroke-linecap="round" stroke-linejoin="round"/>
<path d="M61.0237 130.458H29.0519C28.5775 130.458 28.1929 130.842 28.1929 131.317V132.22C28.1929 132.694 28.5775 133.079 29.0519 133.079H61.0237C61.4981 133.079 61.8827 132.694 61.8827 132.22V131.317C61.8827 130.842 61.4981 130.458 61.0237 130.458Z" fill="#FCCFBA" stroke="#333333" stroke-linecap="round" stroke-linejoin="round"/>
<path d="M7.79836 126.166C7.79836 126.166 6.56049 124.59 5.20762 123.913C3.85474 123.237 1.04077 122.662 1.04077 122.662C1.04077 122.662 3.51991 122.1 5.4376 122.55C7.3553 123 8.70479 124.918 8.70479 124.918C8.70479 124.918 8.13996 124.13 7.35192 121.766C6.56387 119.401 6.56387 114.325 6.56387 114.325C7.76849 115.729 8.72161 117.331 9.38122 119.06C9.92477 120.634 10.3011 122.261 10.5041 123.913C10.5041 123.913 10.2775 119.973 10.9539 117.721C11.6304 115.468 13.5447 112.647 13.5447 112.647C13.5447 112.647 13.6563 117.606 12.8682 120.308C12.0802 123.01 11.742 124.248 11.742 124.248C12.2363 122.843 13.0462 121.571 14.1095 120.528C15.8006 118.952 19.8592 117.602 19.8592 117.602C19.8592 117.602 17.9449 121.093 16.7036 122.219C15.4624 123.345 14.2279 124.586 14.2279 124.586C14.2279 124.586 15.5808 123.572 17.9483 123.572C20.3158 123.572 23.1264 125.148 23.1264 125.148C23.1264 125.148 14.9043 125.033 13.3181 126.386L7.79836 126.166Z" fill="#951C3F" stroke="#333333" stroke-linecap="round" stroke-linejoin="round"/>
<path d="M9.33026 125.564L7.94019 124.603" stroke="#333333" stroke-linecap="round" stroke-linejoin="round"/>
<path d="M10.822 126.311L8.90088 121.187" stroke="#333333" stroke-linecap="round" stroke-linejoin="round"/>
<path d="M10.6089 126.954L11.8907 119.479" stroke="#333333" stroke-linecap="round" stroke-linejoin="round"/>
<path d="M10.8218 126.311L14.4542 121.83" stroke="#333333" stroke-linecap="round" stroke-linejoin="round"/>
<path d="M10.1118 125.855L15.4151 124.498" stroke="#333333" stroke-linecap="round" stroke-linejoin="round"/>
<path d="M17.2343 143.773H5.98856L5.48124 139.688C5.11095 136.707 5.09392 133.693 5.4305 130.708L5.98856 125.706H17.2343L17.789 130.59C18.1356 133.574 18.1277 136.59 17.7653 139.573L17.2343 143.773Z" fill="#333333"/>
<path d="M17.9955 136.103L16.3078 125.855L14.0553 143.537L10.1116 125.855L7.7475 143.76L5.98877 125.719" fill="#333333"/>
<path d="M17.9955 136.103L16.3078 125.855L14.0553 143.537L10.1116 125.855L7.7475 143.76L5.98877 125.719" stroke="white" stroke-linecap="round" stroke-linejoin="round"/>
<path d="M17.2343 143.773H5.98856L5.48124 139.688C5.11095 136.707 5.09392 133.693 5.4305 130.708L5.98856 125.706H17.2343L17.789 130.59C18.1356 133.574 18.1277 136.59 17.7653 139.573L17.2343 143.773Z" stroke="#333333" stroke-linecap="round" stroke-linejoin="round"/>
<path d="M141.547 135.893C141.547 135.893 139.663 134.161 138.749 136.414C137.836 138.666 138.618 142.502 139.335 143.476C140.052 144.45 141.702 143.953 141.702 143.953C142.086 144.225 142.551 144.36 143.021 144.335C143.382 144.315 143.739 144.262 144.09 144.176C144.09 144.176 145.423 144.426 146.173 143.459C146.924 142.492 148.128 137.929 147.06 136.4C145.991 134.872 144.276 136.015 144.276 136.015C144.276 136.015 143.16 134.743 141.547 135.893Z" fill="#FCCFBA" stroke="#333333" stroke-linecap="round" stroke-linejoin="round"/>
<path d="M141.547 135.893C141.352 136.023 141.188 136.194 141.067 136.394C140.945 136.593 140.869 136.817 140.843 137.05" stroke="#333333" stroke-linecap="round" stroke-linejoin="round"/>
<path d="M144.262 136.015C144.608 136.432 144.814 136.948 144.851 137.489" stroke="#333333" stroke-linecap="round" stroke-linejoin="round"/>
<path d="M140.751 143.347L141.688 143.953" stroke="#333333" stroke-linecap="round" stroke-linejoin="round"/>
<path d="M144.066 144.176C144.357 143.819 144.554 143.394 144.638 142.941" stroke="#333333" stroke-linecap="round" stroke-linejoin="round"/>
<path d="M142.984 135.261L143.745 133.18L144.502 133.147L143.552 135.551L142.984 135.261Z" fill="#333333" stroke="#333333" stroke-linecap="round" stroke-linejoin="round"/>
<path d="M132.097 137.378C132.097 137.378 130.365 136.147 129.709 137.922C129.053 139.698 129.949 142.61 130.629 143.334C131.308 144.058 132.428 143.547 132.428 143.547C132.88 143.739 133.369 143.825 133.859 143.801C134.169 143.767 134.475 143.707 134.775 143.621C134.775 143.621 135.945 143.746 136.537 142.962C137.129 142.177 137.907 138.609 136.892 137.493C135.878 136.377 134.457 137.341 134.457 137.341C134.457 137.341 133.429 136.41 132.097 137.378Z" fill="white" stroke="#333333" stroke-linecap="round" stroke-linejoin="round"/>
<path d="M132.097 137.378C131.942 137.481 131.814 137.618 131.72 137.779C131.627 137.939 131.572 138.119 131.559 138.304" stroke="#333333" stroke-linecap="round" stroke-linejoin="round"/>
<path d="M134.458 137.33C134.774 137.621 134.983 138.009 135.053 138.433" stroke="#333333" stroke-linecap="round" stroke-linejoin="round"/>
<path d="M131.85 143.151L132.428 143.537" stroke="#333333" stroke-linecap="round" stroke-linejoin="round"/>
<path d="M134.775 143.611C134.775 143.611 135.574 143.469 135.648 142.887" stroke="#333333" stroke-linecap="round" stroke-linejoin="round"/>
<path d="M133.307 136.816L132.506 135.071L133.159 135.007L133.815 137.009L133.307 136.816Z" fill="#333333" stroke="#333333" stroke-linecap="round" stroke-linejoin="round"/>
<path d="M150.361 137.378C150.361 137.378 148.629 136.147 147.973 137.922C147.317 139.698 148.213 142.61 148.893 143.334C149.573 144.058 150.692 143.547 150.692 143.547C151.144 143.739 151.633 143.825 152.123 143.801C152.433 143.767 152.74 143.707 153.039 143.621C153.039 143.621 154.21 143.746 154.801 142.962C155.393 142.177 156.171 138.609 155.157 137.493C154.142 136.377 152.721 137.341 152.721 137.341C152.721 137.341 151.693 136.41 150.361 137.378Z" fill="white" stroke="#333333" stroke-linecap="round" stroke-linejoin="round"/>
<path d="M150.361 137.378C150.206 137.481 150.077 137.618 149.984 137.779C149.891 137.939 149.836 138.119 149.823 138.304" stroke="#333333" stroke-linecap="round" stroke-linejoin="round"/>
<path d="M152.721 137.33C153.037 137.621 153.247 138.009 153.316 138.433" stroke="#333333" stroke-linecap="round" stroke-linejoin="round"/>
<path d="M150.114 143.151L150.692 143.537" stroke="#333333" stroke-linecap="round" stroke-linejoin="round"/>
<path d="M153.039 143.611C153.039 143.611 153.837 143.469 153.912 142.887" stroke="#333333" stroke-linecap="round" stroke-linejoin="round"/>
<path d="M151.571 136.816L150.77 135.071L151.422 135.007L152.078 137.009L151.571 136.816Z" fill="#333333" stroke="#333333" stroke-linecap="round" stroke-linejoin="round"/>
<path d="M131.339 146.733C131.339 147.023 131.253 147.307 131.092 147.548C130.93 147.79 130.701 147.978 130.433 148.089C130.165 148.2 129.87 148.229 129.585 148.172C129.3 148.116 129.039 147.976 128.833 147.771C128.628 147.565 128.488 147.304 128.432 147.019C128.375 146.734 128.404 146.439 128.515 146.171C128.626 145.903 128.814 145.674 129.056 145.512C129.297 145.351 129.581 145.265 129.871 145.265C130.064 145.265 130.255 145.302 130.433 145.376C130.612 145.449 130.774 145.557 130.91 145.694C131.047 145.83 131.155 145.992 131.228 146.171C131.302 146.349 131.339 146.54 131.339 146.733Z" fill="#951C3F" stroke="#333333" stroke-linecap="round" stroke-linejoin="round"/>
<path d="M135.398 146.844C135.398 147.135 135.313 147.419 135.152 147.661C134.991 147.903 134.762 148.091 134.494 148.203C134.226 148.315 133.93 148.344 133.645 148.288C133.361 148.232 133.099 148.092 132.893 147.887C132.687 147.682 132.547 147.42 132.49 147.135C132.433 146.851 132.462 146.555 132.573 146.287C132.684 146.018 132.872 145.789 133.114 145.628C133.355 145.466 133.639 145.38 133.93 145.38C134.122 145.38 134.313 145.417 134.491 145.49C134.669 145.564 134.831 145.672 134.968 145.808C135.104 145.944 135.212 146.105 135.286 146.283C135.36 146.461 135.398 146.652 135.398 146.844Z" fill="#951C3F" stroke="#333333" stroke-linecap="round" stroke-linejoin="round"/>
<path d="M142.713 146.844C142.713 147.134 142.627 147.417 142.466 147.658C142.305 147.899 142.077 148.087 141.809 148.197C141.542 148.308 141.247 148.337 140.963 148.281C140.679 148.224 140.418 148.085 140.213 147.88C140.008 147.675 139.869 147.414 139.812 147.13C139.756 146.846 139.785 146.552 139.896 146.284C140.007 146.016 140.194 145.788 140.435 145.627C140.676 145.466 140.959 145.38 141.249 145.38C141.637 145.38 142.01 145.534 142.284 145.809C142.559 146.084 142.713 146.456 142.713 146.844Z" fill="#951C3F" stroke="#333333" stroke-linecap="round" stroke-linejoin="round"/>
<path d="M139.331 147.183C139.331 147.472 139.245 147.755 139.084 147.996C138.923 148.237 138.695 148.425 138.427 148.536C138.159 148.647 137.865 148.676 137.581 148.619C137.297 148.563 137.036 148.423 136.831 148.218C136.626 148.013 136.487 147.752 136.43 147.468C136.374 147.184 136.403 146.89 136.514 146.622C136.624 146.355 136.812 146.126 137.053 145.965C137.294 145.804 137.577 145.718 137.867 145.718C138.255 145.718 138.627 145.873 138.902 146.147C139.177 146.422 139.331 146.794 139.331 147.183Z" fill="#951C3F" stroke="#333333" stroke-linecap="round" stroke-linejoin="round"/>
<path d="M124.913 148.647C125.722 148.647 126.377 147.992 126.377 147.183C126.377 146.374 125.722 145.718 124.913 145.718C124.104 145.718 123.448 146.374 123.448 147.183C123.448 147.992 124.104 148.647 124.913 148.647Z" fill="#951C3F" stroke="#333333" stroke-linecap="round" stroke-linejoin="round"/>
<path d="M135.567 150C136.375 150 137.031 149.344 137.031 148.536C137.031 147.727 136.375 147.071 135.567 147.071C134.758 147.071 134.102 147.727 134.102 148.536C134.102 149.344 134.758 150 135.567 150Z" fill="#951C3F" stroke="#333333" stroke-linecap="round" stroke-linejoin="round"/>
<path d="M146.772 147.859C146.772 148.149 146.686 148.432 146.525 148.673C146.364 148.913 146.135 149.101 145.868 149.212C145.6 149.323 145.306 149.352 145.022 149.295C144.737 149.239 144.477 149.099 144.272 148.895C144.067 148.69 143.927 148.429 143.871 148.145C143.814 147.861 143.843 147.566 143.954 147.299C144.065 147.031 144.253 146.802 144.494 146.641C144.734 146.48 145.018 146.395 145.307 146.395C145.696 146.395 146.068 146.549 146.343 146.823C146.617 147.098 146.772 147.471 146.772 147.859Z" fill="#951C3F" stroke="#333333" stroke-linecap="round" stroke-linejoin="round"/>
<path d="M133.03 147.971C133.031 148.261 132.946 148.544 132.785 148.786C132.625 149.028 132.396 149.216 132.129 149.328C131.861 149.44 131.566 149.47 131.282 149.415C130.997 149.359 130.735 149.221 130.529 149.017C130.323 148.813 130.182 148.552 130.124 148.268C130.066 147.984 130.094 147.689 130.203 147.42C130.312 147.152 130.499 146.921 130.739 146.759C130.979 146.596 131.262 146.508 131.552 146.506C131.746 146.505 131.937 146.542 132.116 146.615C132.295 146.688 132.458 146.795 132.596 146.931C132.733 147.067 132.842 147.229 132.917 147.408C132.991 147.586 133.03 147.777 133.03 147.971Z" fill="#951C3F" stroke="#333333" stroke-linecap="round" stroke-linejoin="round"/>
<path d="M129.986 143.689C129.986 143.979 129.9 144.263 129.739 144.504C129.578 144.746 129.348 144.934 129.08 145.045C128.812 145.156 128.517 145.185 128.232 145.129C127.947 145.072 127.686 144.932 127.48 144.727C127.275 144.522 127.135 144.26 127.079 143.975C127.022 143.691 127.051 143.395 127.162 143.127C127.273 142.859 127.462 142.63 127.703 142.468C127.944 142.307 128.228 142.221 128.518 142.221C128.711 142.221 128.902 142.258 129.081 142.332C129.259 142.405 129.421 142.514 129.557 142.65C129.694 142.786 129.802 142.948 129.875 143.127C129.949 143.305 129.987 143.496 129.986 143.689Z" fill="#951C3F" stroke="#333333" stroke-linecap="round" stroke-linejoin="round"/>
<path d="M130.118 145.725C130.118 145.725 131.133 145.167 131.576 144.829C132.019 144.49 132.36 144.213 132.36 144.213L132.922 144.774C133.145 144.998 133.706 145.502 133.706 145.502" stroke="#333333" stroke-linecap="round" stroke-linejoin="round"/>
<path d="M131.688 147.129C131.78 146.796 131.912 146.476 132.08 146.175C132.361 145.671 132.361 144.213 132.361 144.213C133.416 144.411 134.486 144.524 135.56 144.551C137.018 144.551 138.533 144.159 139.541 143.99C140.196 143.897 140.863 143.936 141.503 144.105L141.391 145.897" stroke="#333333" stroke-linecap="round" stroke-linejoin="round"/>
<path d="M141.503 144.102C142.137 144.527 142.793 144.92 143.468 145.278C143.806 145.39 145.656 146.631 145.656 146.631" stroke="#333333" stroke-linecap="round" stroke-linejoin="round"/>
<path d="M137.41 144.548L137.914 146.175" stroke="#333333" stroke-linecap="round" stroke-linejoin="round"/>
<path d="M22.0609 144.507C21.1714 144.426 18.902 142.968 18.902 142.968V143.067C18.2814 142.782 17.6061 142.636 16.9234 142.64C14.7994 142.64 13.0745 143.97 13.0745 145.613C13.0745 147.257 14.7994 148.583 16.9234 148.583C17.829 148.594 18.7171 148.333 19.4735 147.835C20.2041 147.477 21.4589 146.902 22.0677 146.858C22.9572 146.79 25.2266 146.858 25.2266 146.858V144.49C25.2266 144.49 22.9504 144.589 22.0609 144.507Z" fill="white" stroke="#333333" stroke-linecap="round" stroke-linejoin="round"/>
<path d="M57.851 144.507C58.7405 144.426 61.0099 142.968 61.0099 142.968V143.067C61.6292 142.782 62.3035 142.636 62.9851 142.64C65.1091 142.64 66.8341 143.97 66.8341 145.613C66.8341 147.257 65.1091 148.583 62.9851 148.583C62.0796 148.593 61.1916 148.333 60.435 147.835C59.7044 147.477 58.4496 146.902 57.8408 146.858C56.9513 146.79 54.6819 146.858 54.6819 146.858V144.49C54.6819 144.49 56.9615 144.589 57.851 144.507Z" fill="white" stroke="#333333" stroke-linecap="round" stroke-linejoin="round"/>
<path d="M56.4035 142.17H23.708V149.053H56.4035V142.17Z" fill="white" stroke="#333333" stroke-linecap="round" stroke-linejoin="round"/>
</svg>
