<svg width="222" height="151" viewBox="0 0 222 151" fill="none" xmlns="http://www.w3.org/2000/svg">
<path d="M205.789 64.9869V77.6498H213.686" stroke="#333333" stroke-linecap="round" stroke-linejoin="round"/>
<path d="M187.129 38.6728V33.5979H192.98V49.4561H196.582V66.1965H200.183V43.2899H205.789V63.4559" stroke="#333333" stroke-linecap="round" stroke-linejoin="round"/>
<path d="M11.6042 57.3382V49.4561H17.4552V60.0272H23.3061V41.5255H36.8088V58.2659H48.9593V36.2415H58.8605V57.3867H68.707V10.6913H74.6156V30.0722H79.5661V2.76073H91.7167V60.0272H107.92V22.1446H118.27V44.169H127.271V15.0962H143.023V46.8126H151.126V28.3109H157.426V40.6463H163.726V25.6673H167.327V10.6913H172.729V53.2334H177.665V42.4077H179.029V66.1965H187.129V40.0491" stroke="#333333" stroke-linecap="round" stroke-linejoin="round"/>
<path d="M3.95288 77.6498H11.6046V58.7145" stroke="#333333" stroke-linecap="round" stroke-linejoin="round"/>
<path d="M189.537 70.8712H185.202V75.2063H189.537V70.8712Z" stroke="#333333" stroke-linecap="round" stroke-linejoin="round"/>
<path d="M196.658 70.8712H192.323V75.2063H196.658V70.8712Z" stroke="#333333" stroke-linecap="round" stroke-linejoin="round"/>
<path d="M17.7189 70.8712H13.3838V75.2063H17.7189V70.8712Z" stroke="#333333" stroke-linecap="round" stroke-linejoin="round"/>
<path d="M10.9074 80.4661H6.57227V84.8012H10.9074V80.4661Z" stroke="#333333" stroke-linecap="round" stroke-linejoin="round"/>
<path d="M189.537 77.9893H185.202V82.3244H189.537V77.9893Z" stroke="#333333" stroke-linecap="round" stroke-linejoin="round"/>
<path d="M179.135 102.903C179.924 103.248 181.849 103.206 181.864 103.206C181.879 103.206 181.448 101.945 181.412 101.869C180.991 100.987 179.654 99.5257 178.565 99.6742C178.386 99.7034 178.214 99.7702 178.062 99.8701C177.91 99.97 177.78 100.101 177.682 100.254C177.583 100.407 177.518 100.58 177.491 100.76C177.463 100.94 177.474 101.124 177.523 101.299C177.692 102.051 178.465 102.609 179.135 102.903Z" fill="#951C3F"/>
<path d="M179.799 108.481C180.618 108.602 182.337 108.102 182.473 108.063C182.755 109.046 183.104 110.009 183.516 110.946C183.753 111.494 184.007 112.037 184.268 112.58C184.113 112.349 183.965 112.146 183.947 112.119C183.307 111.379 181.633 110.324 180.612 110.752C180.446 110.827 180.297 110.937 180.177 111.074C180.056 111.211 179.965 111.372 179.911 111.546C179.857 111.72 179.84 111.904 179.861 112.085C179.883 112.266 179.942 112.441 180.036 112.598C180.409 113.277 181.3 113.613 182.025 113.716C182.749 113.82 184.235 113.428 184.623 113.319C184.726 113.525 184.826 113.735 184.926 113.941C185.426 114.932 185.926 115.917 186.387 116.903C186.551 117.248 186.69 117.594 186.848 117.942C186.708 117.736 186.587 117.567 186.569 117.542C185.926 116.803 184.253 115.748 183.234 116.175C183.068 116.251 182.92 116.361 182.8 116.498C182.679 116.635 182.589 116.796 182.535 116.97C182.48 117.144 182.463 117.328 182.485 117.509C182.506 117.69 182.565 117.865 182.658 118.021C183.031 118.7 183.925 119.034 184.647 119.14C185.368 119.246 186.714 118.891 187.175 118.761C187.318 119.122 187.46 119.483 187.581 119.837C187.66 120.08 187.751 120.31 187.815 120.559C187.879 120.807 187.951 121.05 188.018 121.289C188.13 121.759 188.248 122.241 188.348 122.702C188.418 123.02 188.479 123.327 188.542 123.636C188.385 123.287 188.06 122.617 188.027 122.563C187.506 121.732 186.011 120.441 184.947 120.707C184.772 120.758 184.609 120.844 184.47 120.962C184.33 121.079 184.217 121.224 184.137 121.387C184.057 121.551 184.012 121.73 184.006 121.912C183.999 122.094 184.03 122.275 184.098 122.444C184.365 123.172 185.199 123.639 185.896 123.854C186.669 124.087 188.373 123.872 188.588 123.854C188.688 124.363 188.782 124.861 188.864 125.33C188.927 125.679 188.982 126.013 189.034 126.334H189.716C189.652 125.976 189.582 125.603 189.503 125.212C189.403 124.694 189.282 124.142 189.155 123.575C189.669 123.373 190.171 123.138 190.655 122.872C191.219 123.478 192.656 124.191 192.844 124.282C192.647 124.764 192.453 125.23 192.262 125.667L191.959 126.334H192.714C192.771 126.197 192.829 126.061 192.887 125.919C193.087 125.43 193.293 124.906 193.493 124.363C193.699 124.406 195.388 124.751 196.176 124.573C196.888 124.412 197.752 124.009 198.074 123.302C198.154 123.139 198.199 122.96 198.206 122.778C198.213 122.596 198.182 122.414 198.114 122.245C198.046 122.076 197.944 121.923 197.813 121.796C197.682 121.669 197.526 121.57 197.355 121.508C196.315 121.159 194.727 122.338 194.148 123.126C194.111 123.175 193.796 123.733 193.602 124.069C193.684 123.845 193.769 123.633 193.851 123.402C194.017 122.951 194.154 122.493 194.336 122.002C194.405 121.762 194.478 121.523 194.551 121.277C194.624 121.032 194.681 120.771 194.748 120.516C194.888 119.91 195.003 119.304 195.106 118.697C195.5 118.843 196.925 119.334 197.649 119.282C198.374 119.231 199.295 118.964 199.72 118.315C199.824 118.166 199.896 117.996 199.931 117.817C199.965 117.639 199.962 117.454 199.921 117.277C199.879 117.099 199.801 116.933 199.692 116.787C199.582 116.642 199.443 116.521 199.283 116.433C198.307 115.93 196.555 116.857 195.864 117.548C195.821 117.591 195.379 118.155 195.142 118.458C195.2 118.085 195.26 117.718 195.306 117.339C195.442 116.251 195.542 115.147 195.651 114.044C195.685 113.707 195.721 113.371 195.758 113.034C195.897 113.086 197.576 113.707 198.389 113.641C199.117 113.592 200.035 113.338 200.456 112.674C200.561 112.524 200.633 112.355 200.668 112.176C200.703 111.997 200.7 111.812 200.659 111.635C200.617 111.457 200.539 111.29 200.429 111.145C200.319 110.999 200.18 110.879 200.02 110.791C199.044 110.288 197.292 111.215 196.603 111.907C196.549 111.958 195.915 112.752 195.764 112.965C195.839 112.222 195.924 111.485 196.039 110.761C196.187 109.782 196.398 108.814 196.67 107.863C196.737 107.887 198.489 108.545 199.317 108.484C200.047 108.435 200.963 108.166 201.387 107.517C201.492 107.368 201.563 107.198 201.598 107.019C201.632 106.84 201.629 106.656 201.588 106.478C201.547 106.301 201.469 106.134 201.359 105.989C201.249 105.843 201.11 105.723 200.951 105.634C199.974 105.131 198.222 106.059 197.531 106.75C197.476 106.804 196.794 107.659 196.682 107.823C196.682 107.769 196.709 107.711 196.725 107.656C197.026 106.71 197.411 105.792 197.874 104.913C198.122 104.425 198.389 103.973 198.656 103.536C198.959 103.694 200.399 104.388 201.163 104.419C201.927 104.449 202.833 104.282 203.324 103.682C203.445 103.545 203.536 103.385 203.59 103.211C203.645 103.037 203.662 102.853 203.641 102.672C203.619 102.491 203.56 102.317 203.467 102.16C203.374 102.003 203.249 101.868 203.1 101.763C202.191 101.157 200.344 101.887 199.58 102.497C199.538 102.53 199.15 102.915 198.874 103.2C198.998 103.006 199.123 102.803 199.244 102.618C199.705 101.927 200.169 101.323 200.581 100.799C200.82 100.496 201.042 100.232 201.251 99.9834C201.636 99.9834 203.188 99.9289 203.867 99.6106C204.546 99.2922 205.286 98.7193 205.446 97.9614C205.49 97.7845 205.496 97.6004 205.464 97.4211C205.432 97.2417 205.363 97.0711 205.26 96.9204C205.158 96.7697 205.025 96.6422 204.87 96.5463C204.715 96.4504 204.542 96.3882 204.361 96.3637C203.27 96.2455 201.975 97.7401 201.575 98.6344C201.542 98.7132 201.142 99.9834 201.16 99.9834H201.202C200.996 100.22 200.778 100.472 200.544 100.753C200.117 101.278 199.635 101.875 199.165 102.557C198.644 103.289 198.166 104.05 197.734 104.837C197.248 105.716 196.842 106.638 196.522 107.59C196.522 107.59 196.522 107.614 196.522 107.623C196.522 107.302 196.522 106.41 196.506 106.335C196.379 105.364 195.564 103.561 194.487 103.361C194.308 103.332 194.124 103.341 193.949 103.388C193.773 103.435 193.609 103.518 193.468 103.633C193.327 103.747 193.211 103.89 193.129 104.052C193.046 104.214 192.999 104.392 192.99 104.573C192.926 105.343 193.484 106.116 194.03 106.604C194.636 107.153 196.355 107.687 196.491 107.729C196.184 108.705 195.943 109.701 195.77 110.709C195.664 111.297 195.576 111.891 195.497 112.489C195.497 112.21 195.497 111.961 195.497 111.928C195.373 110.955 194.557 109.151 193.478 108.951C193.298 108.923 193.115 108.933 192.94 108.98C192.765 109.028 192.601 109.111 192.46 109.225C192.319 109.34 192.204 109.482 192.121 109.644C192.038 109.805 191.99 109.982 191.98 110.163C191.917 110.937 192.477 111.71 193.023 112.198C193.569 112.686 195.024 113.174 195.409 113.298C195.382 113.525 195.351 113.756 195.324 113.983C195.191 115.087 195.063 116.184 194.909 117.26C194.851 117.639 194.784 118.009 194.718 118.379C194.718 118.133 194.718 117.924 194.703 117.894C194.578 116.924 193.763 115.12 192.684 114.92C192.504 114.892 192.321 114.901 192.145 114.949C191.97 114.996 191.806 115.079 191.665 115.193C191.524 115.308 191.408 115.45 191.326 115.612C191.243 115.774 191.196 115.951 191.186 116.133C191.122 116.903 191.683 117.676 192.229 118.164C192.774 118.652 194.09 119.094 194.545 119.243C194.466 119.619 194.387 119.998 194.293 120.362C194.221 120.607 194.172 120.85 194.087 121.095C194.002 121.341 193.933 121.577 193.854 121.814C193.69 122.269 193.523 122.723 193.35 123.175C193.232 123.478 193.117 123.781 192.999 124.06C193.056 123.684 193.159 122.945 193.159 122.884C193.148 122.021 192.915 121.176 192.483 120.428C192.486 120.333 192.48 120.238 192.465 120.143C192.442 119.962 192.382 119.788 192.287 119.632C192.193 119.476 192.067 119.342 191.917 119.238C191.767 119.134 191.597 119.062 191.418 119.028C191.239 118.994 191.054 118.998 190.877 119.04C189.819 119.322 189.146 121.183 189.094 122.162C189.094 122.22 189.131 122.851 189.161 123.248C189.106 123.017 189.058 122.793 189 122.557C188.888 122.087 188.764 121.623 188.63 121.123C188.561 120.883 188.485 120.641 188.412 120.395C188.339 120.149 188.242 119.904 188.154 119.655C187.945 119.082 187.706 118.509 187.451 117.939C187.86 117.842 189.312 117.473 189.898 117.03C190.483 116.587 191.092 115.857 191.089 115.081C191.093 114.899 191.059 114.718 190.989 114.549C190.919 114.381 190.815 114.23 190.683 114.105C190.55 113.979 190.393 113.883 190.221 113.823C190.049 113.762 189.867 113.738 189.685 113.753C188.594 113.871 187.648 115.608 187.451 116.569C187.451 116.627 187.372 117.333 187.345 117.721C187.19 117.379 187.042 117.036 186.866 116.697C186.378 115.714 185.853 114.735 185.35 113.759L184.88 112.849C185.029 112.816 186.763 112.413 187.418 111.91C187.997 111.464 188.612 110.736 188.609 109.963C188.614 109.781 188.58 109.6 188.511 109.431C188.441 109.263 188.336 109.111 188.204 108.985C188.071 108.86 187.914 108.763 187.742 108.703C187.57 108.642 187.387 108.618 187.205 108.633C186.114 108.751 185.168 110.488 184.971 111.449C184.971 111.522 184.862 112.534 184.853 112.795C184.51 112.131 184.174 111.47 183.868 110.803C183.452 109.906 183.094 108.982 182.798 108.038C182.864 108.023 184.68 107.611 185.347 107.096C185.929 106.653 186.545 105.922 186.539 105.149C186.544 104.967 186.511 104.785 186.441 104.616C186.371 104.448 186.267 104.296 186.134 104.17C186.002 104.044 185.844 103.948 185.672 103.888C185.5 103.827 185.317 103.803 185.135 103.818C184.047 103.937 183.098 105.674 182.901 106.635C182.901 106.711 182.788 107.802 182.782 107.999C182.782 107.944 182.743 107.89 182.728 107.835C182.456 106.881 182.27 105.904 182.173 104.916C182.109 104.37 182.082 103.846 182.067 103.333C182.413 103.294 183.989 103.082 184.644 102.688C185.299 102.294 185.963 101.651 186.041 100.869C186.066 100.688 186.053 100.504 186.002 100.329C185.951 100.154 185.864 99.9915 185.746 99.8522C185.628 99.713 185.482 99.6001 185.318 99.5209C185.154 99.4416 184.975 99.3978 184.792 99.3923C183.695 99.3923 182.564 101.014 182.261 101.948C182.261 101.996 182.137 102.53 182.061 102.921C182.061 102.691 182.061 102.451 182.061 102.233C182.061 101.402 182.115 100.641 182.167 99.9683C182.2 99.5863 182.237 99.2437 182.276 98.9194C182.594 98.7011 183.862 97.8068 184.253 97.1671C184.644 96.5274 184.944 95.6513 184.662 94.9177C184.601 94.746 184.504 94.5892 184.378 94.4574C184.252 94.3256 184.1 94.2218 183.931 94.1526C183.762 94.0834 183.581 94.0505 183.399 94.0559C183.217 94.0613 183.038 94.105 182.873 94.184C181.9 94.6873 181.643 96.6517 181.803 97.6158C181.803 97.7007 182.185 98.98 182.203 98.9709L182.222 98.9557C182.179 99.2589 182.137 99.5984 182.097 99.9622C182.031 100.635 181.961 101.396 181.943 102.23C181.912 103.127 181.933 104.024 182.006 104.919C182.083 105.921 182.25 106.914 182.504 107.887C182.504 107.887 182.504 107.911 182.504 107.923C182.331 107.65 181.821 106.911 181.776 106.856C181.136 106.116 179.463 105.061 178.441 105.489C178.275 105.565 178.127 105.675 178.007 105.812C177.887 105.949 177.796 106.109 177.742 106.284C177.688 106.458 177.67 106.641 177.692 106.822C177.713 107.004 177.772 107.178 177.865 107.335C178.184 108.041 179.072 108.375 179.799 108.481Z" fill="#951C3F"/>
<path d="M198.616 103.327C198.616 103.327 198.965 102.048 198.977 101.963C199.114 100.993 198.804 99.0376 197.816 98.5616C197.65 98.4867 197.47 98.4476 197.287 98.447C197.105 98.4463 196.924 98.4842 196.758 98.558C196.591 98.6318 196.442 98.7399 196.319 98.8753C196.197 99.0107 196.105 99.1703 196.049 99.3438C195.785 100.071 196.118 100.966 196.519 101.578C196.985 102.3 198.613 103.327 198.616 103.327Z" fill="#951C3F"/>
<path d="M3.44673 102.903C4.23494 103.248 6.17515 103.206 6.17515 103.206C6.17515 103.206 5.75982 101.945 5.72344 101.869C5.30206 100.987 3.96513 99.5257 2.8768 99.6742C2.69708 99.7034 2.52554 99.7701 2.37337 99.87C2.2212 99.97 2.09182 100.101 1.99369 100.254C1.89556 100.408 1.83088 100.58 1.80387 100.76C1.77687 100.94 1.78814 101.124 1.83697 101.299C2.0037 102.051 2.77675 102.609 3.44673 102.903Z" fill="#951C3F"/>
<path d="M4.11342 108.481C4.92891 108.602 6.64781 108.102 6.78423 108.063C7.06784 109.043 7.41623 110.003 7.8271 110.937C8.06356 111.485 8.31821 112.028 8.58196 112.571C8.42432 112.34 8.2788 112.137 8.26061 112.11C7.61792 111.37 5.94449 110.315 4.92588 110.742C4.7601 110.819 4.61217 110.929 4.49169 111.066C4.37121 111.202 4.28088 111.363 4.22656 111.537C4.17224 111.711 4.15515 111.895 4.1764 112.076C4.19764 112.257 4.25675 112.432 4.34988 112.589C4.72276 113.268 5.61708 113.604 6.33859 113.707C7.06011 113.81 8.54861 113.419 8.93665 113.31C9.03973 113.516 9.13977 113.726 9.23981 113.932C9.73699 114.923 10.2372 115.908 10.698 116.894C10.8617 117.239 11.0012 117.585 11.1588 117.933C11.0193 117.727 10.9011 117.557 10.8799 117.533C10.2372 116.794 8.56377 115.739 7.54516 116.166C7.37938 116.242 7.23145 116.352 7.11097 116.489C6.99049 116.626 6.90016 116.787 6.84584 116.961C6.79152 117.135 6.77443 117.318 6.79568 117.5C6.81692 117.681 6.87603 117.855 6.96916 118.012C7.34204 118.691 8.23636 119.025 8.96091 119.131C9.68545 119.237 11.0254 118.882 11.4862 118.752C11.6287 119.113 11.7712 119.473 11.8924 119.828C11.9713 120.071 12.0622 120.301 12.1259 120.55C12.1895 120.798 12.2623 121.041 12.329 121.28C12.4412 121.75 12.5624 122.232 12.6594 122.693C12.7292 123.011 12.7928 123.317 12.8535 123.627C12.6958 123.278 12.3714 122.608 12.3381 122.554C11.8167 121.723 10.3221 120.431 9.258 120.698C9.08249 120.751 8.92008 120.84 8.78143 120.96C8.64277 121.08 8.531 121.227 8.45343 121.393C8.37586 121.559 8.33425 121.74 8.33132 121.923C8.3284 122.106 8.36422 122.288 8.43644 122.456C8.70019 123.184 9.53387 123.651 10.2342 123.866C11.0042 124.1 12.7079 123.884 12.9232 123.866C13.0232 124.375 13.1202 124.873 13.2021 125.343C13.2627 125.691 13.3173 126.025 13.3688 126.346H14.054C13.9873 125.988 13.9175 125.615 13.8387 125.224C13.7387 124.706 13.6204 124.154 13.4931 123.587C14.0064 123.384 14.5066 123.149 14.9907 122.884C15.5546 123.49 16.9916 124.203 17.1795 124.294C16.9825 124.776 16.7884 125.243 16.5974 125.679C16.4974 125.909 16.3974 126.128 16.2943 126.346H17.0158C17.0734 126.21 17.131 126.073 17.1886 125.931C17.3917 125.443 17.5948 124.918 17.7949 124.375C18.0011 124.418 19.6897 124.764 20.4779 124.585C21.1903 124.424 22.0543 124.021 22.3756 123.314C22.4566 123.151 22.5021 122.972 22.5093 122.79C22.5165 122.608 22.4852 122.426 22.4174 122.257C22.3496 122.087 22.2468 121.934 22.1158 121.807C21.9848 121.68 21.8285 121.582 21.6572 121.52C20.6173 121.171 19.0318 122.35 18.4497 123.139C18.4134 123.187 18.0981 123.745 17.9041 124.081C17.9889 123.857 18.0708 123.645 18.1526 123.414C18.3194 122.963 18.4558 122.505 18.6377 122.014C18.7074 121.774 18.7802 121.535 18.8529 121.289C18.9257 121.044 18.9833 120.783 19.05 120.528C19.1925 119.922 19.3046 119.316 19.4077 118.709C19.8049 118.855 21.2267 119.346 21.9512 119.295C22.6758 119.243 23.5974 118.976 24.0218 118.327C24.1266 118.178 24.1987 118.009 24.2336 117.83C24.2684 117.651 24.2651 117.466 24.2239 117.289C24.1827 117.111 24.1046 116.944 23.9945 116.799C23.8845 116.653 23.745 116.533 23.5852 116.445C22.6091 115.942 20.8568 116.869 20.1656 117.561C20.1232 117.603 19.6806 118.167 19.4441 118.47C19.5017 118.097 19.5623 117.73 19.6078 117.351C19.7442 116.263 19.8473 115.159 19.9534 114.056C19.9867 113.719 20.0231 113.383 20.0595 113.046C20.199 113.098 21.8785 113.719 22.6909 113.653C23.4215 113.604 24.3371 113.35 24.7585 112.686C24.8633 112.537 24.9354 112.367 24.9702 112.188C25.0051 112.009 25.0018 111.825 24.9606 111.647C24.9194 111.469 24.8412 111.302 24.7312 111.157C24.6211 111.012 24.4817 110.891 24.3219 110.803C23.3488 110.3 21.5935 111.228 20.9053 111.919C20.8538 111.97 20.2172 112.765 20.0656 112.977C20.1444 112.234 20.2293 111.497 20.3414 110.773C20.4899 109.794 20.7015 108.826 20.975 107.875C21.0387 107.899 22.7788 108.557 23.6216 108.496C24.3492 108.448 25.2678 108.178 25.6891 107.529C25.7935 107.38 25.8652 107.21 25.8998 107.031C25.9344 106.852 25.931 106.668 25.8898 106.491C25.8487 106.313 25.7707 106.146 25.6609 106.001C25.5511 105.855 25.412 105.735 25.2526 105.646C24.2764 105.143 22.5242 106.071 21.836 106.762C21.7814 106.817 21.0963 107.671 20.9841 107.835C20.9993 107.781 21.0114 107.723 21.0266 107.668C21.3282 106.722 21.7126 105.804 22.1755 104.925C22.4241 104.437 22.6909 103.985 22.9607 103.549C23.2639 103.706 24.7039 104.4 25.4648 104.431C26.2257 104.461 27.1352 104.294 27.6294 103.694C27.7494 103.557 27.8393 103.396 27.8933 103.222C27.9473 103.048 27.9641 102.865 27.9427 102.684C27.9212 102.503 27.862 102.329 27.7689 102.172C27.6757 102.016 27.5507 101.88 27.402 101.775C26.4925 101.169 24.6463 101.899 23.8823 102.509C23.8399 102.542 23.4549 102.927 23.176 103.212C23.3003 103.018 23.4246 102.815 23.5489 102.63C24.0066 101.939 24.4583 101.336 24.8827 100.811C25.1222 100.508 25.3435 100.244 25.5527 99.9956C25.9377 99.9956 27.4899 99.941 28.169 99.6227C28.8481 99.3043 29.5878 98.7314 29.7484 97.9735C29.7922 97.7966 29.7983 97.6125 29.7662 97.4332C29.7341 97.2538 29.6646 97.0832 29.5622 96.9325C29.4599 96.7818 29.3269 96.6543 29.172 96.5584C29.0171 96.4625 28.8437 96.4003 28.6631 96.3758C27.5718 96.2576 26.2773 97.7522 25.8771 98.6465C25.8438 98.7253 25.4436 99.9956 25.4648 99.9956H25.486C25.2799 100.232 25.0616 100.484 24.8282 100.766C24.4007 101.29 23.9187 101.887 23.4488 102.569C22.9362 103.293 22.4645 104.045 22.0361 104.822C21.5502 105.701 21.1444 106.622 20.8235 107.574V107.608C20.8235 107.286 20.8235 106.395 20.8053 106.319C20.678 105.349 19.8655 103.546 18.7862 103.345C18.6067 103.317 18.4232 103.326 18.2476 103.373C18.0719 103.42 17.9081 103.503 17.7669 103.618C17.6256 103.732 17.51 103.875 17.4276 104.037C17.3452 104.199 17.2979 104.377 17.2886 104.558C17.225 105.328 17.7858 106.101 18.3315 106.589C18.9378 107.138 20.6537 107.672 20.7901 107.714C20.4839 108.69 20.2429 109.686 20.0686 110.694C19.9625 111.282 19.8776 111.876 19.7958 112.474C19.7958 112.195 19.7958 111.946 19.7958 111.913C19.6684 110.94 18.8529 109.136 17.7737 108.936C17.5943 108.908 17.4111 108.918 17.2359 108.965C17.0607 109.012 16.8973 109.096 16.7562 109.21C16.6151 109.324 16.4996 109.467 16.4169 109.628C16.3342 109.79 16.2862 109.967 16.2761 110.148C16.2155 110.921 16.7733 111.694 17.319 112.182C17.8646 112.671 19.3198 113.159 19.7048 113.283C19.6775 113.51 19.6472 113.741 19.6199 113.968C19.4865 115.072 19.3622 116.169 19.2046 117.245C19.15 117.624 19.0803 117.994 19.0136 118.364C19.0136 118.118 19.0136 117.909 19.0136 117.879C18.8863 116.909 18.0708 115.105 16.9946 114.905C16.8151 114.876 16.6315 114.885 16.4559 114.932C16.2803 114.979 16.1165 115.063 15.9752 115.177C15.8339 115.291 15.7183 115.434 15.6359 115.596C15.5535 115.758 15.5062 115.936 15.497 116.117C15.4333 116.887 15.9911 117.661 16.5368 118.149C17.0825 118.637 18.3982 119.079 18.856 119.228C18.7741 119.604 18.6953 119.983 18.6013 120.347C18.5316 120.592 18.4801 120.835 18.3952 121.08C18.3103 121.326 18.2406 121.562 18.1617 121.799C17.998 122.253 17.8313 122.708 17.6585 123.16C17.5433 123.463 17.4251 123.766 17.3068 124.045C17.3675 123.669 17.4675 122.929 17.4675 122.869C17.4559 122.006 17.2231 121.16 16.7915 120.413C16.7944 120.318 16.7883 120.222 16.7733 120.128C16.7509 119.947 16.6907 119.773 16.5965 119.617C16.5023 119.461 16.3764 119.327 16.2268 119.223C16.0772 119.119 15.9074 119.047 15.7284 119.013C15.5493 118.979 15.3651 118.983 15.1878 119.025C14.1267 119.307 13.4537 121.168 13.4052 122.147C13.4052 122.205 13.4385 122.835 13.4689 123.233C13.4143 123.002 13.3658 122.778 13.3082 122.541C13.196 122.071 13.0717 121.608 12.9414 121.107C12.8686 120.868 12.7959 120.625 12.7201 120.38C12.6443 120.134 12.5503 119.889 12.4654 119.64C12.2562 119.067 12.0137 118.494 11.7591 117.924C12.1713 117.827 13.6235 117.457 14.2055 117.015C14.7876 116.572 15.403 115.842 15.3969 115.066C15.4013 114.883 15.3674 114.702 15.2974 114.534C15.2274 114.366 15.1229 114.215 14.9905 114.089C14.8582 113.964 14.7011 113.868 14.5293 113.808C14.3575 113.747 14.1749 113.723 13.9933 113.738C12.902 113.856 11.9561 115.593 11.7591 116.554C11.7591 116.612 11.6802 117.318 11.6529 117.706C11.4983 117.363 11.3498 117.021 11.174 116.681C10.6859 115.699 10.1644 114.72 9.65817 113.744C9.49749 113.441 9.35501 113.137 9.18827 112.834C9.33379 112.801 11.0679 112.398 11.7227 111.894C12.3017 111.449 12.9353 110.721 12.9141 109.948C12.9189 109.766 12.8853 109.585 12.8155 109.416C12.7457 109.247 12.6412 109.096 12.5088 108.97C12.3765 108.844 12.2192 108.748 12.0472 108.687C11.8752 108.627 11.6923 108.603 11.5105 108.617C10.4191 108.736 9.47324 110.473 9.27619 111.434C9.26103 111.506 9.17009 112.519 9.15796 112.78C8.81539 112.116 8.47889 111.455 8.1727 110.788C7.75651 109.891 7.39905 108.967 7.10255 108.023C7.17228 108.008 8.98516 107.596 9.65211 107.08C10.2342 106.638 10.8496 105.907 10.8435 105.134C10.8488 104.952 10.8156 104.771 10.7461 104.602C10.6767 104.434 10.5725 104.282 10.4403 104.156C10.3082 104.03 10.1511 103.934 9.97921 103.873C9.80736 103.813 9.62463 103.789 9.44293 103.803C8.35156 103.921 7.40571 105.659 7.20562 106.62C7.19047 106.695 7.09346 107.787 7.09042 107.984C7.07223 107.929 7.04798 107.875 7.03282 107.82C6.76225 106.865 6.5766 105.888 6.47805 104.901C6.41741 104.355 6.3871 103.83 6.37194 103.318C6.71754 103.279 8.29699 103.067 8.94878 102.672C9.60057 102.278 10.2675 101.636 10.3463 100.853C10.3656 100.671 10.346 100.486 10.2887 100.312C10.2315 100.137 10.1379 99.9767 10.0142 99.8409C9.89047 99.7052 9.7394 99.5971 9.57091 99.524C9.40243 99.4508 9.22036 99.4142 9.0367 99.4165C7.9423 99.4165 6.80849 101.038 6.50836 101.972C6.49017 102.021 6.38103 102.554 6.30525 102.945C6.30525 102.715 6.30525 102.475 6.30525 102.257C6.30525 101.426 6.35678 100.666 6.41135 99.9925C6.44167 99.6105 6.48108 99.268 6.51746 98.9436C6.82061 98.7253 8.106 97.831 8.49404 97.1913C8.88209 96.5517 9.18827 95.6756 8.90331 94.9419C8.84189 94.7703 8.74508 94.6135 8.61915 94.4817C8.49322 94.3499 8.341 94.246 8.17234 94.1768C8.00369 94.1077 7.82238 94.0747 7.64017 94.0801C7.45796 94.0855 7.27892 94.1292 7.11468 94.2083C6.14154 94.7115 5.88386 96.676 6.04453 97.64C6.05969 97.7249 6.42651 99.0042 6.4447 98.9951L6.46289 98.98C6.42045 99.2831 6.378 99.6227 6.33859 99.9865C6.2719 100.659 6.20217 101.42 6.18398 102.254C6.15353 103.151 6.17479 104.049 6.24764 104.943C6.32324 105.943 6.48759 106.934 6.73876 107.905V107.941C6.56596 107.668 6.05969 106.929 6.01421 106.874C5.37152 106.134 3.69809 105.08 2.67948 105.507C2.5137 105.583 2.36577 105.693 2.24529 105.83C2.12481 105.967 2.03448 106.128 1.98016 106.302C1.92584 106.476 1.90875 106.659 1.93 106.841C1.95124 107.022 2.01035 107.196 2.10348 107.353C2.49455 108.041 3.38887 108.375 4.11342 108.481Z" fill="#951C3F"/>
<path d="M22.9273 103.327C22.9455 103.327 23.279 102.048 23.2881 101.963C23.4245 100.993 23.1153 99.0376 22.127 98.5616C21.9607 98.4867 21.7805 98.4476 21.5982 98.447C21.4158 98.4463 21.2354 98.4842 21.0686 98.558C20.9018 98.6318 20.7525 98.7399 20.6303 98.8753C20.5081 99.0107 20.4159 99.1703 20.3596 99.3438C20.0958 100.071 20.4323 100.966 20.8295 101.578C21.2963 102.3 22.9273 103.327 22.9273 103.327Z" fill="#951C3F"/>
<path d="M22.7394 15.7602H175.061C175.902 15.7602 176.709 16.0943 177.303 16.689C177.898 17.2837 178.232 18.0902 178.232 18.9312V118.746H19.5684V18.9312C19.5684 18.0902 19.9024 17.2837 20.4971 16.689C21.0918 16.0943 21.8984 15.7602 22.7394 15.7602Z" fill="#333333" stroke="#333333" stroke-miterlimit="10"/>
<path d="M171.708 22.7571H26.053V108.908H171.708V22.7571Z" fill="white" stroke="#333333" stroke-linecap="round" stroke-linejoin="round"/>
<path d="M77.4079 48.6286H28.8997V55.871H77.4079V48.6286Z" fill="white" stroke="#333333" stroke-linecap="round" stroke-linejoin="round"/>
<path d="M77.4079 85.253H28.8997V92.4955H77.4079V85.253Z" fill="white" stroke="#333333" stroke-linecap="round" stroke-linejoin="round"/>
<path d="M127.617 48.6286H79.1086V55.871H127.617V48.6286Z" fill="white" stroke="#333333" stroke-linecap="round" stroke-linejoin="round"/>
<path d="M77.4079 75.8006H28.8997V83.043H77.4079V75.8006Z" fill="white" stroke="#333333" stroke-linecap="round" stroke-linejoin="round"/>
<path d="M127.617 75.8006H79.1086V83.043H127.617V75.8006Z" fill="white" stroke="#333333" stroke-linecap="round" stroke-linejoin="round"/>
<path d="M127.408 57.6839H28.8997V64.9263H127.408V57.6839Z" fill="white" stroke="#333333" stroke-linecap="round" stroke-linejoin="round"/>
<path d="M127.408 66.7392H28.8997V73.9816H127.408V66.7392Z" fill="white" stroke="#333333" stroke-linecap="round" stroke-linejoin="round"/>
<path d="M30.7613 38.6971C31.3403 38.6971 31.6071 39.0488 31.6071 39.6248V41.5135C31.6071 42.0804 31.3403 42.4229 30.7613 42.4229H29.8882V38.6971H30.7613ZM30.7613 42.0319C31.0644 42.0319 31.2039 41.8439 31.2039 41.5044V39.5884C31.2039 39.2489 31.0584 39.0639 30.7552 39.0639H30.3096V42.0319H30.7613Z" fill="#333333"/>
<path d="M33.3169 40.3463V40.7192H32.4074V42.044H33.5261V42.4229H31.9951V38.6971H33.5261V39.0882H32.4074V40.3584L33.3169 40.3463Z" fill="#333333"/>
<path d="M33.908 42.4229V38.6971H34.3233V42.0319H35.3752V42.4229H33.908Z" fill="#333333"/>
<path d="M36.1148 38.6971V42.4229H35.6995V38.6971H36.1148Z" fill="#333333"/>
<path d="M36.8515 38.6971L37.4578 41.9379L38.0641 38.6971H38.4461L37.7458 42.4229H37.1395L36.4392 38.7002L36.8515 38.6971Z" fill="#333333"/>
<path d="M40.086 40.3463V40.7192H39.1766V42.044H40.2922V42.4229H38.7612V38.6971H40.2922V39.0882H39.1766V40.3584L40.086 40.3463Z" fill="#333333"/>
<path d="M41.5051 38.6971C42.0902 38.6971 42.3328 39.0003 42.3328 39.549V39.8522C42.3328 40.2614 42.1903 40.5161 41.8719 40.6191C42.2115 40.7192 42.3388 40.9951 42.3388 41.3952V41.9743C42.3262 42.1268 42.3522 42.2801 42.4146 42.4199H41.9932C41.9339 42.2772 41.9099 42.1222 41.9235 41.9682V41.3831C41.9235 40.9647 41.7264 40.8314 41.3808 40.8314H41.0777V42.4229H40.6624V38.6971H41.5051ZM41.399 40.4524C41.7264 40.4524 41.9235 40.3463 41.9235 39.9431V39.5854C41.9235 39.2519 41.8022 39.0761 41.493 39.0761H41.0898V40.4524H41.399Z" fill="#333333"/>
<path d="M43.3756 41.086L42.5874 38.6971H43.0209L43.6 40.5161L44.185 38.6971H44.5761L43.7849 41.086V42.4229H43.3756V41.086Z" fill="#333333"/>
<path d="M46.119 41.6711L45.9857 42.4229H45.5916L46.304 38.7001H46.9103L47.6197 42.4229H47.1983L47.0528 41.6741L46.119 41.6711ZM46.1706 41.3134H47.0012L46.592 39.167L46.1706 41.3134Z" fill="#333333"/>
<path d="M48.814 38.6971C49.393 38.6971 49.6598 39.0488 49.6598 39.6248V41.5135C49.6598 42.0804 49.393 42.4229 48.814 42.4229H47.9409V38.6971H48.814ZM48.814 42.0319C49.1172 42.0319 49.2566 41.8439 49.2566 41.5044V39.5884C49.2566 39.2489 49.1141 39.0639 48.811 39.0639H48.3623V42.0319H48.814Z" fill="#333333"/>
<path d="M50.9179 38.6971C51.5 38.6971 51.7637 39.0488 51.7637 39.6248V41.5135C51.7637 42.0804 51.5 42.4229 50.9179 42.4229H50.0479V38.6971H50.9179ZM50.9179 42.0319C51.2211 42.0319 51.3575 41.8439 51.3575 41.5044V39.5884C51.3575 39.2489 51.215 39.0639 50.9119 39.0639H50.4662V42.0319H50.9179Z" fill="#333333"/>
<path d="M52.9824 38.6971C53.5675 38.6971 53.81 39.0003 53.81 39.549V39.8522C53.81 40.2614 53.6676 40.5161 53.3492 40.6191C53.6888 40.7192 53.8161 40.9951 53.8161 41.3952V41.9743C53.8035 42.1268 53.8295 42.2801 53.8919 42.4199H53.4705C53.4112 42.2772 53.3872 42.1222 53.4008 41.9682V41.3831C53.4008 40.9647 53.2037 40.8314 52.8581 40.8314H52.555V42.4229H52.1396V38.6971H52.9824ZM52.8763 40.4524C53.2037 40.4524 53.4008 40.3463 53.4008 39.9431V39.5854C53.4008 39.2519 53.2795 39.0761 52.9703 39.0761H52.5671V40.4524H52.8763Z" fill="#333333"/>
<path d="M55.5714 40.3463V40.7192H54.6619V42.044H55.7775V42.4229H54.2466V38.6971H55.7775V39.0882H54.6619V40.3584L55.5714 40.3463Z" fill="#333333"/>
<path d="M57.7725 39.5914V39.6945H57.3783V39.5732C57.3783 39.2367 57.251 39.0427 56.9539 39.0427C56.6568 39.0427 56.5265 39.2367 56.5265 39.5672C56.5265 40.4039 57.7785 40.4766 57.7785 41.5286C57.7785 42.0925 57.5057 42.4593 56.9388 42.4593C56.3719 42.4593 56.1021 42.0925 56.1021 41.5286V41.3164H56.4901V41.5498C56.4901 41.8863 56.6295 42.0834 56.9266 42.0834C57.2237 42.0834 57.3632 41.8863 57.3632 41.5498C57.3632 40.7222 56.1172 40.6403 56.1172 39.5944C56.1172 39.0215 56.384 38.6638 56.9418 38.6638C57.4996 38.6638 57.7725 39.0275 57.7725 39.5914Z" fill="#333333"/>
<path d="M59.749 39.5914V39.6945H59.3549V39.5732C59.3549 39.2367 59.2276 39.0427 58.9305 39.0427C58.6334 39.0427 58.5061 39.2367 58.5061 39.5672C58.5061 40.4039 59.7551 40.4766 59.7551 41.5286C59.7551 42.0925 59.4822 42.4593 58.9153 42.4593C58.3484 42.4593 58.0786 42.0925 58.0786 41.5286V41.3164H58.4667V41.5498C58.4667 41.8863 58.6061 42.0834 58.9032 42.0834C59.2003 42.0834 59.3398 41.8863 59.3398 41.5498C59.3398 40.7222 58.0968 40.6403 58.0968 39.5944C58.0968 39.0215 58.3605 38.6638 58.9214 38.6638C59.4822 38.6638 59.749 39.0275 59.749 39.5914Z" fill="#333333"/>
<path d="M31.7979 52.124V52.4271H31.1128V53.7155H30.7793V50.7355H31.9646V51.0387H31.1128V52.124H31.7979Z" fill="#CCCCCC"/>
<path d="M32.5588 50.7476V53.7277H32.2253V50.7476H32.5588Z" fill="#CCCCCC"/>
<path d="M33.5562 50.7476C34.0231 50.7476 34.2202 50.9871 34.2202 51.4297V51.6723C34.2386 51.8006 34.2117 51.9313 34.1442 52.0419C34.0767 52.1525 33.9728 52.2362 33.8503 52.2786C34.1232 52.3604 34.2232 52.5817 34.2232 52.9001V53.3639C34.2143 53.4863 34.2351 53.609 34.2838 53.7216H33.9473C33.9002 53.6065 33.8815 53.4817 33.8928 53.3578V52.891C33.8928 52.5545 33.7351 52.4484 33.4592 52.4484H33.2258V53.7216H32.8923V50.7416L33.5562 50.7476ZM33.4714 52.1513C33.7351 52.1513 33.8928 52.0664 33.8928 51.745V51.4601C33.8928 51.1902 33.7957 51.0508 33.5472 51.0508H33.2258V52.1513H33.4714Z" fill="#CCCCCC"/>
<path d="M35.8634 51.4631V51.5449H35.5602V51.4479C35.5602 51.1781 35.4571 51.0205 35.2207 51.0205C34.9842 51.0205 34.8811 51.1781 34.8811 51.4419C34.8811 52.1088 35.8785 52.1755 35.8785 53.0122C35.8785 53.4639 35.6633 53.758 35.2085 53.758C34.7538 53.758 34.5386 53.4548 34.5386 53.0122V52.8424H34.8417V53.0334C34.8417 53.3002 34.9509 53.4579 35.1904 53.4579C35.4299 53.4579 35.539 53.3002 35.539 53.0334C35.539 52.3695 34.5446 52.3059 34.5446 51.4661C34.5446 51.0083 34.7568 50.7234 35.2025 50.7234C35.6481 50.7234 35.8634 51.0114 35.8634 51.4631Z" fill="#CCCCCC"/>
<path d="M36.5878 53.7277V51.0508H36.0391V50.7476H37.4669V51.0508H36.9152V53.7277H36.5878Z" fill="#CCCCCC"/>
<path d="M38.6403 53.7277H38.3372V50.7476H38.7585L39.4467 52.9V50.7476H39.7499V53.7277H39.4043L38.6433 51.3176L38.6403 53.7277Z" fill="#CCCCCC"/>
<path d="M40.4225 53.1274L40.3073 53.7337H40.0042L40.5741 50.7537H41.0561L41.626 53.7337H41.2926L41.1774 53.1274H40.4225ZM40.4649 52.8424H41.1349L40.7984 51.1235L40.4649 52.8424Z" fill="#CCCCCC"/>
<path d="M42.9785 53.7216H42.6511L42.1569 51.3539V53.7277H41.8538V50.7476H42.3479L42.839 53.1274L43.3119 50.7476H43.7758V53.7277H43.4726V51.3327L42.9785 53.7216Z" fill="#CCCCCC"/>
<path d="M45.1638 52.0664V52.3695H44.4362V53.4275H45.3457V53.7307H44.1331V50.7507H45.3457V51.0538H44.4362V52.0694L45.1638 52.0664Z" fill="#CCCCCC"/>
<path d="M81.0427 53.7277V50.7476H81.3732V53.4245H82.225V53.7277H81.0427Z" fill="#CCCCCC"/>
<path d="M82.8104 53.1274L82.6952 53.7337H82.3921L82.962 50.7537H83.444L84.014 53.7337H83.6805L83.5683 53.1274H82.8104ZM82.8529 52.8424H83.5168L83.1803 51.1235L82.8529 52.8424Z" fill="#CCCCCC"/>
<path d="M85.5567 51.4631V51.5449H85.2536V51.4479C85.2536 51.1781 85.1505 51.0205 84.911 51.0205C84.6715 51.0205 84.5715 51.1781 84.5715 51.4419C84.5715 52.1088 85.5719 52.1755 85.5719 53.0122C85.5719 53.4639 85.3536 53.758 84.8989 53.758C84.4441 53.758 84.2319 53.4548 84.2319 53.0122V52.8424H84.5351V53.0334C84.5351 53.3002 84.6473 53.4579 84.8837 53.4579C85.1202 53.4579 85.2324 53.3002 85.2324 53.0334C85.2324 52.3695 84.238 52.3059 84.238 51.4661C84.238 51.0083 84.4502 50.7234 84.8989 50.7234C85.3475 50.7234 85.5567 51.0114 85.5567 51.4631Z" fill="#CCCCCC"/>
<path d="M86.2811 53.7277V51.0508H85.7324V50.7476H87.1573V51.0508H86.6086V53.7277H86.2811Z" fill="#CCCCCC"/>
<path d="M88.3337 53.7277H88.0305V50.7476H88.4519L89.1431 52.9V50.7476H89.4463V53.7277H89.1037L88.3397 51.3176L88.3337 53.7277Z" fill="#CCCCCC"/>
<path d="M90.1164 53.1274L90.0012 53.7337H89.698L90.2679 50.7537H90.75L91.3199 53.7337H90.9895L90.8743 53.1274H90.1164ZM90.1588 52.8424H90.8227L90.4862 51.1235L90.1588 52.8424Z" fill="#CCCCCC"/>
<path d="M92.672 53.7216H92.3688L91.8747 51.3539V53.7277H91.5867V50.7476H92.0505L92.5386 53.1274L93.0115 50.7476H93.4753V53.7277H93.1722V51.3327L92.672 53.7216Z" fill="#CCCCCC"/>
<path d="M94.8609 52.0664V52.3695H94.1334V53.4275H95.0246V53.7307H93.812V50.7507H95.0246V51.0538H94.1334V52.0694L94.8609 52.0664Z" fill="#CCCCCC"/>
<path d="M31.2008 61.9584L31.0856 62.5647H30.7825L31.3554 59.5877H31.8344L32.4044 62.5647H32.0709L31.9557 61.9584H31.2008ZM31.2433 61.6734H31.9072L31.5707 59.9545L31.2433 61.6734Z" fill="#CCCCCC"/>
<path d="M33.3594 59.5816C33.8232 59.5816 34.0354 59.8636 34.0354 60.3214V61.8371C34.0354 62.2919 33.8232 62.5708 33.3594 62.5708H32.6621V59.5816H33.3594ZM33.3594 62.2585C33.5989 62.2585 33.7141 62.11 33.7141 61.8371V60.3214C33.7141 60.0485 33.5989 59.9 33.3563 59.9H32.9986V62.2737L33.3594 62.2585Z" fill="#CCCCCC"/>
<path d="M35.0417 59.5816C35.5056 59.5816 35.7178 59.8636 35.7178 60.3214V61.8371C35.7178 62.2919 35.5056 62.5708 35.0417 62.5708H34.3445V59.5816H35.0417ZM35.0417 62.2585C35.2782 62.2585 35.3934 62.11 35.3934 61.8371V60.3214C35.3934 60.0485 35.2782 59.9 35.0357 59.9H34.678V62.2737L35.0417 62.2585Z" fill="#CCCCCC"/>
<path d="M36.6937 59.5816C37.1606 59.5816 37.3546 59.8211 37.3546 60.2638V60.5063C37.3546 60.8337 37.2424 61.0368 36.9847 61.1126C37.2576 61.1914 37.3606 61.4157 37.3606 61.7189V62.1827C37.3503 62.3049 37.3701 62.4277 37.4182 62.5405H37.0848C37.0362 62.4268 37.0164 62.3029 37.0272 62.1797V61.7128C37.0272 61.3763 36.8695 61.2702 36.5937 61.2702H36.3602V62.5405H36.0298V59.5816H36.6937ZM36.6058 60.9853C36.8695 60.9853 37.0272 60.9004 37.0272 60.576V60.291C37.0272 60.0243 36.9302 59.8848 36.6846 59.8848H36.3602V60.9853H36.6058Z" fill="#CCCCCC"/>
<path d="M38.7644 60.9155V61.2187H38.0368V62.2798H38.9311V62.5829H37.7185V59.5816H38.9311V59.8848H38.0368V60.9155H38.7644Z" fill="#CCCCCC"/>
<path d="M40.5289 60.3092V60.3881H40.2257V60.291C40.2257 60.0243 40.1227 59.8666 39.8832 59.8666C39.6437 59.8666 39.5436 60.0243 39.5436 60.288C39.5436 60.955 40.5441 61.0186 40.5441 61.8584C40.5441 62.307 40.3258 62.6011 39.871 62.6011C39.4163 62.6011 39.2041 62.2979 39.2041 61.8584V61.6856H39.5073V61.8735C39.5073 62.1433 39.6194 62.301 39.8559 62.301C40.0924 62.301 40.2076 62.1433 40.2076 61.8735C40.2076 61.2096 39.2102 61.1459 39.2102 60.3092C39.2102 59.8484 39.4224 59.5635 39.871 59.5635C40.3197 59.5635 40.5289 59.8454 40.5289 60.3092Z" fill="#CCCCCC"/>
<path d="M42.1051 60.3092V60.3881H41.8019V60.291C41.8019 60.0243 41.6988 59.8666 41.4593 59.8666C41.2199 59.8666 41.1198 60.0243 41.1198 60.288C41.1198 60.955 42.1202 61.0186 42.1202 61.8584C42.1202 62.307 41.902 62.6011 41.4472 62.6011C40.9925 62.6011 40.7803 62.2979 40.7803 61.8584V61.6856H41.0834V61.8735C41.0834 62.1433 41.1956 62.301 41.4321 62.301C41.6685 62.301 41.7807 62.1433 41.7807 61.8735C41.7807 61.2096 40.7863 61.1459 40.7863 60.3092C40.7863 59.8484 40.9985 59.5635 41.4472 59.5635C41.8959 59.5635 42.1051 59.8454 42.1051 60.3092Z" fill="#CCCCCC"/>
<path d="M43.0601 62.5587V59.5816H43.3905V62.2585H44.2424V62.5617L43.0601 62.5587Z" fill="#CCCCCC"/>
<path d="M44.8244 59.5816V62.5587H44.491V59.5816H44.8244Z" fill="#CCCCCC"/>
<path d="M45.4582 62.5587H45.155V59.5816H45.5734L46.2646 61.7341V59.5816H46.5677V62.5587H46.2221L45.4612 60.1516L45.4582 62.5587Z" fill="#CCCCCC"/>
<path d="M47.9624 60.9155V61.2187H47.2348V62.2798H48.1291V62.5829H46.9165V59.5816H48.1291V59.8848H47.2348V60.9155H47.9624Z" fill="#CCCCCC"/>
<path d="M49.7023 60.1213C49.5782 60.1985 49.4361 60.2424 49.29 60.2486V59.9788C49.4076 59.9811 49.5224 59.9429 49.6152 59.8706C49.7079 59.7983 49.7729 59.6962 49.7993 59.5816H50.0297V62.5587H49.7023V60.1213Z" fill="#CCCCCC"/>
<path d="M31.2008 71.526L31.0856 72.1324H30.7825L31.3554 69.1554H31.8344L32.4044 72.1324H32.0709L31.9557 71.526H31.2008ZM31.2433 71.2411H31.9072L31.5707 69.5222L31.2433 71.2411Z" fill="#CCCCCC"/>
<path d="M33.3594 69.1554C33.8232 69.1554 34.0354 69.4343 34.0354 69.8951V71.3957C34.0354 71.8504 33.8232 72.1324 33.3594 72.1324H32.6621V69.1554H33.3594ZM33.3594 71.8292C33.5989 71.8292 33.7141 71.6807 33.7141 71.4078V69.8769C33.7141 69.604 33.5989 69.4555 33.3563 69.4555H32.9986V71.8292H33.3594Z" fill="#CCCCCC"/>
<path d="M35.0417 69.1554C35.5056 69.1554 35.7178 69.4343 35.7178 69.8951V71.3957C35.7178 71.8504 35.5056 72.1324 35.0417 72.1324H34.3445V69.1554H35.0417ZM35.0417 71.8292C35.2782 71.8292 35.3934 71.6807 35.3934 71.4078V69.8769C35.3934 69.604 35.2782 69.4555 35.0357 69.4555H34.678V71.8292H35.0417Z" fill="#CCCCCC"/>
<path d="M36.6937 69.1554C37.1606 69.1554 37.3546 69.3918 37.3546 69.8344V70.077C37.3546 70.4044 37.2424 70.6105 36.9847 70.6833C37.2576 70.7651 37.3606 70.9864 37.3606 71.3047V71.7686C37.3508 71.8907 37.3705 72.0134 37.4182 72.1263H37.0848C37.0362 72.0126 37.0164 71.8887 37.0272 71.7655V71.2956C37.0272 70.9591 36.8695 70.853 36.5937 70.853H36.3602V72.1324H36.0298V69.1554H36.6937ZM36.6058 70.559C36.8695 70.559 37.0272 70.4741 37.0272 70.1497V69.8647C37.0272 69.5949 36.9302 69.4555 36.6846 69.4555H36.3602V70.559H36.6058Z" fill="#CCCCCC"/>
<path d="M38.7644 70.4741V70.7772H38.0368V71.8292H38.9311V72.1324H37.7185V69.1554H38.9311V69.4585H38.0368V70.4771L38.7644 70.4741Z" fill="#CCCCCC"/>
<path d="M40.5289 69.8678V69.9496H40.2257V69.8526C40.2257 69.5828 40.1227 69.4252 39.8832 69.4252C39.6437 69.4252 39.5436 69.5828 39.5436 69.8466C39.5436 70.5165 40.5441 70.5802 40.5441 71.4169C40.5441 71.8686 40.3258 72.1627 39.871 72.1627C39.4163 72.1627 39.2041 71.8595 39.2041 71.4169V71.2471H39.5073V71.4351C39.5073 71.7019 39.6194 71.8595 39.8559 71.8595C40.0924 71.8595 40.2076 71.7019 40.2076 71.4351C40.2076 70.7712 39.2102 70.7075 39.2102 69.8678C39.2102 69.41 39.4224 69.125 39.871 69.125C40.3197 69.125 40.5289 69.4191 40.5289 69.8678Z" fill="#CCCCCC"/>
<path d="M42.1051 69.8678V69.9496H41.8019V69.8526C41.8019 69.5828 41.6988 69.4252 41.4593 69.4252C41.2199 69.4252 41.1198 69.5828 41.1198 69.8466C41.1198 70.5165 42.1202 70.5802 42.1202 71.4169C42.1202 71.8686 41.902 72.1627 41.4472 72.1627C40.9925 72.1627 40.7803 71.8595 40.7803 71.4169V71.2471H41.0834V71.4351C41.0834 71.7019 41.1956 71.8595 41.4321 71.8595C41.6685 71.8595 41.7807 71.7019 41.7807 71.4351C41.7807 70.7712 40.7863 70.7075 40.7863 69.8678C40.7863 69.41 40.9985 69.125 41.4472 69.125C41.8959 69.125 42.1051 69.4191 42.1051 69.8678Z" fill="#CCCCCC"/>
<path d="M43.0601 72.1324V69.1554H43.3905V71.8292H44.2424V72.1324H43.0601Z" fill="#CCCCCC"/>
<path d="M44.8244 69.1554V72.1324H44.491V69.1554H44.8244Z" fill="#CCCCCC"/>
<path d="M45.4582 72.1324H45.155V69.1554H45.5734L46.2646 71.3078V69.1554H46.5677V72.1324H46.2221L45.4612 69.7253L45.4582 72.1324Z" fill="#CCCCCC"/>
<path d="M47.9624 70.4741V70.7772H47.2348V71.8292H48.1291V72.1324H46.9165V69.1554H48.1291V69.4585H47.2348V70.4771L47.9624 70.4741Z" fill="#CCCCCC"/>
<path d="M50.433 69.8769C50.433 70.7863 49.4265 71.0895 49.4204 71.7837V71.8292H50.3996V72.1324H49.093V71.8777C49.093 70.9167 50.1025 70.7287 50.1025 69.889C50.1025 69.5858 49.9995 69.4221 49.7539 69.4221C49.5083 69.4221 49.4053 69.5949 49.4053 69.8617V70.1255H49.1021V69.8829C49.1021 69.4252 49.3113 69.125 49.7691 69.125C50.2268 69.125 50.433 69.4221 50.433 69.8769Z" fill="#CCCCCC"/>
<path d="M31.331 80.9239V78.2501H30.7793V77.9469H32.2072V78.2501H31.6585V80.9239H31.331Z" fill="#CCCCCC"/>
<path d="M32.4043 78.6684C32.4043 78.2137 32.6317 77.9196 33.0864 77.9196C33.5411 77.9196 33.7715 78.2228 33.7715 78.6684V80.2085C33.7856 80.3046 33.7782 80.4027 33.7497 80.4956C33.7212 80.5885 33.6724 80.6739 33.6068 80.7455C33.5412 80.8172 33.4604 80.8734 33.3704 80.9101C33.2804 80.9467 33.1834 80.9628 33.0864 80.9573C32.6317 80.9573 32.4043 80.6541 32.4043 80.2085V78.6684ZM32.7317 80.2267C32.7317 80.4995 32.8469 80.6571 33.0864 80.6571C33.3259 80.6571 33.4381 80.4995 33.4381 80.2267V78.6533C33.4381 78.3835 33.3289 78.2228 33.0864 78.2228C32.8439 78.2228 32.7317 78.3835 32.7317 78.6533V80.2267Z" fill="#CCCCCC"/>
<path d="M34.8782 80.9239H34.4204L34.0142 77.9469H34.3355L34.6841 80.4813L35.0176 77.95H35.345L35.6724 80.4874L36.0089 77.9469H36.2848L35.8937 80.9239H35.4542L35.1692 78.9049L34.8782 80.9239Z" fill="#CCCCCC"/>
<path d="M36.8574 80.9239H36.5542V77.9469H36.9756L37.6638 80.0993V77.9469H37.9669V80.9239H37.6183L36.8574 78.5169V80.9239Z" fill="#CCCCCC"/>
<path d="M39.6649 77.95L38.4916 80.9239H38.1885L39.3647 77.9469L39.6649 77.95Z" fill="#CCCCCC"/>
<path d="M41.2167 78.6684V78.9383H40.9135V78.6533C40.9135 78.3835 40.8074 78.2228 40.5649 78.2228C40.3223 78.2228 40.2162 78.3835 40.2162 78.6533V80.2267C40.2162 80.4934 40.3284 80.6571 40.5649 80.6571C40.8013 80.6571 40.9135 80.4934 40.9135 80.2267V79.8386H41.2167V80.2085C41.2167 80.6602 41.0045 80.9573 40.5467 80.9573C40.0889 80.9573 39.8767 80.6541 39.8767 80.2085V78.6684C39.8767 78.2167 40.0889 77.9196 40.5467 77.9196C41.0045 77.9196 41.2167 78.2167 41.2167 78.6684Z" fill="#CCCCCC"/>
<path d="M41.8505 77.95V80.9239H41.52V77.9469L41.8505 77.95Z" fill="#CCCCCC"/>
<path d="M42.6207 80.9239V78.2501H42.072V77.9469H43.4969V78.2501H42.9542V80.9239H42.6207Z" fill="#CCCCCC"/>
<path d="M44.2486 79.8598L43.6211 77.9499H43.9637L44.4275 79.4142L44.8974 77.9499H45.2005L44.5639 79.8598V80.9239H44.2365L44.2486 79.8598Z" fill="#CCCCCC"/>
<path d="M31.4341 87.6965C31.904 87.6965 32.101 87.9724 32.101 88.4241V88.7818C32.101 89.2547 31.8827 89.5003 31.4098 89.5003H31.1067V90.6765H30.7732V87.6965H31.4341ZM31.4098 89.2123C31.6554 89.2123 31.7736 89.0971 31.7736 88.8121V88.418C31.7736 88.1452 31.6766 88.0087 31.4341 88.0087H31.1158V89.2214L31.4098 89.2123Z" fill="#CCCCCC"/>
<path d="M32.6891 89.3366V90.6765H32.3586V87.6965H32.6891V89.0364H33.4227V87.6965H33.7532V90.6765H33.4227V89.3366H32.6891Z" fill="#CCCCCC"/>
<path d="M34.0686 88.4149C34.0686 87.9602 34.2929 87.6661 34.7477 87.6661C35.2024 87.6661 35.4328 87.9693 35.4328 88.4149V89.955C35.4328 90.4067 35.2085 90.7038 34.7477 90.7038C34.2869 90.7038 34.0686 90.4006 34.0686 89.955V88.4149ZM34.396 89.9732C34.396 90.246 34.5112 90.4037 34.7477 90.4037C34.9841 90.4037 35.1024 90.246 35.1024 89.9732V88.3998C35.1024 88.13 34.9902 87.9693 34.7477 87.9693C34.5051 87.9693 34.396 88.13 34.396 88.3998V89.9732Z" fill="#CCCCCC"/>
<path d="M36.0422 90.6765H35.739V87.6965H36.1604L36.8486 89.8489V87.6965H37.1517V90.6765H36.8061L36.0452 88.2664L36.0422 90.6765Z" fill="#CCCCCC"/>
<path d="M38.5462 89.0152V89.3184H37.8187V90.3794H38.7099V90.6826H37.4973V87.7025H38.7099V88.0057H37.8156V89.0213L38.5462 89.0152Z" fill="#CCCCCC"/>
<path d="M39.9711 90.6765H39.668V87.6965H40.0894L40.7775 89.8489V87.6965H41.0807V90.6765H40.7351L39.9742 88.2664L39.9711 90.6765Z" fill="#CCCCCC"/>
<path d="M41.7414 89.9732C41.7414 90.24 41.8475 90.4037 42.0901 90.4037C42.3326 90.4037 42.4357 90.24 42.4357 89.9732V87.6965H42.7388V89.955C42.7388 90.4067 42.5296 90.7099 42.0719 90.7099C41.6141 90.7099 41.408 90.4067 41.408 89.955V87.6965H41.7414V89.9732Z" fill="#CCCCCC"/>
<path d="M44.1669 90.6705H43.8637L43.3696 88.3028V90.6765H43.0664V87.6965H43.5272L44.0183 90.0763L44.4913 87.6965H44.9551V90.6765H44.6519V88.2785L44.1669 90.6705Z" fill="#CCCCCC"/>
<path d="M45.9553 87.6965C46.4191 87.6965 46.601 87.9178 46.601 88.3574V88.5029C46.601 88.806 46.5131 89.0122 46.2524 89.094C46.5555 89.1759 46.6525 89.3972 46.6525 89.7337V89.9823C46.6681 90.0759 46.6615 90.1718 46.6332 90.2624C46.6049 90.353 46.5558 90.4357 46.4897 90.5038C46.4237 90.5719 46.3425 90.6236 46.2529 90.6546C46.1632 90.6857 46.0675 90.6953 45.9735 90.6826H45.2883V87.7025L45.9553 87.6965ZM45.8734 88.9607C46.1372 88.9607 46.2736 88.8758 46.2736 88.5665V88.3907C46.2736 88.127 46.1857 87.9996 45.9462 87.9996H45.6188V88.9607H45.8734ZM45.9735 90.3734C46.216 90.3734 46.3251 90.246 46.3251 89.9702V89.7155C46.3251 89.382 46.1948 89.2729 45.9098 89.2729H45.6066V90.3825L45.9735 90.3734Z" fill="#CCCCCC"/>
<path d="M48.0139 89.0152V89.3184H47.2863V90.3794H48.1958V90.6826H46.9832V87.7025H48.1958V88.0057H47.2863V89.0213L48.0139 89.0152Z" fill="#CCCCCC"/>
<path d="M49.1505 87.6965C49.6174 87.6965 49.8114 87.936 49.8114 88.3786V88.6211C49.8114 88.9485 49.6992 89.1516 49.4415 89.2274C49.7144 89.3063 49.8174 89.5306 49.8174 89.8337V90.3218C49.8075 90.444 49.8273 90.5667 49.875 90.6795H49.5416C49.4934 90.5647 49.4737 90.4399 49.484 90.3158V89.8489C49.484 89.5124 49.3263 89.4063 49.0504 89.4063H48.817V90.6795H48.4866V87.6995L49.1505 87.6965ZM49.0626 89.1001C49.3263 89.1001 49.484 89.0152 49.484 88.6939V88.4089C49.484 88.1391 49.387 87.9996 49.1414 87.9996H48.817V89.1092L49.0626 89.1001Z" fill="#CCCCCC"/>
<path d="M81.6915 77.95C82.1614 77.95 82.3615 78.2258 82.3615 78.6775V79.0353C82.3615 79.5082 82.1402 79.7538 81.6673 79.7538H81.3641V80.9239H81.0337V77.9469L81.6915 77.95ZM81.6673 79.4657C81.9129 79.4657 82.0311 79.3505 82.0311 79.0656V78.6684C82.0311 78.3986 81.9341 78.2622 81.6915 78.2622H81.3884V79.4748L81.6673 79.4657Z" fill="#CCCCCC"/>
<path d="M82.595 78.6684C82.595 78.2137 82.8193 77.9196 83.274 77.9196C83.7288 77.9196 83.9592 78.2228 83.9592 78.6684V80.2085C83.9592 80.6602 83.7348 80.9573 83.274 80.9573C82.8132 80.9573 82.595 80.6541 82.595 80.2085V78.6684ZM82.9224 80.2267C82.9224 80.4995 83.0376 80.6571 83.274 80.6571C83.5105 80.6571 83.6287 80.4995 83.6287 80.2267V78.6533C83.6287 78.3835 83.5166 78.2228 83.274 78.2228C83.0315 78.2228 82.9224 78.3835 82.9224 78.6533V80.2267Z" fill="#CCCCCC"/>
<path d="M85.5631 78.6654V78.7442H85.2599V78.6472C85.2599 78.3804 85.1568 78.2228 84.9204 78.2228C84.6839 78.2228 84.5809 78.3804 84.5809 78.6442C84.5809 79.3111 85.5782 79.3748 85.5782 80.2145C85.5782 80.6632 85.363 80.9573 84.9083 80.9573C84.4535 80.9573 84.2383 80.6541 84.2383 80.2145V80.0448H84.5414V80.2297C84.5414 80.4995 84.6506 80.6571 84.8901 80.6571C85.1296 80.6571 85.2387 80.4995 85.2387 80.2297C85.2387 79.5658 84.2413 79.5021 84.2413 78.6654C84.2413 78.2046 84.4566 77.9196 84.9022 77.9196C85.3478 77.9196 85.5631 78.2137 85.5631 78.6654Z" fill="#CCCCCC"/>
<path d="M86.2846 80.9239V78.2501H85.7358V77.9469H87.1607V78.2501H86.6089V80.9239H86.2846Z" fill="#CCCCCC"/>
<path d="M89.3612 78.6684V78.9383H89.058V78.6533C89.058 78.3835 88.9519 78.2228 88.7094 78.2228C88.4669 78.2228 88.3608 78.3835 88.3608 78.6533V80.2267C88.3608 80.4934 88.4699 80.6571 88.7094 80.6571C88.9489 80.6571 89.058 80.4934 89.058 80.2267V79.8386H89.3612V80.2085C89.3612 80.6602 89.1459 80.9573 88.6882 80.9573C88.2304 80.9573 88.0212 80.6541 88.0212 80.2085V78.6684C88.0212 78.2167 88.2334 77.9196 88.6882 77.9196C89.1429 77.9196 89.3612 78.2167 89.3612 78.6684Z" fill="#CCCCCC"/>
<path d="M89.6401 78.6684C89.6401 78.2137 89.8645 77.9196 90.3192 77.9196C90.7739 77.9196 91.0043 78.2228 91.0043 78.6684V80.2085C91.0043 80.6602 90.78 80.9573 90.3192 80.9573C89.8584 80.9573 89.6401 80.6541 89.6401 80.2085V78.6684ZM89.9675 80.2267C89.9675 80.4995 90.0827 80.6571 90.3192 80.6571C90.5557 80.6571 90.6739 80.4995 90.6739 80.2267V78.6533C90.6739 78.3835 90.5617 78.2228 90.3192 78.2228C90.0767 78.2228 89.9675 78.3835 89.9675 78.6533V80.2267Z" fill="#CCCCCC"/>
<path d="M92.0142 77.9499C92.478 77.9499 92.6902 78.2319 92.6902 78.6896V80.2054C92.6902 80.6602 92.478 80.9391 92.0142 80.9391H91.3169V77.9621L92.0142 77.9499ZM92.0142 80.6268C92.2506 80.6268 92.3658 80.4783 92.3658 80.2054V78.6745C92.3658 78.4016 92.2506 78.2531 92.0081 78.2531H91.6504V80.6208L92.0142 80.6268Z" fill="#CCCCCC"/>
<path d="M94.0603 79.2687V79.5719H93.3327V80.6208H94.2271V80.9239H92.9993V77.9469H94.2271V78.2501H93.3327V79.2657L94.0603 79.2687Z" fill="#CCCCCC"/>
<path d="M171.708 22.7571H26.053V31.8124H171.708V22.7571Z" fill="#951C3F" stroke="#333333" stroke-linecap="round" stroke-linejoin="round"/>
<path d="M92.672 25.346H71.7178V31.8124H92.672V25.346Z" fill="white" stroke="#333333" stroke-linecap="round" stroke-linejoin="round"/>
<path d="M115.954 25.346H95.0002V31.8124H115.954V25.346Z" fill="white" stroke="#333333" stroke-linecap="round" stroke-linejoin="round"/>
<path d="M139.24 25.346H118.286V31.8124H139.24V25.346Z" fill="white" stroke="#333333" stroke-linecap="round" stroke-linejoin="round"/>
<path d="M162.523 25.346H141.568V31.8124H162.523V25.346Z" fill="white" stroke="#333333" stroke-linecap="round" stroke-linejoin="round"/>
<path d="M153.785 113.789H44.7424V119.161H153.785V113.789Z" fill="#333333" stroke="#333333" stroke-linecap="round" stroke-linejoin="round"/>
<path d="M153.785 116.375H44.7424V119.161H153.785V116.375Z" fill="white" stroke="#333333" stroke-linecap="round" stroke-linejoin="round"/>
<path d="M6.73901 122.344C6.73901 122.344 8.52764 124.533 13.8996 126.325H184.626C184.626 126.325 188.606 125.33 190.386 122.544L6.73901 122.344Z" fill="#333333" stroke="#333333" stroke-linecap="round" stroke-linejoin="round"/>
<path d="M190.21 118.425H6.94504C6.6286 118.425 6.37207 118.681 6.37207 118.998V122.035C6.37207 122.352 6.6286 122.608 6.94504 122.608H190.21C190.526 122.608 190.783 122.352 190.783 122.035V118.998C190.783 118.681 190.526 118.425 190.21 118.425Z" fill="#969696" stroke="#333333" stroke-miterlimit="10"/>
<path d="M100.251 18.8767C100.251 18.6015 100.169 18.3324 100.016 18.1036C99.8631 17.8748 99.6458 17.6964 99.3915 17.5911C99.1373 17.4858 98.8575 17.4582 98.5876 17.5119C98.3176 17.5656 98.0697 17.6981 97.8751 17.8927C97.6805 18.0873 97.548 18.3353 97.4943 18.6052C97.4406 18.8751 97.4681 19.1549 97.5735 19.4092C97.6788 19.6634 97.8571 19.8808 98.0859 20.0337C98.3148 20.1866 98.5838 20.2682 98.859 20.2682C99.2281 20.2682 99.582 20.1216 99.843 19.8606C100.104 19.5997 100.251 19.2457 100.251 18.8767Z" fill="#333333" stroke="#333333" stroke-linecap="round" stroke-linejoin="round"/>
<path d="M21.0632 44.7421C20.9578 44.7421 20.8568 44.7002 20.7823 44.6258C20.7079 44.5513 20.666 44.4503 20.666 44.345V32.8037C20.6692 32.7005 20.7124 32.6026 20.7865 32.5307C20.8607 32.4589 20.9599 32.4187 21.0632 32.4187C21.1688 32.4187 21.2701 32.4605 21.345 32.5349C21.42 32.6093 21.4625 32.7103 21.4633 32.8159V44.3571C21.4602 44.4608 21.4165 44.5592 21.3417 44.6312C21.2669 44.7031 21.1669 44.7429 21.0632 44.7421Z" fill="#333333"/>
<path d="M158.275 36.8721H138.479C138.236 36.8721 138.039 37.0689 138.039 37.3117V49.4289C138.039 49.6717 138.236 49.8685 138.479 49.8685H158.275C158.518 49.8685 158.715 49.6717 158.715 49.4289V37.3117C158.715 37.0689 158.518 36.8721 158.275 36.8721Z" fill="#ADADAD"/>
<path d="M157.126 38.0938H153.216V40.9677H157.126V38.0938Z" fill="white"/>
<path d="M140.222 44.4177H142.636" stroke="white" stroke-miterlimit="10"/>
<path d="M140.222 39.2428H142.636" stroke="white" stroke-miterlimit="10"/>
<path d="M140.222 47.7524H142.636" stroke="white" stroke-miterlimit="10"/>
<path d="M144.015 47.7524H146.431" stroke="white" stroke-miterlimit="10"/>
<path d="M143.787 44.4177H146.2" stroke="white" stroke-miterlimit="10"/>
<path d="M147.353 44.4177H149.766" stroke="white" stroke-miterlimit="10"/>
<path d="M150.915 44.4177H153.331" stroke="white" stroke-miterlimit="10"/>
<path d="M154.479 44.4177H156.896" stroke="white" stroke-miterlimit="10"/>
<path d="M127.277 107.294C127.277 107.294 120.903 103.318 122.009 103.132C123.115 102.946 140.22 103.598 141.699 103.78C143.178 103.963 148.077 104.522 148.721 104.798C149.366 105.073 155.93 107.387 160.092 107.756C164.253 108.124 168.602 107.849 169.335 108.218C170.068 108.586 172.848 111.459 172.2 112.468C171.552 113.477 169.797 113.765 169.797 113.765L156.117 115.244C156.117 115.244 153.9 112.655 152.141 111.913C150.383 111.172 138.554 107.662 135.227 107.662C131.901 107.662 127.277 107.294 127.277 107.294Z" fill="#333333" stroke="#333333" stroke-miterlimit="10"/>
<path d="M125.709 114.689C125.709 114.689 119.691 126.149 113.415 130.399C113.415 130.399 112.397 130.772 114.245 130.772C116.093 130.772 121.827 124.576 123.675 122.36C125.523 120.143 127.464 118.753 129.867 118.753H133.38L125.709 114.689Z" fill="#333333" stroke="#333333" stroke-miterlimit="10"/>
<path d="M131.625 124.487C129.101 124.486 126.635 125.234 124.536 126.635C122.438 128.037 120.802 130.029 119.836 132.36C118.87 134.691 118.617 137.256 119.109 139.731C119.601 142.206 120.816 144.479 122.601 146.264C124.385 148.048 126.658 149.263 129.133 149.755C131.608 150.247 134.173 149.994 136.504 149.028C138.835 148.062 140.828 146.427 142.229 144.328C143.63 142.23 144.378 139.763 144.377 137.24C144.377 133.857 143.033 130.614 140.642 128.222C138.25 125.831 135.007 124.487 131.625 124.487ZM131.625 144.546C130.182 144.546 128.772 144.118 127.572 143.316C126.373 142.515 125.438 141.376 124.886 140.043C124.334 138.71 124.189 137.244 124.471 135.829C124.752 134.414 125.447 133.114 126.467 132.094C127.487 131.074 128.787 130.379 130.202 130.098C131.617 129.816 133.083 129.961 134.416 130.513C135.749 131.065 136.888 132 137.689 133.199C138.491 134.399 138.919 135.809 138.919 137.252C138.919 139.186 138.15 141.041 136.782 142.409C135.414 143.777 133.559 144.546 131.625 144.546Z" fill="#333333" stroke="#333333" stroke-miterlimit="10"/>
<path d="M131.625 131.972C130.583 131.972 129.564 132.281 128.698 132.859C127.832 133.438 127.156 134.261 126.758 135.224C126.359 136.186 126.255 137.245 126.458 138.267C126.661 139.289 127.163 140.228 127.9 140.965C128.636 141.701 129.575 142.203 130.597 142.406C131.619 142.61 132.678 142.505 133.641 142.106C134.603 141.708 135.426 141.033 136.005 140.166C136.583 139.3 136.892 138.281 136.892 137.24C136.892 135.842 136.337 134.503 135.35 133.515C134.362 132.527 133.022 131.972 131.625 131.972ZM131.625 140.258C131.027 140.259 130.443 140.083 129.946 139.752C129.449 139.42 129.062 138.949 128.833 138.398C128.603 137.846 128.543 137.239 128.659 136.653C128.775 136.067 129.062 135.529 129.484 135.106C129.906 134.684 130.444 134.396 131.03 134.279C131.616 134.162 132.223 134.222 132.775 134.45C133.327 134.678 133.798 135.065 134.13 135.562C134.462 136.058 134.639 136.642 134.639 137.24C134.639 138.04 134.322 138.807 133.757 139.373C133.191 139.939 132.425 140.257 131.625 140.258Z" fill="#333333" stroke="#333333" stroke-miterlimit="10"/>
<path d="M131.625 128.09C129.815 128.087 128.044 128.622 126.538 129.626C125.032 130.63 123.857 132.058 123.163 133.73C122.468 135.401 122.285 137.241 122.637 139.017C122.989 140.793 123.859 142.424 125.138 143.705C126.417 144.986 128.048 145.859 129.823 146.213C131.598 146.567 133.439 146.386 135.111 145.694C136.784 145.002 138.214 143.829 139.22 142.324C140.226 140.819 140.762 139.05 140.762 137.24C140.764 134.815 139.802 132.489 138.088 130.773C136.374 129.057 134.05 128.092 131.625 128.09ZM131.625 144.546C130.182 144.546 128.772 144.118 127.572 143.316C126.373 142.515 125.438 141.376 124.886 140.043C124.334 138.71 124.189 137.244 124.471 135.829C124.752 134.414 125.447 133.114 126.467 132.094C127.487 131.074 128.787 130.379 130.202 130.098C131.617 129.816 133.083 129.961 134.416 130.513C135.749 131.065 136.888 132 137.689 133.199C138.491 134.399 138.919 135.809 138.919 137.252C138.919 139.186 138.15 141.041 136.782 142.409C135.414 143.777 133.559 144.546 131.625 144.546Z" fill="#FCCFBA" stroke="#333333" stroke-miterlimit="10"/>
<path d="M137.355 119.495L133.748 129.293L135.414 129.937L139.109 120.139L137.355 119.495Z" fill="#333333" stroke="#333333" stroke-miterlimit="10"/>
<path d="M133.749 129.293C133.749 129.293 129.96 127.628 126.908 129.937C123.857 132.247 123.488 135.1 123.488 135.1C123.488 135.1 128.294 138.609 134.579 139.152C140.864 139.695 147.242 138.783 150.383 137.86C152.307 137.288 154.165 136.514 155.926 135.55L148.162 127.04C148.162 127.04 147.056 125.468 144.467 126.947C141.877 128.426 141.784 130.367 141.784 130.367L133.749 129.293Z" fill="#333333" stroke="#333333" stroke-miterlimit="10"/>
<path d="M139.109 120.139L136.431 130.031L144.195 133.544C144.112 132.414 144.368 131.285 144.932 130.302C145.856 128.823 147.06 128.912 147.335 129.087C147.611 129.261 149.276 130.104 149.276 130.104L148.539 124.281L139.109 120.139Z" fill="#333333" stroke="#333333" stroke-miterlimit="10"/>
<path d="M208.346 124.487C205.823 124.486 203.356 125.234 201.257 126.635C199.159 128.037 197.523 130.029 196.557 132.36C195.591 134.691 195.338 137.256 195.83 139.731C196.322 142.206 197.537 144.479 199.322 146.264C201.106 148.048 203.379 149.263 205.854 149.755C208.329 150.247 210.894 149.994 213.225 149.028C215.556 148.062 217.549 146.427 218.95 144.328C220.351 142.23 221.099 139.763 221.098 137.24C221.098 135.565 220.768 133.907 220.128 132.359C219.487 130.812 218.547 129.406 217.363 128.222C216.179 127.038 214.773 126.099 213.226 125.458C211.679 124.817 210.021 124.487 208.346 124.487ZM208.346 144.546C206.903 144.546 205.493 144.118 204.294 143.316C203.094 142.515 202.159 141.376 201.607 140.043C201.055 138.71 200.911 137.244 201.192 135.829C201.473 134.414 202.168 133.114 203.188 132.094C204.208 131.074 205.508 130.379 206.923 130.098C208.338 129.816 209.804 129.961 211.137 130.513C212.47 131.065 213.609 132 214.411 133.199C215.212 134.399 215.64 135.809 215.64 137.252C215.64 139.186 214.871 141.041 213.504 142.409C212.136 143.777 210.28 144.546 208.346 144.546Z" fill="#333333" stroke="#333333" stroke-miterlimit="10"/>
<path d="M208.346 131.972C207.304 131.972 206.285 132.281 205.419 132.859C204.553 133.438 203.878 134.261 203.479 135.224C203.08 136.186 202.976 137.245 203.179 138.267C203.382 139.289 203.884 140.228 204.621 140.965C205.358 141.701 206.296 142.203 207.318 142.406C208.34 142.61 209.399 142.505 210.362 142.106C211.324 141.708 212.147 141.033 212.726 140.166C213.305 139.3 213.614 138.281 213.614 137.24C213.614 135.842 213.059 134.503 212.071 133.515C211.083 132.527 209.743 131.972 208.346 131.972ZM208.346 140.258C207.749 140.259 207.164 140.083 206.667 139.752C206.17 139.42 205.783 138.949 205.554 138.398C205.325 137.846 205.264 137.239 205.38 136.653C205.496 136.067 205.784 135.529 206.206 135.106C206.628 134.684 207.166 134.396 207.751 134.279C208.337 134.162 208.944 134.222 209.496 134.45C210.048 134.678 210.52 135.065 210.852 135.562C211.183 136.058 211.361 136.642 211.361 137.24C211.361 138.04 211.043 138.807 210.478 139.373C209.913 139.939 209.146 140.257 208.346 140.258Z" fill="#333333" stroke="#333333" stroke-miterlimit="10"/>
<path d="M208.345 128.09C206.536 128.09 204.767 128.626 203.262 129.632C201.757 130.637 200.585 132.066 199.892 133.738C199.2 135.41 199.018 137.25 199.371 139.025C199.724 140.8 200.596 142.43 201.876 143.71C203.155 144.989 204.786 145.861 206.56 146.214C208.335 146.567 210.175 146.386 211.847 145.693C213.519 145 214.948 143.828 215.953 142.323C216.959 140.818 217.495 139.049 217.495 137.24C217.495 134.813 216.531 132.486 214.815 130.77C213.099 129.054 210.772 128.09 208.345 128.09ZM208.345 144.546C206.903 144.546 205.493 144.118 204.293 143.316C203.094 142.515 202.159 141.376 201.607 140.043C201.055 138.71 200.91 137.244 201.192 135.829C201.473 134.414 202.168 133.114 203.188 132.094C204.208 131.074 205.508 130.379 206.922 130.098C208.337 129.816 209.804 129.961 211.137 130.513C212.47 131.065 213.609 132 214.41 133.199C215.212 134.399 215.639 135.809 215.639 137.252C215.639 139.186 214.871 141.041 213.503 142.409C212.135 143.777 210.28 144.546 208.345 144.546Z" fill="#FCCFBA" stroke="#333333" stroke-miterlimit="10"/>
<path d="M196.643 125.375L206.704 128.471C206.704 128.471 212.122 124.378 218.31 125.816C218.31 125.816 216.102 119.515 202.17 118.409L196.643 125.375Z" fill="#951C3F" stroke="#333333" stroke-miterlimit="10"/>
<path d="M206.996 137.24L198.325 122.133L200.051 121.144L208.723 136.263C208.824 136.447 208.849 136.663 208.794 136.866C208.739 137.068 208.607 137.242 208.427 137.349L208.078 137.548C207.893 137.646 207.677 137.669 207.475 137.612C207.274 137.554 207.102 137.421 206.996 137.24Z" fill="#6E6E6E" stroke="#333333" stroke-miterlimit="10"/>
<path d="M187.728 97.775C187.728 97.775 195.861 101.657 198.081 103.318C200.302 104.98 204.828 108.586 205.566 109.603C206.303 110.621 208.431 113.947 207.693 115.058C206.956 116.168 206.478 116.812 206.028 117.084C205.578 117.355 203.442 117.728 202.425 118.932C201.408 120.135 192.903 133.629 192.903 133.629C192.903 133.629 189.855 138.528 189.389 138.528C188.923 138.528 183.566 140.469 176.73 140.19C169.894 139.91 161.664 138.066 160.185 137.973C158.706 137.88 157.04 137.049 156.392 136.676C155.744 136.304 153.9 135.108 151.217 132.332C148.535 129.557 146.78 128.637 146.967 125.123C146.967 125.123 125.895 115.88 124.874 114.863C123.853 113.846 121.454 109.133 122.471 108.303C123.488 107.472 127.739 106.544 133.1 107.192C138.461 107.841 150.2 110.519 152.51 112.092C153.843 112.979 155.055 114.036 156.117 115.236L169.797 113.757L170.628 115.244C170.628 115.244 165.728 121.618 165.728 122.08C165.728 122.542 171.183 131.696 171.183 131.696C171.183 131.696 168.318 132.065 166.284 132.158C164.249 132.251 162.495 132.527 162.495 132.527C162.495 132.527 180.612 133.544 183.477 133.358C186.342 133.171 188.19 130.116 188.652 128.92C189.114 127.725 187.91 121.898 188.927 118.385C189.944 114.871 191.241 112.562 189.855 110.159C188.469 107.756 183.659 102.395 183.659 100.838C183.659 99.2824 187.728 97.775 187.728 97.775Z" fill="#951C3F" stroke="#333333" stroke-miterlimit="10"/>
<path d="M187.728 97.775C187.728 97.775 182.367 100.915 182.367 101.471C182.367 102.026 186.898 110.714 187.542 112.562C188.186 114.409 186.249 126.517 185.787 127.814C185.325 129.111 182.643 131.866 182.643 131.866L171.183 131.684L169.015 132.17L166.284 132.146C166.284 132.146 163.144 130.667 162.588 130.574C162.033 130.48 152.142 127.891 150.756 128.726C149.37 129.561 149.832 130.574 150.387 130.752C150.942 130.93 171.276 134.634 171.738 134.634C172.2 134.634 182.367 136.295 185.881 135.003C189.394 133.71 192.81 128.718 193.551 127.052L194.289 125.391L191.242 122.708C191.242 122.708 191.331 120.119 191.886 118.733C192.441 117.347 194.289 113.19 193.738 111.711C193.187 110.232 185.338 102.119 185.419 100.915C185.5 99.712 187.728 97.775 187.728 97.775Z" fill="#333333" stroke="#333333" stroke-miterlimit="10"/>
<path d="M188.838 125.225C187.837 125.504 186.836 126.286 185.949 127.194C185.884 127.482 185.827 127.693 185.787 127.814C185.325 129.107 182.642 131.866 182.642 131.866L171.183 131.684L169.015 132.17L166.284 132.146C165.231 132.396 164.201 132.732 163.204 133.151C167.625 133.961 171.539 134.642 171.738 134.642C172.2 134.642 182.367 136.304 185.88 135.011C189.393 133.718 192.809 128.726 193.551 127.06L194.288 125.399C192.532 124.789 190.63 124.728 188.838 125.225Z" fill="#333333" stroke="#333333" stroke-miterlimit="10"/>
<path d="M188.376 89.6382C188.376 89.6382 183.566 87.8835 181.812 88.621C180.057 89.3586 177.192 91.6724 176.819 93.2446C176.447 94.8169 177.192 95.5544 178.392 96.6647C179.591 97.775 182.829 101.284 182.829 101.284L187.728 97.775L188.376 96.9403C188.376 96.9403 190.686 96.296 190.779 95.834C190.844 94.4312 190.688 93.0269 190.317 91.6724C190.191 91.1972 189.947 90.7617 189.608 90.406C189.269 90.0504 188.845 89.7863 188.376 89.6382Z" fill="#951C3F" stroke="#333333" stroke-miterlimit="10"/>
<path d="M188.173 90.0109C188.173 90.0109 187.363 91.5791 187.987 92.6895C188.611 93.7998 190.013 96.847 190.39 95.9312C190.767 95.0154 190.208 92.0492 189.58 91.2185C189.198 90.7241 188.72 90.3131 188.173 90.0109Z" fill="#FCCFBA" stroke="#333333" stroke-miterlimit="10"/>
<path d="M179.83 98.1032C181.208 99.5256 182.829 101.284 182.829 101.284L187.728 97.775L188.376 96.9402C189.044 96.7531 189.696 96.5119 190.325 96.2189C188.437 95.3274 184.198 93.4553 183.197 94.1685C182.197 94.8817 180.6 97.0375 179.83 98.1032Z" fill="#6E6E6E" stroke="#333333" stroke-miterlimit="10"/>
<path d="M181.163 90.7484C181.163 90.7484 181.074 84.1879 179.948 84.0015C178.821 83.8151 176.803 84.6499 176.803 84.6499C176.358 84.0163 176.055 83.2938 175.915 82.5321C175.775 81.7704 175.802 80.9875 175.993 80.237C176.017 80.1397 176.045 80.0384 176.078 79.9331C176.909 77.1613 180.977 82.336 181.346 83.1748C181.576 83.8241 181.67 84.5138 181.621 85.201L182.176 90.3797C182.176 90.3797 183.749 91.3036 183.011 91.3968C182.274 91.49 179.312 91.3968 180.053 90.6553C180.795 89.9137 181.163 90.7484 181.163 90.7484Z" fill="#333333" stroke="#333333" stroke-miterlimit="10"/>
<path d="M186.496 98.6584L176.738 94.201C176.819 95.1613 177.467 95.7975 178.391 96.6323C179.607 97.7426 182.829 101.252 182.829 101.252L186.496 98.6584Z" fill="#333333" stroke="#333333" stroke-miterlimit="10"/>
<path d="M142.643 76.3874H112.057V102.698H142.643V76.3874Z" fill="#333333" stroke="#333333" stroke-miterlimit="10"/>
<path d="M140.013 102.703H114.358V103.359H140.013V102.703Z" fill="#333333" stroke="#333333" stroke-miterlimit="10"/>
<path d="M169.858 131.858C170.64 131.773 171.183 131.704 171.183 131.704C171.183 131.704 165.728 122.538 165.728 122.08C165.728 121.622 170.627 115.244 170.627 115.244L169.797 113.765L156.116 115.244C156.116 115.244 163.974 124.394 166.47 127.352C167.68 128.792 168.811 130.296 169.858 131.858Z" fill="#6E6E6E" stroke="#333333" stroke-miterlimit="10"/>
<path d="M205.655 114.462L207.255 114.879" stroke="#333333" stroke-miterlimit="10"/>
<path d="M194.544 111.565L204.314 114.114" stroke="#333333" stroke-miterlimit="10"/>
<path d="M200.294 112.225L194.103 106.921L197.75 107.914L204.164 113.222L200.294 112.225Z" fill="#FCCFBA" stroke="#333333" stroke-miterlimit="10"/>
<path d="M159.144 123.482C160.643 123.616 161.713 123.721 161.713 123.721" stroke="#333333" stroke-miterlimit="10"/>
<path d="M147.615 124.564C147.615 124.564 147.615 123.239 150.602 123.073C153.037 123.051 155.472 123.156 157.896 123.389" stroke="#333333" stroke-miterlimit="10"/>
<path d="M170.522 102.626C170.153 102.536 168.054 100.814 168.431 100.77C171.766 100.364 180.389 101.357 181.848 101.58C183.809 101.86 181.139 113.149 180.486 117.161C179.923 120.617 180.705 122.943 180.636 123.644C180.63 123.698 180.638 123.753 180.658 123.803C180.679 123.853 180.712 123.898 180.754 123.932L181.159 124.289C181.224 124.348 181.266 124.428 181.277 124.516L181.414 125.841C181.424 125.926 181.466 126.004 181.53 126.06C181.594 126.116 181.677 126.146 181.763 126.145C182.764 126.14 183.758 125.984 184.713 125.683C185.831 125.217 187.602 124.564 187.144 125.589C186.686 126.615 185.187 128.483 184.348 128.856C183.509 129.228 179.032 130.44 177.909 130.724C177.07 130.93 175.024 130.93 174.051 130.918C173.995 130.918 173.938 130.904 173.889 130.876C173.839 130.849 173.796 130.809 173.766 130.761C173.736 130.713 173.718 130.658 173.715 130.601C173.712 130.544 173.723 130.487 173.748 130.436C174.153 129.512 175.04 127.449 175.113 126.246C175.206 124.657 175.583 114.669 176.422 111.775C177.155 109.251 178.177 106.232 178.424 104.834C178.434 104.79 178.435 104.745 178.428 104.701C178.42 104.657 178.404 104.615 178.379 104.577C178.355 104.539 178.324 104.506 178.287 104.481C178.25 104.456 178.208 104.438 178.164 104.429L170.522 102.626Z" fill="#333333" stroke="#333333" stroke-miterlimit="10"/>
<path d="M175.583 128.061L177.942 129.196C177.984 129.218 178.031 129.23 178.079 129.232C178.57 129.232 181.508 129.338 182.018 129.508C182.529 129.678 182.857 129.788 182.391 130.347C181.925 130.906 179.875 131.858 177.638 132.308C175.644 132.752 173.601 132.94 171.559 132.867C170.786 132.838 170.018 132.74 169.262 132.575C169.174 132.556 169.097 132.503 169.048 132.427C169 132.351 168.983 132.258 169.003 132.17L169.558 129.087C169.57 129.016 169.605 128.951 169.657 128.901C169.708 128.85 169.774 128.818 169.845 128.807L175.373 128.021C175.445 128.011 175.519 128.025 175.583 128.061Z" fill="#FCCFBA" stroke="#333333" stroke-miterlimit="10"/>
<path d="M182.391 130.347C182.796 129.848 182.63 129.719 182.188 129.565L181.807 129.609C181.033 130.124 179.692 130.728 177.35 131.283C174.749 131.944 172.055 132.153 169.383 131.903C169.297 131.894 169.212 131.918 169.142 131.97C169.073 132.022 169.026 132.098 169.011 132.182C168.991 132.271 169.008 132.363 169.056 132.439C169.105 132.515 169.182 132.568 169.27 132.588C170.026 132.752 170.795 132.85 171.568 132.879C173.609 132.952 175.652 132.764 177.646 132.32C179.875 131.858 181.925 130.91 182.391 130.347Z" fill="#FCCFBA" stroke="#333333" stroke-miterlimit="10"/>
<path d="M151.525 96.6039C151.525 96.6039 150.407 103.602 150.966 105.373C151.525 107.144 164.545 108.655 168.091 108.376C170.866 108.157 170.441 108.481 173.306 108.274C173.573 108.254 173.816 108.392 173.764 108.659L169.691 128.462C169.682 128.51 169.683 128.559 169.694 128.606C169.705 128.653 169.726 128.697 169.756 128.736C169.785 128.774 169.822 128.806 169.865 128.828C169.908 128.851 169.955 128.865 170.003 128.868C171.083 128.948 172.167 128.939 173.245 128.839C174.165 128.709 175.061 128.449 175.907 128.065C175.951 128.045 175.99 128.016 176.021 127.98C176.053 127.943 176.076 127.901 176.09 127.855L176.402 126.846C176.41 126.806 176.41 126.764 176.402 126.724L176.223 123.969C176.22 123.922 176.227 123.875 176.244 123.831C176.649 122.733 181.001 107.885 181.451 106.086C181.917 104.222 182.476 102.731 181.264 101.892C180.053 101.053 164.379 97.9047 164.379 97.9047L151.525 96.6039Z" fill="#951C3F" stroke="#333333" stroke-miterlimit="10"/>
<path d="M154.881 101.094C154.881 101.094 160.854 99.0434 164.395 97.9209" stroke="#333333" stroke-miterlimit="10"/>
<path d="M173.889 108.047C173.889 108.047 176.726 107.877 178.857 106.572" stroke="#333333" stroke-miterlimit="10"/>
<path d="M174.1 108.996C174.1 108.996 177.638 108.355 179.137 107.598" stroke="#333333" stroke-miterlimit="10"/>
<path d="M166.263 87.0812L166.802 91.6562L170.566 92.5963L176.819 93.2446L172.447 94.748L164.379 96.3608L166.263 87.0812Z" fill="#333333" stroke="#333333" stroke-miterlimit="10"/>
<path d="M163.929 71.1519C163.929 71.1519 161.879 70.6859 158.706 73.6684C155.849 76.4218 153.874 79.9619 153.033 83.8394C152.194 87.3811 151.355 94.0997 151.075 95.4045C150.796 96.7093 151.169 96.8957 151.821 97.2685C152.473 97.6413 156.485 98.391 160.031 98.5774C163.576 98.7638 165.254 98.1073 165.704 97.4549C166.154 96.8025 165.704 89.9015 166.263 87.6607C166.822 85.4198 167.941 77.6801 167.941 77.6801L164.294 71.3383L163.929 71.1519Z" fill="#333333" stroke="#333333" stroke-miterlimit="10"/>
<path d="M167.568 67.3267L164.772 71.4316L169.059 76.0025C169.059 76.0025 172.046 72.1772 172.512 71.8976C172.978 71.618 174.003 71.152 174.003 71.152L167.568 67.3267Z" fill="#FCCFBA" stroke="#333333" stroke-miterlimit="10"/>
<path d="M168.982 70.6373L170.684 73.8669L172.512 71.8975L168.982 70.6373Z" fill="#333333" stroke="#333333" stroke-miterlimit="10"/>
<path d="M176.803 64.5306L177.083 65.9286C177.083 65.9286 178.201 67.047 177.921 67.6994C177.642 68.3518 176.337 68.9151 176.337 68.9151C176.337 68.9151 174.627 72.477 174.25 72.8498C173.873 73.2226 170.927 71.9948 169.622 71.2492C168.318 70.5036 168.034 68.3559 168.034 68.3559L167.382 67.8899C167.382 67.8899 165.424 67.4239 165.238 66.3987C165.052 65.3735 164.958 64.251 166.077 63.5986C167.195 62.9462 168.034 62.5734 168.508 62.5734C168.982 62.5734 175.506 63.5986 175.506 63.5986L176.803 64.5306Z" fill="#FCCFBA" stroke="#333333" stroke-miterlimit="10"/>
<path d="M175.871 69.3811C175.871 69.3811 174.193 69.2838 173.816 68.2586" stroke="#333333" stroke-miterlimit="10"/>
<path d="M170.275 63.7809C170.275 63.7809 169.53 65.649 169.246 65.8354C168.962 66.0218 168.873 64.3401 167.196 64.717C165.518 65.0938 165.798 66.9538 166.264 67.3266C166.602 67.5753 166.98 67.7645 167.382 67.8858L166.49 68.9961C166.49 68.9961 166.085 68.5382 164.679 68.445C163.273 68.3518 161.599 66.7674 161.506 65.5558C161.413 64.3442 162.531 62.8489 162.531 62.8489C162.481 63.0344 162.501 63.2319 162.587 63.4038C162.673 63.5757 162.819 63.71 162.997 63.7809C163.477 63.9447 163.992 63.9769 164.489 63.8741L170.275 63.7809Z" fill="#333333" stroke="#333333" stroke-miterlimit="10"/>
<path d="M163.649 64.0605L177.362 64.6238C177.362 64.6238 176.896 60.5392 176.422 59.0236C175.948 57.5081 170.749 55.7819 167.933 56.0412C165.116 56.3005 164.107 59.4896 164.107 59.4896L163.649 64.0605Z" fill="#333333" stroke="#333333" stroke-miterlimit="10"/>
<path d="M172.775 64.4333C174.586 64.8515 176.425 65.1333 178.278 65.2762C181.078 65.4626 182.942 64.6238 182.942 63.9673C182.942 63.3109 176.787 64.5306 176.787 64.5306L172.775 64.4333Z" fill="#951C3F" stroke="#333333" stroke-miterlimit="10"/>
<path d="M164.399 69.2838L169.809 76.6548L167.568 79.1753L163.184 70.9655L164.399 69.2838Z" fill="#951C3F" stroke="#333333" stroke-miterlimit="10"/>
<path d="M159.253 91.3604L172.248 93.192C172.248 93.192 176.515 92.422 177.658 91.7453C178.801 91.0686 179.494 91.4576 179.729 91.7777C179.964 92.0979 180.288 94.3144 180.402 94.8047C180.515 95.2951 179.522 95.6152 179.125 95.7449C178.728 95.8745 176.694 94.9952 176.694 94.9952C176.694 94.9952 174.465 95.9799 173.638 95.8543C173.065 95.7486 172.515 95.5384 172.017 95.2343C172.017 95.2343 156.951 96.9078 154.759 97.0497C152.567 97.1915 153.361 94.9263 153.604 93.893C153.973 92.3207 154.253 90.9349 154.253 90.9349L159.253 91.3604Z" fill="#FCCFBA" stroke="#333333" stroke-miterlimit="10"/>
<path d="M161.733 75.2771C160.42 75.3379 158.896 76.7967 158.13 78.0448C156.027 81.5135 152.939 92.3856 152.939 92.3856L162.782 91.4414C162.782 91.4414 164.079 78.6202 163.71 77.2586C163.309 75.7553 162.568 75.2366 161.733 75.2771Z" fill="#951C3F" stroke="#333333" stroke-miterlimit="10"/>
<path d="M179.04 94.0753C179.04 93.8001 178.959 93.5308 178.807 93.3016C178.655 93.0724 178.438 92.8936 178.183 92.7879C177.929 92.6822 177.65 92.6544 177.38 92.7079C177.11 92.7614 176.861 92.8938 176.667 93.0885C176.472 93.2831 176.34 93.5311 176.286 93.8011C176.233 94.0711 176.261 94.3509 176.366 94.605C176.472 94.8592 176.651 95.0762 176.88 95.2286C177.109 95.381 177.378 95.462 177.654 95.4612C178.021 95.4612 178.374 95.3152 178.634 95.0553C178.894 94.7954 179.04 94.4429 179.04 94.0753Z" fill="#333333" stroke="#333333" stroke-miterlimit="10"/>
<path d="M120.769 111.358H112.482" stroke="#333333" stroke-miterlimit="10"/>
<path d="M115.246 117.278H97.874" stroke="#333333" stroke-miterlimit="10"/>
<path d="M161.433 67.5373H149.588" stroke="#333333" stroke-miterlimit="10"/>
<path d="M108.531 95.9596H104.191" stroke="#333333" stroke-miterlimit="10"/>
<path d="M206.565 126.325H214.305" stroke="#333333" stroke-linecap="round" stroke-linejoin="round"/>
<path d="M1 126.325H204.707" stroke="#333333" stroke-linecap="round" stroke-linejoin="round"/>
</svg>
