<svg width="203" height="25" viewBox="0 0 203 25" fill="none" xmlns="http://www.w3.org/2000/svg">
<path d="M11.376 4.12C11.376 7.48 14.256 15.288 14.256 18.68C11.856 15 6.608 6.84 4.208 3.16C3.056 1.432 0.208 2.04 0.208 4.248C0.208 9.848 0.208 15.448 0.208 21.048C0.208 23.8 4.496 23.8 4.496 21.048C4.496 17.848 2.256 11.224 2.256 8.056C4.656 11.736 9.264 18.872 11.664 22.552C12.816 24.28 15.664 23.672 15.664 21.464C15.664 15.672 15.664 9.912 15.664 4.12C15.664 1.336 11.376 1.336 11.376 4.12ZM32.9463 2.328C32.8503 2.328 32.7223 2.36 32.6263 2.392C31.3463 2.936 30.9623 4.6 31.0263 6.456C31.0583 6.808 31.0583 7.128 31.0583 7.64C31.0903 9.016 31.0263 10.328 30.8983 11.192C30.8023 11.672 30.6743 12.536 30.5143 12.984C29.3943 15.768 26.9623 17.592 24.7543 17.016C23.2823 16.664 22.5463 16.056 21.9703 15.032C20.9143 13.176 21.4583 8.856 22.8023 7.544C22.8663 7.48 22.9303 7.416 23.0263 7.32C24.7223 5.72 23.7623 1.88 21.7143 2.264C20.7863 2.456 19.8903 3.352 19.6983 5.016C19.4103 7.608 19.4103 10.2 19.6983 12.792C20.0823 16.312 21.2983 19.8 23.5063 21.592C25.9062 23.544 29.2343 23.512 31.6343 21.432C31.8903 23.928 35.9223 23.864 35.9223 21.176C35.9223 15.544 35.9223 9.912 35.9223 4.248C35.9223 2.52 34.1943 1.88 32.9463 2.328ZM56.2362 2.104C53.9643 2.104 51.7243 2.104 49.4843 2.104C48.8443 1.816 48.1083 1.816 47.4683 2.104C45.1963 2.104 42.9243 2.104 40.6523 2.104C37.9002 2.104 37.9002 6.392 40.6523 6.392C42.5403 6.392 45.7403 4.76 47.6283 4.76C47.6283 9.592 46.3163 16.056 46.3163 20.888C46.3163 23.672 50.6363 23.672 50.6363 20.888C50.6363 16.056 50.6363 9.368 50.6363 4.536C52.4923 4.536 54.3483 6.392 56.2362 6.392C58.9883 6.392 58.9883 2.104 56.2362 2.104ZM76.8612 2.104C74.5893 2.104 72.3493 2.104 70.1093 2.104C69.4693 1.816 68.7333 1.816 68.0933 2.104C65.8213 2.104 63.5493 2.104 61.2773 2.104C58.5252 2.104 58.5252 6.392 61.2773 6.392C63.1653 6.392 66.3653 4.76 68.2533 4.76C68.2533 9.592 66.9413 16.056 66.9413 20.888C66.9413 23.672 71.2613 23.672 71.2613 20.888C71.2613 16.056 71.2613 9.368 71.2613 4.536C73.1173 4.536 74.9733 6.392 76.8612 6.392C79.6133 6.392 79.6133 2.104 76.8612 2.104ZM97.1023 4.152C96.9423 2.872 95.3103 2.136 94.1903 2.456C92.8463 2.84 92.4623 4.056 92.5263 5.4C92.5583 5.656 92.5583 5.912 92.5583 6.264C92.5903 7.288 92.5263 8.248 92.3983 8.888C92.3023 9.24 92.1743 9.88 91.9823 10.2C91.4063 11.224 90.4463 12.088 89.3903 12.6C88.4943 12.312 87.4062 12.504 86.7983 13.208C86.5423 13.208 86.2863 13.176 85.9983 13.144C84.4943 12.888 83.6943 12.44 83.1183 11.704C81.9983 10.328 82.5743 7.16 83.9823 6.2C84.0463 6.168 84.1102 6.104 84.2063 6.072C85.9983 4.888 85.0063 2.072 82.8623 2.36C81.8703 2.488 80.9743 3.128 80.7823 4.376C80.4622 6.264 80.4622 8.152 80.7503 10.04C81.1663 12.632 82.4143 15.16 84.7183 16.472C85.1983 16.76 85.7743 17.016 86.3183 17.176C86.3183 18.392 86.3183 19.608 86.3183 20.824C86.3183 23.608 90.7663 23.608 90.7663 20.824C90.7663 19.64 90.7663 18.488 90.7663 17.336C91.7903 17.08 92.7503 16.696 93.5823 16.088C97.1023 13.528 97.6783 8.248 97.1023 4.152ZM123.897 13.368C123.545 12.888 123.097 12.472 122.585 12.12C124.377 10.232 124.473 7.416 122.969 5.432C121.689 3.704 119.641 2.712 117.081 2.392C115.737 2.232 114.169 2.232 112.665 2.296C111.545 1.496 109.625 1.88 109.241 3.416C109.113 3.608 109.017 3.832 108.985 4.024C108.921 4.376 109.017 4.664 109.177 4.92C109.177 10.232 109.177 15.576 109.177 20.888C109.177 22.712 111.065 23.352 112.345 22.744C116.313 23.096 121.049 22.616 123.513 20.056C125.305 18.168 125.401 15.352 123.897 13.368ZM113.465 4.376C114.777 3.704 117.113 3.544 118.233 4.216C118.969 4.664 119.385 5.24 119.673 6.392C119.993 7.864 119.129 9.432 117.657 10.392C117.369 10.584 117.081 10.776 116.761 10.904C116.409 11.032 116.089 11.16 115.737 11.192C115.161 11.32 114.361 11.352 113.465 11.352C113.465 9.016 113.465 6.712 113.465 4.376ZM117.689 18.84C117.337 18.968 117.017 19.096 116.665 19.16C116.025 19.256 115.097 19.288 114.073 19.288C113.849 19.288 113.657 19.288 113.465 19.288C113.465 17.784 113.465 16.312 113.465 14.808C113.497 14.776 113.561 14.744 113.593 14.712C113.625 14.648 113.689 14.584 113.721 14.52C114.681 13.464 116.633 12.44 118.265 13.144C120.825 14.264 119.705 17.976 117.689 18.84ZM146.057 15.768C145.929 15.544 145.801 15.288 145.641 15.064C145.353 14.584 144.969 14.168 144.553 13.752C144.233 10.424 143.529 6.872 141.385 4.376C139.017 1.624 134.921 1.368 132.265 3.768C130.281 5.592 129.385 8.408 128.937 11.192C128.009 11.544 127.465 12.344 127.337 13.176C127.209 14.136 127.753 14.872 128.521 15.256C128.425 17.208 128.457 19.224 128.649 21.176C128.745 22.328 129.481 23.32 130.633 23.32C131.593 23.32 132.713 22.328 132.617 21.176C132.425 19.48 132.425 17.784 132.457 16.088C132.489 15.512 132.489 14.744 132.489 13.912C133.929 13.272 136.169 13.496 137.705 13.752C138.857 13.944 139.945 14.488 140.681 15.288C140.809 17.176 140.809 19.128 140.649 21.016C140.425 23.768 144.393 23.768 144.617 21.016C144.713 19.992 144.745 18.936 144.745 17.88C145.833 17.752 146.505 16.696 146.057 15.768ZM138.153 11C136.713 10.776 134.569 10.712 132.585 10.776C132.713 8.472 133.001 6.168 133.705 4.984C134.665 3.256 137.577 5.272 138.889 6.776C139.817 7.8 140.201 9.656 140.393 11.48C139.657 11.256 138.921 11.096 138.153 11ZM165.205 19.8C163.093 16.888 159.541 11.992 157.397 9.08C159.317 7.32 162.677 7.544 164.597 5.784C166.645 3.896 163.573 0.855999 161.557 2.744C159.061 5.048 156.533 7.352 154.037 9.656C154.037 7.768 154.037 5.88 154.037 3.96C154.037 1.208 149.749 1.208 149.749 3.96C149.749 7.192 149.749 10.424 149.749 13.656C149.525 13.816 149.333 14.008 149.141 14.2C147.861 15.384 148.565 16.984 149.749 17.592C149.749 18.68 149.749 19.8 149.749 20.888C149.749 23.672 154.037 23.672 154.037 20.888C154.037 19.096 154.037 12.024 154.037 12.024C154.037 12.024 159.573 19.32 161.493 21.976C162.197 22.936 163.381 23.352 164.437 22.744C165.365 22.2 165.909 20.728 165.205 19.8ZM179.568 18.424C179.536 18.424 179.536 18.424 179.472 18.424C179.248 18.424 179.024 18.456 178.832 18.488C178.096 18.52 177.36 18.488 176.624 18.424C176.528 18.424 176.816 18.456 176.432 18.392C176.176 18.328 175.952 18.296 175.728 18.232C175.504 18.2 175.312 18.136 175.088 18.072C174.8 17.976 174.736 17.944 174.704 17.912C173.776 17.496 172.688 16.76 172.208 16.088C171.888 15.64 171.632 15.128 171.44 14.584C173.008 14.584 174.544 14.584 176.08 14.584C178.864 14.584 178.864 10.264 176.08 10.264C174.864 10.264 173.424 11.352 172.08 11.864C171.504 12.088 170.928 11.576 171.056 10.968C171.344 9.72 171.888 8.536 172.656 7.544C173.136 6.904 173.616 6.296 173.904 6.04C174.288 5.72 174.672 5.432 175.152 5.272C175.568 5.112 176.112 4.984 176.432 5.208C177.424 5.848 178.64 6.616 178.96 6.68C179.056 6.712 179.184 6.712 179.28 6.744C181.968 7.352 183.152 3.16 180.432 2.584C176.272 1.656 171.28 2.584 168.848 6.392C166.864 9.496 166.864 14.072 168.336 17.368C169.52 20.024 171.984 21.816 174.768 22.456C176.592 22.872 178.48 22.936 180.336 22.648C182.928 22.2 182 18.392 179.568 18.424ZM201.911 20.76C201.239 19.064 200.439 16.568 199.255 15C199.479 14.808 199.703 14.584 199.927 14.296C201.783 11.96 201.879 8.408 200.343 5.912C198.999 3.736 196.407 2.552 193.783 2.168C192.087 1.912 190.327 1.912 188.599 2.104C187.767 2.008 186.871 2.328 186.455 3.064C186.199 3.384 186.039 3.768 185.975 4.152C185.911 4.568 186.007 4.952 186.167 5.272V14.616C185.687 14.968 185.239 15.384 184.791 15.8C183.959 16.568 183.959 17.592 184.375 18.424C184.567 18.776 184.823 19 185.111 19.16C185.431 19.768 185.815 20.472 186.167 21.08C186.167 23.864 190.455 23.864 190.455 21.08C190.455 19.992 190.455 16.28 190.455 15.192C191.543 15.224 192.631 15.384 193.687 15.544C194.679 15.704 195.543 16.248 196.055 17.08C196.791 18.264 197.143 19.896 197.463 21.176C197.783 22.328 199.031 23.288 200.215 23.288C201.719 23.288 202.455 22.136 201.911 20.76ZM195.031 12.056C194.679 12.344 194.327 12.6 193.943 12.792C193.623 12.952 193.271 13.112 192.919 13.176C192.311 13.304 191.415 13.368 190.455 13.336C190.455 12.984 190.455 12.6 190.455 12.248C190.455 9.72 190.455 7.192 190.455 4.696C191.767 3.768 194.295 3.512 195.479 4.376C196.215 4.952 196.663 5.688 196.951 7.128C197.271 8.92 196.439 10.84 195.031 12.056Z" fill="#951C3F"/>
</svg>
