<svg width="201" height="132" viewBox="0 0 201 132" fill="none" xmlns="http://www.w3.org/2000/svg">
<path d="M26.752 7.24C26.752 13.96 32.512 29.576 32.512 36.36C27.712 29 17.216 12.68 12.416 5.32C10.112 1.864 4.416 3.08 4.416 7.496C4.416 18.696 4.416 29.896 4.416 41.096C4.416 46.6 12.992 46.6 12.992 41.096C12.992 34.696 8.512 21.448 8.512 15.112C13.312 22.472 22.528 36.744 27.328 44.104C29.632 47.56 35.328 46.344 35.328 41.928C35.328 30.344 35.328 18.824 35.328 7.24C35.328 1.672 26.752 1.672 26.752 7.24ZM69.8925 3.656C69.7005 3.656 69.4445 3.72 69.2525 3.784C66.6925 4.872 65.9245 8.2 66.0525 11.912C66.1165 12.616 66.1165 13.256 66.1165 14.28C66.1805 17.032 66.0525 19.656 65.7965 21.384C65.6045 22.344 65.3485 24.072 65.0285 24.968C62.7885 30.536 57.9245 34.184 53.5085 33.032C50.5645 32.328 49.0925 31.112 47.9405 29.064C45.8285 25.352 46.9165 16.712 49.6045 14.088C49.7325 13.96 49.8605 13.832 50.0525 13.64C53.4445 10.44 51.5245 2.76 47.4285 3.528C45.5725 3.912 43.7805 5.704 43.3965 9.032C42.8205 14.216 42.8205 19.4 43.3965 24.584C44.1645 31.624 46.5965 38.6 51.0125 42.184C55.8125 46.088 62.4685 46.024 67.2685 41.864C67.7805 46.856 75.8445 46.728 75.8445 41.352C75.8445 30.088 75.8445 18.824 75.8445 7.496C75.8445 4.04 72.3885 2.76 69.8925 3.656ZM116.472 3.208C111.929 3.208 107.449 3.208 102.969 3.208C101.689 2.632 100.217 2.632 98.9365 3.208C94.3925 3.208 89.8485 3.208 85.3045 3.208C79.8005 3.208 79.8005 11.784 85.3045 11.784C89.0805 11.784 95.4805 8.52 99.2565 8.52C99.2565 18.184 96.6325 31.112 96.6325 40.776C96.6325 46.344 105.273 46.344 105.273 40.776C105.273 31.112 105.273 17.736 105.273 8.072C108.985 8.072 112.697 11.784 116.472 11.784C121.977 11.784 121.977 3.208 116.472 3.208ZM157.722 3.208C153.179 3.208 148.699 3.208 144.219 3.208C142.939 2.632 141.467 2.632 140.187 3.208C135.643 3.208 131.099 3.208 126.555 3.208C121.05 3.208 121.05 11.784 126.555 11.784C130.331 11.784 136.731 8.52 140.507 8.52C140.507 18.184 137.883 31.112 137.883 40.776C137.883 46.344 146.523 46.344 146.523 40.776C146.523 31.112 146.523 17.736 146.523 8.072C150.235 8.072 153.947 11.784 157.722 11.784C163.227 11.784 163.227 3.208 157.722 3.208ZM198.205 7.304C197.885 4.744 194.621 3.272 192.381 3.912C189.693 4.68 188.925 7.112 189.053 9.8C189.117 10.312 189.117 10.824 189.117 11.528C189.181 13.576 189.053 15.496 188.797 16.776C188.605 17.48 188.349 18.76 187.965 19.4C186.813 21.448 184.893 23.176 182.781 24.2C180.989 23.624 178.812 24.008 177.597 25.416C177.085 25.416 176.573 25.352 175.997 25.288C172.989 24.776 171.389 23.88 170.237 22.408C167.997 19.656 169.149 13.32 171.965 11.4C172.093 11.336 172.22 11.208 172.413 11.144C175.997 8.776 174.013 3.144 169.725 3.72C167.741 3.976 165.949 5.256 165.565 7.752C164.924 11.528 164.924 15.304 165.501 19.08C166.333 24.264 168.829 29.32 173.437 31.944C174.397 32.52 175.549 33.032 176.637 33.352C176.637 35.784 176.637 38.216 176.637 40.648C176.637 46.216 185.533 46.216 185.533 40.648C185.533 38.28 185.533 35.976 185.533 33.672C187.581 33.16 189.501 32.392 191.165 31.176C198.205 26.056 199.357 15.496 198.205 7.304Z" fill="#951C3F"/>
<path d="M33.856 99.736C33.152 98.776 32.256 97.944 31.232 97.24C34.816 93.464 35.008 87.832 32 83.864C29.44 80.408 25.344 78.424 20.224 77.784C17.536 77.464 14.4 77.464 11.392 77.592C9.152 75.992 5.312 76.76 4.544 79.832C4.288 80.216 4.096 80.664 4.032 81.048C3.904 81.752 4.096 82.328 4.416 82.84C4.416 93.464 4.416 104.152 4.416 114.776C4.416 118.424 8.192 119.704 10.752 118.488C18.688 119.192 28.16 118.232 33.088 113.112C36.672 109.336 36.864 103.704 33.856 99.736ZM12.992 81.752C15.616 80.408 20.288 80.088 22.528 81.432C24 82.328 24.832 83.48 25.408 85.784C26.048 88.728 24.32 91.864 21.376 93.784C20.8 94.168 20.224 94.552 19.584 94.808C18.88 95.064 18.24 95.32 17.536 95.384C16.384 95.64 14.784 95.704 12.992 95.704C12.992 91.032 12.992 86.424 12.992 81.752ZM21.44 110.68C20.736 110.936 20.096 111.192 19.392 111.32C18.112 111.512 16.256 111.576 14.208 111.576C13.76 111.576 13.376 111.576 12.992 111.576C12.992 108.568 12.992 105.624 12.992 102.616C13.056 102.552 13.184 102.488 13.248 102.424C13.312 102.296 13.44 102.168 13.504 102.04C15.424 99.928 19.328 97.88 22.592 99.288C27.712 101.528 25.472 108.952 21.44 110.68ZM78.177 104.536C77.921 104.088 77.665 103.576 77.345 103.128C76.769 102.168 76.001 101.336 75.169 100.504C74.529 93.848 73.121 86.744 68.833 81.752C64.097 76.248 55.905 75.736 50.593 80.536C46.625 84.184 44.833 89.816 43.937 95.384C42.081 96.088 40.993 97.688 40.737 99.352C40.481 101.272 41.569 102.744 43.105 103.512C42.913 107.416 42.977 111.448 43.361 115.352C43.553 117.656 45.025 119.64 47.329 119.64C49.249 119.64 51.489 117.656 51.297 115.352C50.913 111.96 50.913 108.568 50.977 105.176C51.041 104.024 51.041 102.488 51.041 100.824C53.921 99.544 58.401 99.992 61.473 100.504C63.777 100.888 65.953 101.976 67.425 103.576C67.681 107.352 67.681 111.256 67.361 115.032C66.913 120.536 74.849 120.536 75.297 115.032C75.489 112.984 75.553 110.872 75.553 108.76C77.729 108.504 79.073 106.392 78.177 104.536ZM62.369 95C59.489 94.552 55.201 94.424 51.233 94.552C51.489 89.944 52.065 85.336 53.473 82.968C55.393 79.512 61.217 83.544 63.841 86.552C65.697 88.6 66.465 92.312 66.849 95.96C65.377 95.512 63.905 95.192 62.369 95ZM116.472 112.6C112.249 106.776 105.145 96.984 100.857 91.16C104.697 87.64 111.417 88.088 115.257 84.568C119.353 80.792 113.208 74.712 109.177 78.488C104.185 83.096 99.1285 87.704 94.1365 92.312C94.1365 88.536 94.1365 84.76 94.1365 80.92C94.1365 75.416 85.5605 75.416 85.5605 80.92C85.5605 87.384 85.5605 93.848 85.5605 100.312C85.1125 100.632 84.7285 101.016 84.3445 101.4C81.7845 103.768 83.1925 106.968 85.5605 108.184C85.5605 110.36 85.5605 112.6 85.5605 114.776C85.5605 120.344 94.1365 120.344 94.1365 114.776C94.1365 111.192 94.1365 97.048 94.1365 97.048C94.1365 97.048 105.209 111.64 109.049 116.952C110.457 118.872 112.825 119.704 114.937 118.488C116.793 117.4 117.881 114.456 116.472 112.6ZM145.199 109.848C145.135 109.848 145.135 109.848 145.007 109.848C144.559 109.848 144.111 109.912 143.727 109.976C142.255 110.04 140.783 109.976 139.311 109.848C139.119 109.848 139.695 109.912 138.927 109.784C138.415 109.656 137.967 109.592 137.519 109.464C137.071 109.4 136.687 109.272 136.239 109.144C135.663 108.952 135.535 108.888 135.471 108.824C133.615 107.992 131.439 106.52 130.479 105.176C129.839 104.28 129.327 103.256 128.943 102.168C132.079 102.168 135.151 102.168 138.223 102.168C143.791 102.168 143.791 93.528 138.223 93.528C135.791 93.528 132.911 95.704 130.223 96.728C129.071 97.176 127.919 96.152 128.175 94.936C128.751 92.44 129.839 90.072 131.375 88.088C132.335 86.808 133.295 85.592 133.871 85.08C134.639 84.44 135.407 83.864 136.367 83.544C137.199 83.224 138.287 82.968 138.927 83.416C140.911 84.696 143.343 86.232 143.983 86.36C144.175 86.424 144.431 86.424 144.623 86.488C149.999 87.704 152.367 79.32 146.927 78.168C138.607 76.312 128.623 78.168 123.759 85.784C119.791 91.992 119.791 101.144 122.735 107.736C125.103 113.048 130.031 116.632 135.599 117.912C139.247 118.744 143.023 118.872 146.735 118.296C151.919 117.4 150.062 109.784 145.199 109.848ZM189.885 114.52C188.541 111.128 186.941 106.136 184.573 103C185.021 102.616 185.469 102.168 185.917 101.592C189.629 96.92 189.821 89.816 186.749 84.824C184.061 80.472 178.877 78.104 173.629 77.336C170.237 76.824 166.717 76.824 163.261 77.208C161.597 77.016 159.805 77.656 158.973 79.128C158.461 79.768 158.141 80.536 158.013 81.304C157.885 82.136 158.077 82.904 158.397 83.544V102.232C157.437 102.936 156.541 103.768 155.645 104.6C153.981 106.136 153.981 108.184 154.813 109.848C155.197 110.552 155.709 111 156.285 111.32C156.925 112.536 157.693 113.944 158.397 115.16C158.397 120.728 166.973 120.728 166.973 115.16C166.973 112.984 166.973 105.56 166.973 103.384C169.149 103.448 171.325 103.768 173.437 104.088C175.421 104.408 177.149 105.496 178.173 107.16C179.645 109.528 180.349 112.792 180.989 115.352C181.629 117.656 184.125 119.576 186.493 119.576C189.501 119.576 190.973 117.272 189.885 114.52ZM176.125 97.112C175.421 97.688 174.717 98.2 173.949 98.584C173.309 98.904 172.605 99.224 171.901 99.352C170.685 99.608 168.893 99.736 166.973 99.672C166.973 98.968 166.973 98.2 166.973 97.496C166.973 92.44 166.973 87.384 166.973 82.392C169.597 80.536 174.653 80.024 177.021 81.752C178.493 82.904 179.389 84.376 179.965 87.256C180.605 90.84 178.941 94.68 176.125 97.112Z" fill="#951C3F"/>
</svg>
